<svg xmlns="http://www.w3.org/2000/svg" xmlns:xlink="http://www.w3.org/1999/xlink" width="480" zoomAndPan="magnify" viewBox="0 0 360 231" height="308" preserveAspectRatio="xMidYMid meet" version="1.0"><path fill="#f88632" d="M 46.441406 197.964844 C 46.441406 197.964844 61.46875 195.703125 62.261719 181.242188 L 295.253906 181.242188 C 295.253906 181.242188 295.027344 197.285156 301.46875 197.851562 C 306.667969 198.300781 308.585938 199.09375 309.152344 199.320312 C 309.71875 201.578125 310.28125 203.273438 311.75 203.726562 C 314.011719 204.515625 316.835938 202.597656 318.644531 205.082031 C 319.210938 214.574219 319.660156 218.414062 319.660156 218.414062 C 323.839844 219.773438 324.746094 218.414062 324.746094 218.414062 C 325.199219 216.382812 325.648438 212.765625 325.988281 208.472656 C 325.988281 208.472656 330.847656 224.742188 358.417969 223.613281 C 359.097656 223.839844 359.320312 223.613281 358.871094 222.710938 C 355.367188 216.496094 343.390625 192.652344 341.242188 176.042969 C 340.226562 168.472656 337.964844 143.613281 334.578125 139.433594 C 336.046875 140.222656 336.949219 140.335938 337.0625 139.433594 C 337.515625 135.25 329.152344 124.40625 324.746094 116.722656 C 320.339844 109.035156 308.023438 97.964844 308.023438 97.964844 C 311.527344 99.996094 304.746094 92.878906 297.628906 84.742188 C 293.105469 79.660156 291.414062 77.058594 287.230469 75.027344 C 287.457031 74.234375 287.570312 73.21875 286.78125 71.863281 C 284.40625 67.90625 284.859375 66.4375 283.953125 64.40625 C 283.953125 64.40625 283.503906 63.726562 282.710938 62.257812 C 281.921875 60.675781 284.40625 58.300781 286.667969 56.496094 C 290.167969 53.894531 286.667969 50.054688 286.667969 50.054688 C 286.667969 50.054688 289.039062 48.585938 290.167969 43.160156 C 291.414062 37.851562 292.769531 25.648438 292.769531 25.648438 L 287.570312 25.648438 C 287.570312 23.726562 287.570312 22.484375 287.570312 22.484375 C 287.570312 22.484375 286.101562 22.257812 283.84375 22.03125 L 283.84375 6.324219 L 285.535156 6.324219 C 287.117188 6.324219 288.363281 5.082031 288.363281 3.5 C 288.363281 1.917969 287.117188 0.675781 285.535156 0.675781 L 89.832031 0.675781 C 88.25 0.675781 87.003906 1.917969 87.003906 3.5 C 87.003906 5.082031 88.25 6.324219 89.832031 6.324219 L 93.558594 6.324219 L 93.558594 16.269531 C 91.976562 16.15625 90.960938 16.15625 90.960938 16.15625 L 91.527344 20.449219 L 91.636719 20.449219 C 86.328125 20.335938 82.148438 20.449219 82.148438 20.449219 C 82.148438 20.449219 83.050781 27.34375 83.730469 30.957031 C 84.292969 34.460938 85.535156 38.078125 87.117188 45.984375 C 88.699219 53.894531 91.300781 59.433594 90.960938 62.257812 C 90.734375 64.40625 90.847656 72.539062 90.960938 76.042969 C 89.605469 76.609375 88.472656 77.171875 87.570312 77.738281 C 80.226562 82.710938 74.578125 90.054688 74.578125 90.054688 C 74.578125 90.054688 54.351562 108.8125 46.328125 114.6875 C 38.191406 120.449219 27.34375 123.5 22.710938 139.773438 C 21.128906 145.421875 20.679688 147.792969 20.902344 148.359375 C 20.902344 148.359375 20.902344 148.472656 20.789062 148.472656 C 20.789062 148.472656 16.496094 169.601562 10.621094 179.546875 C 0 197.398438 1.921875 228.246094 5.761719 229.148438 C 6.554688 229.375 6.894531 228.359375 7.003906 226.550781 C 7.003906 226.550781 13.671875 230.054688 22.710938 224.96875 C 31.75 219.882812 33.332031 215.703125 33.558594 212.199219 C 33.671875 211.296875 33.671875 209.828125 33.558594 207.90625 C 33.558594 207.90625 33.21875 204.96875 38.191406 201.128906 C 38.644531 208.246094 39.210938 215.25 40 218.414062 C 40 218.414062 40.902344 219.773438 45.085938 218.414062 M 281.46875 6.324219 L 281.46875 22.03125 C 279.097656 21.804688 276.496094 21.691406 274.238281 21.804688 L 274.238281 6.324219 Z M 271.75 6.324219 L 271.75 22.03125 C 268.925781 22.484375 263.839844 23.726562 258.757812 24.96875 L 258.757812 6.324219 Z M 256.269531 6.324219 L 256.269531 25.648438 C 254.914062 25.984375 253.558594 26.324219 252.203125 26.664062 L 252.203125 6.324219 Z M 249.71875 6.324219 L 249.71875 27.230469 C 249.378906 27.34375 248.925781 27.457031 248.585938 27.457031 C 248.585938 27.457031 244.972656 26.664062 238.53125 27.792969 C 237.964844 27.90625 237.289062 28.019531 236.722656 28.019531 L 236.722656 6.324219 Z M 234.238281 6.324219 L 234.238281 28.359375 C 232.882812 28.472656 231.527344 28.585938 230.167969 28.585938 L 230.167969 6.324219 Z M 227.796875 6.324219 L 227.796875 28.585938 C 225.199219 28.585938 222.710938 28.585938 220.226562 28.585938 C 217.515625 28.585938 215.707031 28.246094 214.351562 27.566406 L 214.351562 6.324219 Z M 211.863281 6.324219 L 211.863281 26.210938 C 211.300781 25.761719 210.734375 25.421875 210.167969 24.96875 C 209.492188 24.515625 208.699219 23.953125 207.910156 23.386719 L 207.910156 6.4375 L 211.863281 6.4375 Z M 205.3125 6.324219 L 205.3125 21.691406 C 202.9375 20.222656 200.226562 18.867188 197.515625 18.300781 C 196.382812 18.078125 194.6875 17.625 192.769531 17.285156 L 192.769531 6.324219 Z M 190.394531 6.324219 L 190.394531 16.832031 C 189.039062 16.496094 187.683594 16.269531 186.328125 15.929688 L 186.328125 6.324219 Z M 183.839844 6.324219 L 183.839844 15.363281 C 181.46875 14.800781 179.773438 14.460938 179.773438 14.460938 L 179.773438 19.09375 C 175.480469 17.398438 172.203125 16.269531 172.203125 16.269531 L 171.1875 21.804688 L 171.1875 6.324219 Z M 168.699219 6.324219 L 168.699219 22.484375 C 167.570312 22.484375 166.214844 22.597656 164.632812 22.710938 L 164.632812 6.324219 Z M 162.261719 6.324219 L 162.261719 22.824219 C 160.566406 22.933594 158.644531 23.160156 156.835938 23.273438 C 154.351562 23.5 151.75 23.839844 149.152344 24.066406 L 149.152344 6.324219 Z M 146.554688 6.324219 L 146.554688 24.40625 C 145.199219 24.515625 143.84375 24.742188 142.484375 24.855469 L 142.484375 6.324219 Z M 140.113281 6.324219 L 140.113281 25.082031 C 138.644531 25.195312 137.289062 25.421875 136.046875 25.421875 C 134.011719 25.648438 130.960938 25.195312 127.570312 24.292969 L 127.570312 6.210938 L 140.113281 6.210938 Z M 125.085938 6.324219 L 125.085938 23.726562 C 123.730469 23.386719 122.371094 22.933594 121.015625 22.484375 L 121.015625 6.324219 Z M 118.644531 6.324219 L 118.644531 21.691406 C 116.835938 21.015625 115.140625 20.335938 113.558594 19.660156 C 111.414062 18.640625 108.363281 17.964844 105.199219 17.511719 L 105.199219 6.324219 Z M 96.046875 6.324219 L 102.710938 6.324219 L 102.710938 17.171875 C 100.339844 16.832031 97.964844 16.722656 96.046875 16.496094 Z M 96.046875 6.324219 " fill-opacity="1" fill-rule="nonzero"/><path fill="#f5d692" d="M 358.53125 223.953125 C 330.960938 225.082031 326.101562 208.8125 326.101562 208.8125 L 327.570312 184.628906 C 324.179688 183.046875 320.902344 183.386719 317.851562 182.597656 L 318.644531 205.308594 C 316.835938 202.710938 314.011719 204.742188 311.75 203.953125 C 310.28125 203.5 309.71875 201.691406 309.152344 199.546875 C 308.585938 199.207031 306.667969 198.527344 301.46875 198.078125 C 295.027344 197.511719 295.253906 181.464844 295.253906 181.464844 L 313.898438 181.464844 C 308.363281 179.320312 311.527344 177.398438 305.761719 174.800781 C 303.390625 173.671875 297.175781 172.089844 290.394531 173.894531 C 283.617188 175.703125 269.039062 173.78125 261.921875 174.574219 C 254.6875 175.25 236.269531 173.332031 218.417969 173.105469 C 200.566406 172.878906 189.832031 168.246094 173.21875 170.730469 C 156.496094 173.332031 135.820312 174.6875 118.191406 174.460938 C 100.566406 174.234375 65.085938 176.832031 56.046875 180.222656 C 55.480469 180.449219 54.914062 180.5625 54.238281 180.789062 L 62.261719 181.464844 C 61.582031 195.929688 46.441406 198.191406 46.441406 198.191406 C 47.003906 186.890625 46.78125 185.082031 46.894531 181.464844 C 43.839844 181.464844 40.566406 181.128906 37.289062 180.902344 L 38.191406 201.351562 C 33.21875 205.195312 33.558594 208.132812 33.558594 208.132812 C 33.558594 210.054688 33.558594 211.523438 33.558594 212.425781 C 33.332031 215.929688 31.75 220.109375 22.710938 225.195312 C 13.671875 230.28125 7.003906 226.777344 7.003906 226.777344 C 6.894531 228.585938 6.554688 229.601562 5.761719 229.375 C 1.921875 228.359375 0 197.625 10.621094 179.773438 C 16.609375 169.714844 20.789062 148.699219 20.789062 148.699219 C 23.503906 141.578125 27.683594 129.261719 35.933594 124.855469 C 44.179688 120.449219 68.023438 114.347656 68.023438 114.347656 C 68.023438 114.347656 115.253906 101.804688 131.074219 102.257812 C 146.894531 102.710938 227.683594 107.230469 236.835938 108.359375 C 245.988281 109.488281 296.949219 109.039062 309.378906 112.089844 C 321.808594 115.140625 334.6875 139.773438 334.6875 139.773438 C 338.078125 143.953125 340.339844 168.8125 341.355469 176.382812 C 343.503906 192.878906 355.480469 216.832031 358.984375 223.046875 C 359.433594 223.953125 359.210938 224.179688 358.53125 223.953125 Z M 87.003906 46.097656 C 88.585938 54.007812 91.1875 59.546875 90.847656 62.371094 C 90.507812 65.195312 90.847656 77.851562 90.847656 77.851562 C 90.847656 77.851562 92.203125 77.285156 94.6875 76.382812 C 94.6875 76.382812 94.6875 63.386719 94.6875 57.964844 C 94.6875 52.425781 90.847656 27.90625 90.847656 27.90625 C 90.847656 27.90625 101.808594 29.941406 111.414062 30.394531 C 121.015625 30.84375 127.910156 30.730469 137.289062 31.296875 C 146.554688 31.863281 154.914062 30.957031 157.738281 30.394531 C 157.402344 30.394531 157.175781 30.507812 156.949219 30.507812 C 153.21875 30.617188 142.597656 29.714844 137.289062 28.925781 C 131.976562 28.132812 116.609375 24.855469 109.152344 22.484375 C 101.695312 19.996094 82.035156 20.675781 82.035156 20.675781 C 82.035156 20.675781 82.9375 27.566406 83.617188 31.183594 C 84.292969 34.6875 85.535156 38.191406 87.003906 46.097656 Z M 174.578125 25.535156 L 175.820312 36.945312 L 176.15625 38.867188 C 176.609375 32.3125 177.515625 25.421875 177.515625 25.421875 C 177.515625 25.421875 188.25 27.90625 198.304688 29.941406 C 208.25 31.976562 237.515625 32.425781 244.859375 32.765625 C 252.203125 33.105469 274.011719 31.070312 276.382812 30.84375 C 278.871094 30.617188 277.628906 32.199219 276.382812 38.867188 C 275.140625 45.535156 269.71875 56.382812 269.945312 62.484375 C 270.167969 68.472656 270.394531 73.667969 270.394531 73.667969 C 273.785156 74.347656 282.597656 74.800781 282.597656 74.800781 C 282.597656 74.800781 282.597656 73.21875 281.355469 71.296875 C 280.113281 69.375 280 61.128906 280.453125 56.945312 C 280.902344 52.765625 284.972656 44.855469 285.535156 42.03125 C 286.101562 39.207031 287.796875 35.363281 287.796875 30.84375 C 287.796875 26.324219 287.796875 22.710938 287.796875 22.710938 C 287.796875 22.710938 277.738281 21.242188 271.976562 22.03125 C 266.328125 22.824219 250.734375 27.34375 246.214844 28.019531 C 241.695312 28.699219 232.542969 30.957031 221.015625 30.730469 C 209.492188 30.507812 201.128906 29.039062 192.996094 24.855469 C 184.859375 20.675781 172.316406 16.269531 172.316406 16.269531 C 172.316406 16.269531 170.734375 23.386719 170.960938 26.890625 C 168.8125 27.566406 165.988281 28.472656 163.503906 29.148438 C 167.230469 28.132812 172.203125 26.777344 174.578125 25.535156 Z M 174.578125 25.535156 " fill-opacity="1" fill-rule="nonzero"/><path fill="#f3c0ce" d="M 276.269531 62.484375 C 276.496094 68.472656 276.722656 73.667969 276.722656 73.667969 L 189.492188 76.382812 L 179.320312 76.382812 L 178.984375 77.738281 L 141.355469 76.382812 L 109.378906 77.851562 L 94.800781 76.382812 C 94.800781 76.382812 94.800781 63.386719 94.800781 57.964844 C 94.800781 52.425781 90.960938 27.90625 90.960938 27.90625 C 90.960938 27.90625 101.921875 29.941406 111.527344 30.394531 C 121.128906 30.84375 128.023438 30.730469 137.402344 31.296875 C 146.667969 31.863281 155.027344 30.957031 157.851562 30.394531 C 157.851562 30.394531 170.394531 27.679688 174.6875 25.535156 L 175.933594 36.945312 L 176.269531 38.867188 C 176.722656 32.3125 177.628906 25.421875 177.628906 25.421875 C 177.628906 25.421875 188.363281 27.90625 198.417969 29.941406 C 208.363281 31.976562 237.628906 32.425781 244.972656 32.765625 C 252.316406 33.105469 274.125 31.070312 276.496094 30.84375 C 278.984375 30.617188 277.738281 32.199219 276.496094 38.867188 C 274.914062 45.421875 276.046875 56.382812 276.269531 62.484375 Z M 276.269531 62.484375 " fill-opacity="1" fill-rule="nonzero"/><path fill="#9ec6a9" d="M 324.859375 117.058594 C 320.453125 109.375 308.136719 98.300781 308.136719 98.300781 C 311.636719 100.335938 304.859375 93.21875 297.738281 85.082031 C 293.21875 79.996094 291.527344 77.398438 287.34375 75.363281 C 287.570312 74.574219 287.683594 73.558594 286.894531 72.199219 C 284.066406 67.566406 285.3125 66.324219 283.277344 63.386719 C 281.355469 60.449219 283.730469 59.996094 286.78125 56.722656 C 289.832031 53.445312 286.78125 50.28125 286.78125 50.28125 C 286.78125 50.28125 289.152344 48.8125 290.28125 43.386719 C 291.527344 38.078125 292.882812 25.875 292.882812 25.875 L 287.683594 25.875 C 287.683594 27.230469 287.683594 28.925781 287.683594 30.84375 C 287.683594 35.363281 286.101562 39.09375 285.421875 42.03125 C 284.746094 44.96875 280.789062 52.765625 280.339844 56.945312 C 279.886719 61.128906 280 69.375 281.242188 71.296875 C 281.808594 72.089844 282.035156 72.878906 282.261719 73.445312 C 280.679688 72.992188 278.871094 72.539062 276.609375 71.976562 C 276.269531 71.863281 275.933594 71.863281 275.59375 71.75 C 260.789062 68.472656 233.558594 67.34375 218.984375 67.679688 C 204.40625 68.019531 173.332031 68.246094 169.378906 67.792969 C 165.421875 67.34375 140.566406 68.472656 130.960938 68.925781 C 121.355469 69.375 94.800781 72.878906 87.457031 77.738281 C 80.113281 82.597656 74.578125 90.054688 74.578125 90.054688 C 74.578125 90.054688 54.351562 108.8125 46.328125 114.6875 C 38.191406 120.449219 27.34375 123.5 22.710938 139.773438 C 18.078125 156.042969 23.390625 145.535156 25.535156 141.128906 C 27.683594 136.722656 29.71875 127.90625 38.304688 126.097656 C 46.894531 124.292969 47.796875 121.015625 54.800781 124.179688 C 61.808594 127.34375 76.15625 128.472656 88.699219 128.472656 C 101.242188 128.472656 116.722656 128.472656 128.136719 128.472656 C 139.546875 128.472656 177.0625 127.117188 188.925781 126.097656 C 200.789062 125.195312 216.949219 129.601562 234.125 130.507812 C 251.300781 131.410156 276.15625 134.007812 284.40625 133.105469 C 292.65625 132.199219 305.085938 125.648438 311.527344 125.648438 C 317.964844 125.648438 336.835938 143.953125 337.289062 139.773438 C 337.628906 135.589844 329.265625 124.628906 324.859375 117.058594 Z M 220.902344 30.730469 C 232.429688 30.957031 241.582031 28.8125 246.101562 28.019531 C 246.78125 27.90625 247.570312 27.792969 248.585938 27.457031 C 248.585938 27.457031 244.972656 26.664062 238.53125 27.792969 C 232.089844 28.925781 225.988281 28.585938 220.226562 28.585938 C 214.464844 28.585938 212.882812 26.890625 210.167969 24.855469 C 207.34375 22.933594 202.371094 19.433594 197.628906 18.414062 C 192.882812 17.398438 179.773438 14.460938 179.773438 14.460938 L 179.773438 19.09375 C 183.84375 20.675781 188.8125 22.710938 192.882812 24.742188 C 201.015625 28.925781 209.378906 30.507812 220.902344 30.730469 Z M 91.636719 20.5625 C 97.738281 20.675781 105.199219 21.128906 109.265625 22.484375 C 116.722656 24.96875 132.203125 28.246094 137.402344 28.925781 C 142.597656 29.601562 153.332031 30.617188 157.0625 30.507812 C 157.289062 30.507812 157.628906 30.507812 157.851562 30.394531 C 158.078125 30.394531 160.453125 29.828125 163.390625 29.148438 C 165.988281 28.472656 168.699219 27.566406 170.847656 26.890625 C 170.847656 25.875 170.960938 24.40625 171.074219 22.933594 L 171.074219 22.371094 C 171.074219 22.371094 163.730469 22.597656 156.835938 23.386719 C 149.832031 24.179688 141.015625 25.082031 136.15625 25.535156 C 131.1875 25.984375 120.566406 22.710938 113.558594 19.660156 C 106.554688 16.609375 90.960938 16.269531 90.960938 16.269531 Z M 170.621094 27.117188 C 170.28125 27.230469 169.945312 27.34375 169.492188 27.457031 C 169.945312 27.34375 170.28125 27.230469 170.621094 27.117188 Z M 170.621094 27.117188 " fill-opacity="1" fill-rule="nonzero"/><path fill="#32312b" d="M 359.433594 222.710938 C 356.269531 217.171875 344.066406 193.105469 341.921875 176.269531 C 341.808594 175.027344 341.582031 173.445312 341.355469 171.523438 C 339.886719 159.207031 338.304688 145.875 336.046875 140.789062 C 336.496094 140.902344 336.835938 140.902344 337.0625 140.789062 C 337.289062 140.675781 337.628906 140.449219 337.738281 139.773438 C 338.078125 136.609375 334.125 130.507812 329.945312 123.953125 C 328.25 121.351562 326.667969 118.867188 325.421875 116.722656 C 321.695312 110.28125 312.769531 101.691406 309.71875 98.753906 C 310.167969 98.078125 309.265625 96.945312 301.582031 88.359375 C 300.453125 87.117188 299.320312 85.875 298.191406 84.628906 C 297.402344 83.726562 296.609375 82.824219 295.933594 82.03125 C 292.996094 78.640625 291.300781 76.609375 288.023438 74.914062 C 288.136719 74.121094 288.136719 73.105469 287.34375 71.75 C 285.875 69.375 285.535156 67.90625 285.199219 66.550781 C 284.972656 65.421875 284.632812 64.292969 283.730469 62.933594 C 282.597656 61.242188 283.050781 60.789062 284.859375 59.207031 C 285.535156 58.640625 286.328125 57.964844 287.117188 57.058594 C 289.492188 54.460938 288.585938 51.75 287.457031 50.28125 C 288.25 49.488281 289.832031 47.566406 290.734375 43.5 C 291.976562 38.191406 293.332031 26.097656 293.332031 25.875 C 293.332031 25.761719 293.332031 25.535156 293.21875 25.421875 C 293.105469 25.308594 292.996094 25.195312 292.769531 25.195312 L 288.136719 25.195312 L 288.136719 22.597656 C 288.136719 22.371094 287.910156 22.03125 287.683594 22.03125 C 287.570312 22.03125 286.328125 21.804688 284.519531 21.578125 L 284.519531 6.890625 L 285.648438 6.890625 C 287.457031 6.890625 289.039062 5.421875 289.039062 3.5 C 289.039062 1.578125 287.570312 0.109375 285.648438 0.109375 L 89.832031 0.109375 C 88.023438 0.109375 86.441406 1.578125 86.441406 3.5 C 86.441406 5.421875 87.910156 6.890625 89.832031 6.890625 L 92.996094 6.890625 L 92.996094 15.703125 C 91.863281 15.703125 91.074219 15.589844 90.960938 15.589844 C 90.847656 15.589844 90.621094 15.703125 90.507812 15.816406 C 90.394531 15.929688 90.394531 16.15625 90.394531 16.269531 L 90.960938 19.882812 C 86.214844 19.773438 82.484375 19.882812 82.148438 19.882812 C 82.035156 19.882812 81.808594 19.996094 81.695312 20.109375 C 81.582031 20.222656 81.582031 20.335938 81.582031 20.5625 C 81.582031 20.675781 82.484375 27.566406 83.164062 31.070312 C 83.390625 32.652344 83.84375 34.234375 84.292969 36.269531 C 84.859375 38.753906 85.648438 41.804688 86.554688 46.097656 C 87.230469 49.714844 88.25 52.878906 89.039062 55.476562 C 89.945312 58.414062 90.621094 60.789062 90.507812 62.144531 C 90.28125 64.292969 90.394531 71.976562 90.507812 75.589844 C 89.265625 76.042969 88.25 76.609375 87.34375 77.171875 C 80.339844 81.917969 74.6875 89.039062 74.238281 89.601562 C 73.558594 90.28125 53.898438 108.472656 45.988281 114.121094 C 44.292969 115.363281 42.597656 116.382812 40.679688 117.511719 C 33.671875 121.691406 25.875 126.4375 22.148438 139.546875 C 20.453125 145.308594 20.226562 147.457031 20.339844 148.359375 C 20.339844 148.585938 16.046875 169.488281 10.167969 179.320312 C 0.679688 195.25 1.128906 221.128906 3.953125 227.792969 C 4.40625 228.925781 4.972656 229.601562 5.648438 229.828125 C 5.761719 229.828125 5.875 229.828125 5.988281 229.828125 C 6.214844 229.828125 6.441406 229.714844 6.667969 229.601562 C 7.117188 229.261719 7.34375 228.585938 7.457031 227.566406 C 8.472656 227.90625 10.28125 228.472656 12.882812 228.472656 C 15.59375 228.472656 19.097656 227.792969 23.050781 225.648438 C 32.542969 220.335938 34.011719 215.929688 34.238281 212.425781 C 34.351562 211.523438 34.351562 210.054688 34.238281 208.132812 C 34.238281 208.132812 34.238281 208.019531 34.238281 208.019531 C 34.238281 208.019531 34.125 205.648438 37.851562 202.484375 C 38.304688 209.261719 38.871094 215.703125 39.660156 218.753906 C 39.660156 218.867188 39.660156 218.867188 39.773438 218.980469 C 39.886719 219.09375 40.453125 219.882812 42.148438 219.882812 C 42.9375 219.882812 44.066406 219.773438 45.535156 219.207031 C 45.761719 219.09375 45.875 218.980469 45.875 218.753906 C 45.875 218.640625 46.667969 212.878906 47.230469 198.527344 C 49.71875 197.964844 62.035156 194.6875 63.050781 181.917969 L 294.6875 181.917969 C 294.6875 184.855469 295.140625 197.964844 301.46875 198.527344 C 305.875 198.980469 307.910156 199.546875 308.699219 199.882812 C 309.265625 202.144531 309.945312 203.953125 311.636719 204.515625 C 312.65625 204.855469 313.671875 204.742188 314.578125 204.628906 C 316.046875 204.515625 317.175781 204.40625 318.191406 205.535156 C 318.757812 214.800781 319.210938 218.753906 319.210938 218.753906 C 319.210938 218.980469 319.433594 219.09375 319.546875 219.207031 C 321.015625 219.660156 322.035156 219.882812 322.9375 219.882812 C 324.632812 219.882812 325.3125 219.09375 325.3125 218.980469 C 325.3125 218.980469 325.421875 218.867188 325.421875 218.753906 C 325.875 217.058594 326.214844 214.234375 326.554688 210.957031 C 328.8125 215.140625 336.15625 224.515625 356.046875 224.515625 C 356.835938 224.515625 357.738281 224.515625 358.53125 224.515625 C 358.644531 224.515625 358.757812 224.628906 358.871094 224.628906 C 359.433594 224.742188 359.660156 224.40625 359.773438 224.292969 C 360 223.839844 359.660156 223.160156 359.433594 222.710938 Z M 292.203125 26.4375 C 291.863281 29.039062 290.734375 38.753906 289.71875 43.273438 C 288.585938 48.246094 286.441406 49.714844 286.441406 49.714844 C 286.328125 49.828125 286.214844 49.941406 286.214844 50.167969 C 286.214844 50.28125 286.214844 50.507812 286.328125 50.617188 C 286.441406 50.730469 288.925781 53.558594 286.328125 56.382812 C 285.535156 57.171875 284.859375 57.851562 284.179688 58.414062 C 282.371094 59.996094 281.128906 61.128906 282.824219 63.726562 C 283.730469 64.96875 283.84375 65.875 284.179688 67.003906 C 284.519531 68.359375 284.859375 69.941406 286.441406 72.539062 C 286.894531 73.21875 287.003906 73.894531 287.003906 74.574219 C 285.875 74.007812 284.519531 73.558594 282.824219 73.105469 C 282.597656 72.425781 282.261719 71.75 281.808594 71.070312 C 280.679688 69.375 280.453125 61.464844 281.015625 57.171875 C 281.242188 54.800781 282.824219 51.070312 284.066406 47.792969 C 284.972656 45.421875 285.875 43.5 286.101562 42.257812 C 286.328125 41.355469 286.554688 40.449219 286.78125 39.433594 C 287.457031 36.945312 288.25 34.234375 288.25 31.070312 L 288.25 26.664062 L 292.203125 26.664062 Z M 287.003906 30.84375 C 287.003906 33.894531 286.214844 36.609375 285.535156 38.980469 C 285.199219 39.996094 284.972656 41.015625 284.746094 41.917969 C 284.519531 43.046875 283.730469 45.082031 282.824219 47.34375 C 281.46875 50.617188 280 54.460938 279.660156 56.945312 C 279.210938 60.789062 279.210938 69.488281 280.679688 71.636719 C 280.902344 71.976562 281.015625 72.3125 281.242188 72.652344 C 280 72.3125 278.644531 71.976562 277.0625 71.636719 C 276.949219 69.601562 276.835938 66.210938 276.722656 62.597656 C 276.722656 61.351562 276.609375 59.882812 276.496094 58.300781 C 276.15625 52.089844 275.707031 44.292969 276.722656 39.09375 C 277.0625 37.511719 277.289062 36.15625 277.628906 35.027344 C 278.191406 32.539062 278.417969 31.523438 277.851562 30.84375 C 277.402344 30.394531 276.722656 30.394531 276.046875 30.394531 C 270.394531 30.957031 251.300781 32.652344 244.632812 32.3125 C 243.050781 32.199219 240.453125 32.199219 237.289062 32.089844 C 225.648438 31.75 205.988281 31.183594 198.304688 29.601562 C 188.472656 27.566406 177.628906 25.082031 177.515625 25.082031 C 177.402344 25.082031 177.175781 25.082031 177.0625 25.195312 C 176.949219 25.308594 176.835938 25.421875 176.835938 25.535156 C 176.835938 25.535156 176.382812 29.039062 175.933594 33.445312 C 175.480469 28.925781 175.140625 25.761719 175.140625 25.648438 C 175.140625 25.421875 175.027344 25.308594 174.914062 25.195312 C 174.800781 25.082031 174.578125 25.082031 174.464844 25.082031 C 174.464844 25.082031 173.21875 25.535156 171.414062 26.097656 L 171.636719 23.046875 C 171.976562 20.675781 172.429688 18.191406 172.65625 17.058594 C 175.253906 17.964844 185.535156 21.804688 192.65625 25.308594 C 200.566406 29.261719 208.699219 31.070312 221.015625 31.296875 C 230.394531 31.523438 238.078125 30.054688 243.277344 29.148438 C 244.40625 28.925781 245.421875 28.8125 246.328125 28.585938 C 248.472656 28.246094 252.882812 27.117188 257.515625 25.875 C 262.9375 24.515625 269.039062 22.933594 272.089844 22.484375 C 276.949219 21.804688 285.199219 22.824219 287.230469 23.160156 L 287.230469 30.84375 Z M 157.851562 30.957031 C 161.921875 30.394531 171.414062 27.230469 174.125 26.324219 C 174.578125 30.84375 177.0625 54.800781 178.984375 61.128906 C 180 64.292969 180.339844 66.324219 180.453125 67.566406 C 174.914062 67.566406 170.734375 67.457031 169.492188 67.34375 C 166.667969 67.003906 153.785156 67.457031 130.960938 68.472656 C 124.066406 68.8125 106.554688 70.84375 95.367188 74.121094 L 95.367188 57.851562 C 95.367188 52.878906 92.316406 32.765625 91.636719 28.472656 C 94.351562 28.925781 103.503906 30.394531 111.527344 30.84375 C 115.707031 31.070312 119.433594 31.183594 123.050781 31.183594 C 127.683594 31.296875 132.203125 31.410156 137.402344 31.75 C 146.214844 32.425781 154.6875 31.636719 157.851562 30.957031 Z M 102.148438 6.890625 L 102.148438 16.496094 C 100.226562 16.269531 98.304688 16.042969 96.609375 15.929688 L 96.609375 6.890625 Z M 103.277344 6.890625 L 104.632812 6.890625 L 104.632812 16.832031 C 104.179688 16.722656 103.730469 16.722656 103.277344 16.609375 Z M 105.761719 6.890625 L 118.078125 6.890625 L 118.078125 20.902344 C 116.609375 20.335938 115.140625 19.773438 113.785156 19.09375 C 111.636719 18.191406 108.8125 17.511719 105.761719 16.945312 Z M 119.210938 6.890625 L 120.566406 6.890625 L 120.566406 21.691406 C 120.113281 21.578125 119.660156 21.355469 119.210938 21.242188 Z M 121.695312 6.890625 L 124.632812 6.890625 L 124.632812 23.046875 C 123.730469 22.824219 122.710938 22.484375 121.695312 22.144531 Z M 125.648438 6.890625 L 127.003906 6.890625 L 127.003906 23.726562 C 126.554688 23.613281 126.101562 23.5 125.648438 23.386719 Z M 128.136719 6.890625 L 139.546875 6.890625 L 139.546875 24.628906 C 138.191406 24.742188 137.0625 24.855469 136.046875 24.96875 C 134.125 25.195312 131.300781 24.742188 128.136719 23.953125 Z M 140.679688 6.890625 L 142.035156 6.890625 L 142.035156 24.292969 C 141.582031 24.292969 141.128906 24.40625 140.679688 24.40625 Z M 143.164062 6.890625 L 146.101562 6.890625 L 146.101562 23.953125 C 145.085938 24.066406 144.179688 24.179688 143.164062 24.292969 Z M 147.117188 6.890625 L 148.472656 6.890625 L 148.472656 23.613281 C 148.023438 23.613281 147.570312 23.726562 147.117188 23.726562 Z M 149.605469 6.890625 L 161.582031 6.890625 L 161.582031 22.257812 C 160 22.371094 158.304688 22.484375 156.722656 22.710938 C 154.351562 22.933594 151.976562 23.273438 149.605469 23.5 Z M 162.824219 6.890625 L 164.179688 6.890625 L 164.179688 22.144531 C 163.730469 22.144531 163.277344 22.257812 162.824219 22.257812 Z M 165.3125 6.890625 L 168.25 6.890625 L 168.25 21.917969 C 167.457031 21.917969 166.441406 22.03125 165.3125 22.03125 Z M 169.265625 6.890625 L 170.621094 6.890625 L 170.621094 21.464844 C 170.621094 21.464844 170.621094 21.578125 170.621094 21.578125 C 170.621094 21.578125 170.621094 21.691406 170.621094 21.691406 C 170.28125 21.691406 169.832031 21.691406 169.265625 21.691406 Z M 183.277344 6.890625 L 183.277344 14.6875 C 181.242188 14.234375 179.886719 13.894531 179.886719 13.894531 C 179.773438 13.894531 179.546875 13.894531 179.433594 14.007812 C 179.320312 14.121094 179.210938 14.234375 179.210938 14.460938 L 179.210938 18.300781 C 175.367188 16.832031 172.429688 15.816406 172.316406 15.703125 C 172.203125 15.703125 171.976562 15.703125 171.863281 15.703125 C 171.75 15.703125 171.75 15.816406 171.75 15.816406 L 171.75 6.777344 L 183.277344 6.777344 Z M 189.832031 6.890625 L 189.832031 16.042969 C 188.8125 15.816406 187.910156 15.589844 186.894531 15.363281 L 186.894531 6.890625 Z M 204.746094 6.890625 L 204.746094 20.789062 C 202.597656 19.546875 200.113281 18.414062 197.628906 17.851562 C 196.496094 17.625 195.027344 17.285156 193.332031 16.945312 L 193.332031 6.890625 Z M 211.300781 6.890625 L 211.300781 25.082031 C 211.074219 24.855469 210.734375 24.628906 210.394531 24.515625 C 209.832031 24.179688 209.152344 23.613281 208.363281 23.046875 L 208.363281 6.890625 Z M 227.230469 6.890625 L 227.230469 28.019531 C 225.988281 28.019531 224.632812 28.019531 223.390625 28.019531 C 222.371094 28.019531 221.242188 28.019531 220.226562 28.019531 C 217.851562 28.019531 216.15625 27.679688 214.914062 27.230469 L 214.914062 6.890625 Z M 233.671875 6.890625 L 233.671875 27.792969 C 232.65625 27.90625 231.75 27.90625 230.734375 28.019531 L 230.734375 6.890625 Z M 249.152344 6.890625 L 249.152344 26.777344 C 248.925781 26.777344 248.8125 26.890625 248.585938 26.890625 C 247.910156 26.777344 244.40625 26.210938 238.417969 27.230469 C 238.078125 27.34375 237.628906 27.34375 237.289062 27.34375 L 237.289062 6.890625 Z M 255.707031 6.890625 L 255.707031 25.195312 C 254.6875 25.421875 253.785156 25.648438 252.769531 25.875 L 252.769531 6.890625 Z M 271.1875 6.890625 L 271.1875 21.464844 C 268.363281 21.917969 263.953125 23.046875 259.320312 24.179688 L 259.320312 6.890625 Z M 280.902344 6.890625 L 280.902344 21.355469 C 278.871094 21.242188 276.722656 21.128906 274.800781 21.128906 L 274.800781 6.890625 Z M 273.671875 21.242188 C 273.21875 21.242188 272.769531 21.355469 272.316406 21.355469 L 272.316406 6.890625 L 273.671875 6.890625 Z M 258.191406 24.628906 C 257.851562 24.742188 257.515625 24.855469 257.175781 24.855469 C 257.0625 24.855469 256.949219 24.855469 256.835938 24.96875 L 256.835938 6.890625 L 258.191406 6.890625 Z M 251.636719 26.210938 C 251.1875 26.324219 250.734375 26.4375 250.28125 26.550781 L 250.28125 6.890625 L 251.636719 6.890625 Z M 186.101562 16.496094 C 186.214844 16.496094 186.328125 16.609375 186.328125 16.609375 C 190.28125 17.511719 194.914062 18.527344 197.402344 19.09375 C 202.148438 20.109375 207.230469 23.726562 209.71875 25.535156 C 210.054688 25.761719 210.394531 25.984375 210.734375 26.210938 C 212.996094 27.90625 214.914062 29.261719 220.113281 29.261719 C 221.128906 29.261719 222.261719 29.261719 223.277344 29.261719 C 224.40625 29.261719 225.421875 29.261719 226.554688 29.261719 C 230.394531 29.261719 234.351562 29.148438 238.53125 28.472656 C 240.566406 28.132812 242.261719 28.019531 243.730469 27.90625 C 243.503906 27.90625 243.164062 28.019531 242.9375 28.019531 C 237.851562 28.925781 230.167969 30.394531 220.902344 30.167969 C 208.8125 29.941406 200.789062 28.246094 193.105469 24.292969 C 189.265625 22.371094 184.40625 20.335938 180.339844 18.753906 L 180.339844 15.25 C 181.355469 15.363281 183.617188 15.929688 186.101562 16.496094 Z M 236.15625 27.566406 C 235.707031 27.566406 235.253906 27.679688 234.800781 27.679688 L 234.800781 6.890625 L 236.15625 6.890625 Z M 229.71875 28.019531 C 229.265625 28.019531 228.8125 28.019531 228.363281 28.019531 L 228.363281 6.890625 L 229.71875 6.890625 Z M 213.785156 26.777344 C 213.332031 26.550781 212.882812 26.210938 212.429688 25.875 L 212.429688 6.890625 L 213.785156 6.890625 Z M 207.230469 22.257812 C 206.78125 22.03125 206.328125 21.691406 205.875 21.464844 L 205.875 6.890625 L 207.230469 6.890625 Z M 192.316406 16.722656 C 191.863281 16.609375 191.414062 16.496094 190.960938 16.382812 C 190.960938 16.382812 190.960938 16.269531 190.960938 16.269531 L 190.960938 6.890625 L 192.316406 6.890625 Z M 185.761719 15.25 C 185.3125 15.140625 184.859375 15.027344 184.40625 14.914062 L 184.40625 6.890625 L 185.761719 6.890625 Z M 181.582031 67.566406 C 181.46875 65.875 180.902344 63.613281 180.113281 60.789062 C 178.984375 57.285156 177.628906 47.566406 176.722656 39.207031 C 177.0625 33.78125 177.738281 28.019531 177.964844 26.210938 C 180.339844 26.777344 189.605469 28.8125 198.078125 30.617188 C 205.988281 32.3125 225.535156 32.878906 237.289062 33.21875 C 240.453125 33.332031 243.050781 33.332031 244.632812 33.445312 C 251.414062 33.78125 270.507812 31.976562 276.269531 31.523438 C 276.949219 31.410156 277.0625 31.523438 277.0625 31.523438 C 277.289062 31.75 276.949219 33.21875 276.609375 34.800781 C 276.382812 35.929688 276.046875 37.171875 275.707031 38.867188 C 274.6875 44.179688 275.140625 52.089844 275.480469 58.414062 C 275.59375 59.996094 275.707031 61.464844 275.707031 62.710938 C 275.820312 66.210938 275.933594 69.375 276.046875 71.523438 C 275.933594 71.523438 275.820312 71.523438 275.820312 71.410156 C 260.566406 68.019531 232.882812 67.003906 219.097656 67.34375 C 209.265625 67.34375 192.882812 67.566406 181.582031 67.566406 Z M 283.390625 21.578125 C 282.9375 21.578125 282.484375 21.464844 282.035156 21.464844 L 282.035156 6.890625 L 283.390625 6.890625 Z M 87.570312 3.613281 C 87.570312 2.371094 88.585938 1.355469 89.832031 1.355469 L 285.648438 1.355469 C 286.894531 1.355469 287.910156 2.371094 287.910156 3.613281 C 287.910156 4.855469 286.894531 5.875 285.648438 5.875 L 89.832031 5.875 C 88.585938 5.761719 87.570312 4.742188 87.570312 3.613281 Z M 94.125 6.890625 L 95.480469 6.890625 L 95.480469 15.816406 C 95.027344 15.816406 94.578125 15.816406 94.125 15.703125 Z M 91.527344 16.832031 C 94.578125 16.945312 107.230469 17.511719 113.21875 20.222656 C 120.566406 23.5 131.1875 26.550781 136.046875 26.097656 C 140.679688 25.648438 149.265625 24.742188 156.722656 23.953125 C 162.371094 23.273438 168.363281 23.046875 170.28125 22.933594 C 170.167969 24.179688 170.054688 25.421875 170.054688 26.4375 C 165.648438 27.792969 159.097656 29.828125 156.722656 29.941406 C 153.21875 30.054688 142.484375 29.148438 137.175781 28.359375 C 131.863281 27.566406 116.382812 24.292969 109.152344 21.917969 C 105.199219 20.5625 97.851562 20.109375 91.863281 19.996094 Z M 91.527344 62.371094 C 91.75 60.789062 90.960938 58.414062 90.054688 55.25 C 89.265625 52.765625 88.363281 49.601562 87.683594 45.984375 C 86.78125 41.578125 86.101562 38.527344 85.421875 36.042969 C 84.972656 34.121094 84.519531 32.539062 84.292969 30.957031 C 83.84375 28.019531 83.050781 22.933594 82.824219 21.128906 C 86.214844 21.015625 102.597656 20.789062 109.039062 22.933594 C 116.382812 25.421875 131.976562 28.699219 137.289062 29.488281 C 140.453125 29.941406 145.199219 30.394531 149.378906 30.730469 C 145.988281 30.957031 141.921875 30.957031 137.402344 30.730469 C 132.203125 30.394531 127.683594 30.28125 123.050781 30.167969 C 119.433594 30.054688 115.820312 30.054688 111.636719 29.828125 C 102.148438 29.375 91.300781 27.34375 91.1875 27.34375 C 90.960938 27.34375 90.847656 27.34375 90.734375 27.457031 C 90.621094 27.566406 90.507812 27.792969 90.621094 27.90625 C 90.621094 28.132812 94.464844 52.425781 94.464844 57.851562 L 94.464844 74.347656 C 93.445312 74.6875 92.542969 74.914062 91.636719 75.25 C 91.414062 71.523438 91.300781 64.40625 91.527344 62.371094 Z M 87.796875 78.300781 C 94.800781 73.558594 121.242188 70.054688 130.960938 69.601562 C 159.210938 68.246094 167.457031 68.246094 169.265625 68.472656 C 173.105469 68.925781 203.953125 68.699219 218.984375 68.359375 C 232.769531 68.019531 260.226562 69.039062 275.480469 72.425781 C 288.363281 75.25 289.945312 77.058594 294.914062 82.824219 C 295.59375 83.613281 296.382812 84.515625 297.175781 85.421875 C 298.304688 86.664062 299.433594 88.019531 300.566406 89.261719 C 303.277344 92.3125 306.101562 95.476562 307.570312 97.285156 C 306.667969 96.609375 305.421875 95.476562 303.953125 94.121094 C 298.644531 89.375 290.507812 82.144531 282.597656 80.109375 C 273.898438 77.851562 232.429688 76.945312 205.085938 76.269531 C 198.53125 76.15625 192.882812 76.042969 188.699219 75.816406 C 181.921875 75.589844 171.300781 75.363281 159.433594 75.363281 C 141.128906 75.363281 120 75.929688 106.214844 78.191406 C 92.542969 80.449219 81.128906 86.777344 76.269531 89.488281 C 75.933594 89.714844 75.59375 89.828125 75.367188 90.054688 C 76.609375 88.359375 81.695312 82.371094 87.796875 78.300781 Z M 23.164062 139.882812 C 26.78125 127.230469 34.125 122.824219 41.242188 118.527344 C 43.164062 117.398438 44.972656 116.269531 46.667969 115.140625 C 53.445312 110.28125 68.585938 96.382812 73.445312 91.863281 C 73.898438 92.089844 74.464844 91.75 76.835938 90.394531 C 82.035156 87.457031 92.996094 81.351562 106.441406 79.207031 C 128.925781 75.589844 171.414062 76.382812 188.699219 76.832031 C 192.882812 76.945312 198.644531 77.058594 205.085938 77.285156 C 232.429688 77.964844 273.785156 78.867188 282.371094 81.128906 C 290.054688 83.046875 297.964844 90.167969 303.277344 94.914062 C 305.3125 96.722656 306.894531 98.078125 307.910156 98.753906 C 308.472656 99.207031 320.226562 110.054688 324.519531 117.398438 C 325.761719 119.660156 327.457031 122.257812 329.039062 124.742188 C 332.769531 130.507812 336.949219 137.058594 336.722656 139.773438 C 336.722656 139.882812 336.722656 139.882812 336.722656 139.882812 C 336.496094 139.996094 335.933594 139.773438 335.140625 139.433594 C 335.140625 139.433594 335.027344 139.320312 335.027344 139.320312 C 332.996094 138.300781 329.832031 135.929688 327.230469 134.007812 C 321.46875 129.828125 315.027344 125.082031 311.527344 125.082031 C 308.136719 125.082031 303.164062 126.777344 297.964844 128.585938 C 293.21875 130.28125 288.25 131.976562 284.292969 132.425781 C 278.644531 133.105469 265.085938 132.089844 251.976562 131.070312 C 245.875 130.617188 239.433594 130.167969 234.011719 129.828125 C 226.554688 129.375 219.433594 128.359375 212.429688 127.34375 C 203.730469 126.097656 195.367188 124.855469 188.699219 125.421875 C 176.496094 126.324219 138.984375 127.792969 128.023438 127.792969 L 88.472656 127.792969 C 73.332031 127.792969 60.789062 126.210938 54.800781 123.613281 C 49.945312 121.464844 47.910156 122.257812 44.40625 123.5 C 42.824219 124.066406 40.789062 124.855469 37.964844 125.535156 C 30.507812 127.117188 27.796875 133.667969 25.875 138.527344 C 25.535156 139.433594 25.199219 140.222656 24.859375 140.902344 C 23.277344 144.292969 22.035156 146.550781 21.355469 147.457031 C 21.46875 146.550781 21.808594 144.40625 23.164062 139.882812 Z M 5.761719 228.699219 C 5.535156 228.699219 5.199219 228.246094 4.859375 227.34375 C 2.148438 220.789062 1.695312 195.476562 11.074219 179.882812 C 16.609375 170.617188 20.679688 152.089844 21.242188 149.039062 C 21.808594 148.8125 23.050781 147.457031 25.875 141.351562 C 26.214844 140.675781 26.554688 139.773438 26.894531 138.867188 C 28.699219 134.347656 31.300781 128.019531 38.191406 126.550781 C 41.128906 125.875 43.164062 125.195312 44.746094 124.515625 C 48.023438 123.273438 49.832031 122.597656 54.238281 124.515625 C 60.226562 127.230469 72.996094 128.8125 88.363281 128.8125 L 127.796875 128.8125 C 138.871094 128.8125 176.382812 127.457031 188.585938 126.4375 C 195.253906 125.875 203.390625 127.117188 212.089844 128.359375 C 219.097656 129.375 226.214844 130.394531 233.785156 130.84375 C 239.210938 131.183594 245.648438 131.636719 251.75 132.089844 C 264.859375 133.105469 278.53125 134.007812 284.292969 133.445312 C 288.363281 132.992188 293.445312 131.183594 298.191406 129.488281 C 303.277344 127.679688 308.136719 125.984375 311.300781 125.984375 C 314.351562 125.984375 321.015625 130.84375 326.328125 134.6875 C 329.945312 137.285156 332.429688 139.09375 334.238281 140.109375 C 336.949219 143.726562 338.984375 161.804688 340.113281 171.523438 C 340.339844 173.445312 340.566406 175.140625 340.679688 176.269531 C 342.824219 193.332031 355.140625 217.511719 358.417969 223.046875 C 355.367188 221.691406 343.617188 211.75 341.355469 204.855469 C 334.351562 183.726562 327.457031 182.933594 321.242188 182.257812 C 320.113281 182.144531 318.984375 182.03125 317.964844 181.691406 C 311.75 180.109375 310.960938 178.867188 310.167969 177.511719 C 309.492188 176.382812 308.8125 175.140625 305.875 173.78125 C 303.164062 172.539062 296.949219 170.957031 290.167969 172.878906 C 286.214844 174.007812 279.546875 173.78125 273.105469 173.558594 C 268.8125 173.445312 264.746094 173.21875 261.808594 173.558594 C 257.964844 173.894531 250.621094 173.558594 242.148438 173.105469 C 234.800781 172.652344 226.554688 172.199219 218.417969 172.199219 C 211.300781 172.089844 205.3125 171.296875 199.546875 170.507812 C 191.074219 169.375 183.164062 168.246094 173.105469 169.828125 C 156.382812 172.425781 135.933594 173.78125 118.191406 173.558594 C 100.566406 173.332031 64.859375 175.929688 55.820312 179.433594 C 53.671875 180.222656 50.847656 180.5625 47.683594 180.5625 L 47.003906 180.5625 C 47.003906 180.5625 43.050781 180.449219 37.402344 179.882812 C 37.175781 179.882812 37.0625 179.882812 36.835938 179.882812 C 35.027344 179.660156 33.21875 179.546875 31.414062 179.433594 C 27.117188 179.09375 23.164062 179.09375 20.566406 180.109375 C 4.972656 185.984375 5.761719 207.34375 6.214844 220.109375 C 6.328125 223.953125 6.441406 228.359375 5.761719 228.699219 Z M 295.253906 180.675781 L 55.933594 180.675781 C 56.046875 180.675781 56.15625 180.675781 56.15625 180.5625 C 65.085938 177.058594 100.566406 174.574219 118.078125 174.800781 C 135.820312 175.027344 156.382812 173.667969 173.105469 171.070312 C 182.9375 169.601562 190.847656 170.617188 199.210938 171.75 C 204.972656 172.539062 210.960938 173.332031 218.304688 173.445312 C 226.441406 173.558594 234.6875 174.007812 242.035156 174.347656 C 250.507812 174.800781 257.964844 175.25 261.921875 174.800781 C 264.746094 174.574219 268.8125 174.6875 273.105469 174.800781 C 279.660156 175.027344 286.441406 175.25 290.507812 174.121094 C 296.949219 172.3125 303.050781 173.894531 305.421875 174.914062 C 308.136719 176.15625 308.699219 177.058594 309.265625 178.191406 C 309.71875 178.980469 310.167969 179.773438 311.414062 180.5625 L 295.253906 180.5625 Z M 32.882812 212.3125 C 32.65625 215.589844 31.1875 219.546875 22.261719 224.628906 C 14.6875 228.925781 8.8125 226.890625 7.34375 226.324219 C 7.457031 224.855469 7.34375 222.824219 7.230469 220.222656 C 6.78125 207.792969 6.101562 186.890625 20.789062 181.351562 C 23.164062 180.449219 26.667969 180.449219 30.734375 180.675781 C 30.734375 181.691406 30.960938 184.40625 31.636719 188.8125 C 32.65625 194.460938 33.105469 208.925781 32.882812 212.3125 Z M 34.011719 204.96875 C 33.898438 199.320312 33.445312 192.3125 32.882812 188.585938 C 32.203125 184.40625 31.976562 181.804688 31.976562 180.789062 C 33.445312 180.902344 35.027344 181.015625 36.722656 181.242188 C 36.835938 183.5 37.0625 192.3125 37.628906 201.128906 C 35.820312 202.484375 34.6875 203.839844 34.011719 204.96875 Z M 44.519531 218.191406 C 41.695312 219.09375 40.679688 218.527344 40.453125 218.300781 C 38.757812 211.183594 37.851562 185.648438 37.738281 181.242188 C 40.679688 181.464844 43.503906 181.691406 46.328125 181.804688 C 45.875 205.648438 44.746094 216.15625 44.519531 218.191406 Z M 47.003906 197.285156 C 47.117188 192.878906 47.34375 187.792969 47.457031 181.804688 C 47.570312 181.804688 47.683594 181.804688 47.683594 181.804688 L 61.582031 181.804688 C 60.679688 193.558594 49.945312 196.722656 47.003906 197.285156 Z M 295.820312 181.804688 L 305.199219 181.804688 C 305.421875 183.953125 306.667969 192.199219 307.683594 195.703125 C 307.910156 196.609375 308.136719 197.511719 308.363281 198.414062 C 307.230469 198.078125 305.199219 197.625 301.582031 197.285156 C 296.835938 196.945312 295.820312 186.4375 295.820312 181.804688 Z M 314.464844 203.386719 C 313.558594 203.5 312.769531 203.613281 311.976562 203.273438 C 310.507812 202.824219 310.054688 200.789062 309.492188 198.300781 C 309.265625 197.398438 309.039062 196.382812 308.699219 195.363281 C 307.683594 192.089844 306.667969 184.066406 306.328125 181.804688 L 313.445312 181.804688 C 313.558594 181.804688 313.558594 181.804688 313.671875 181.804688 C 314.6875 182.144531 315.820312 182.597656 317.402344 182.933594 C 317.515625 191.636719 317.851562 198.527344 318.078125 203.839844 C 316.835938 203.160156 315.59375 203.273438 314.464844 203.386719 Z M 324.292969 218.300781 C 324.066406 218.527344 323.050781 218.980469 320.226562 218.191406 C 320 216.269531 318.871094 206.097656 318.417969 183.160156 C 319.320312 183.386719 320.226562 183.5 321.128906 183.613281 C 322.9375 183.839844 324.859375 184.066406 326.78125 184.855469 C 326.554688 193.21875 325.648438 212.3125 324.292969 218.300781 Z M 326.667969 208.699219 C 327.34375 200.902344 327.796875 191.070312 328.023438 185.421875 C 331.976562 187.566406 336.15625 192.652344 340.339844 205.421875 C 342.371094 211.523438 351.75 220.222656 356.496094 223.386719 C 332.429688 223.613281 327.117188 209.828125 326.667969 208.699219 Z M 326.667969 208.699219 " fill-opacity="1" fill-rule="nonzero"/></svg>