<svg xmlns="http://www.w3.org/2000/svg" xmlns:xlink="http://www.w3.org/1999/xlink" width="547" zoomAndPan="magnify" viewBox="0 0 410.25 144.75" height="193" preserveAspectRatio="xMidYMid meet" version="1.0"><defs><clipPath id="3611e8b182"><path d="M 0 0.0078125 L 408.753906 0.0078125 L 408.753906 144.492188 L 0 144.492188 Z M 0 0.0078125 " clip-rule="nonzero"/></clipPath></defs><g clip-path="url(#3611e8b182)"><path fill="#876357" d="M 407.273438 77.636719 C 406.90625 77.792969 406.839844 78.03125 406.808594 78.40625 C 406.539062 81.445312 405.664062 84.320312 404.265625 87.011719 C 403.089844 89.28125 401.710938 91.402344 399.855469 93.226562 C 397.59375 95.445312 395.335938 97.65625 392.886719 99.679688 C 392.371094 100.097656 391.59375 100.628906 392.765625 101.277344 C 393.140625 101.488281 393.1875 102.023438 392.925781 102.257812 C 392.566406 102.585938 391.953125 102.511719 391.695312 102.121094 C 390.949219 101.007812 390.363281 101.605469 389.75 102.210938 C 389.429688 102.519531 389.144531 102.792969 388.679688 102.972656 C 387.550781 103.398438 387.296875 104.363281 387.871094 105.550781 C 387.0625 105.851562 386.421875 105.640625 385.992188 104.960938 C 384.273438 106.222656 382.566406 107.417969 380.621094 108.105469 C 377.640625 109.144531 375.191406 111.152344 372.289062 112.363281 C 369.527344 113.515625 366.832031 114.851562 364.101562 116.089844 C 359.40625 118.21875 354.550781 119.9375 349.667969 121.550781 C 345.375 122.964844 341.046875 124.292969 336.644531 125.355469 C 334.167969 125.953125 331.601562 126.289062 329.242188 127.132812 C 326.375 128.148438 323.375 128.417969 320.472656 129.15625 C 318.070312 129.769531 315.507812 130.03125 313.105469 130.65625 C 310.914062 131.226562 308.660156 131.269531 306.488281 131.996094 C 304.527344 132.652344 302.359375 132.726562 300.292969 133.0625 C 298.023438 133.4375 295.734375 133.800781 293.464844 134.144531 C 291.289062 134.476562 289.132812 134.96875 286.910156 135.148438 C 284.96875 135.304688 283.085938 136.214844 281.117188 136.425781 C 277.746094 136.796875 274.445312 137.597656 271.054688 137.859375 C 268.714844 138.039062 266.394531 138.441406 264.082031 138.816406 C 261.804688 139.195312 259.507812 139.367188 257.222656 139.585938 C 253.886719 139.90625 250.5625 140.300781 247.222656 140.546875 C 245.351562 140.683594 243.480469 140.75 241.601562 140.882812 C 240.890625 140.929688 240.226562 141.167969 239.417969 141.152344 C 240.128906 142.25 239.441406 143.3125 239.539062 144.359375 C 239.378906 144.359375 239.207031 144.359375 239.042969 144.359375 C 238.714844 143.691406 238.21875 143.050781 238.109375 142.347656 C 237.929688 141.175781 237.140625 141.035156 236.3125 141.117188 C 232.621094 141.488281 228.917969 141.496094 225.226562 141.644531 C 222.164062 141.765625 219.105469 141.609375 216.050781 141.625 C 215.273438 141.632812 214.644531 141.667969 214.695312 142.722656 C 214.710938 143.085938 214.589844 143.566406 214.023438 143.589844 C 213.421875 143.617188 213.304688 143.085938 213.304688 142.75 C 213.296875 141.714844 212.734375 141.816406 211.949219 141.726562 C 209.328125 141.429688 206.679688 141.453125 204.074219 141.445312 C 201.109375 141.4375 198.109375 141.460938 195.136719 141.765625 C 193.558594 141.929688 191.949219 141.609375 190.347656 141.59375 C 187.480469 141.570312 184.605469 141.652344 181.738281 141.75 C 180.992188 141.773438 180.175781 141.652344 179.398438 141.570312 C 176.890625 141.28125 174.375 141.414062 171.867188 141.308594 C 166.71875 141.078125 161.589844 140.667969 156.464844 140.144531 C 153.132812 139.800781 149.773438 139.628906 146.441406 139.292969 C 144.023438 139.046875 141.613281 138.671875 139.203125 138.34375 C 136.664062 138 134.121094 137.710938 131.597656 137.285156 C 127.894531 136.65625 124.152344 136.28125 120.507812 135.28125 C 118.628906 134.765625 116.636719 134.660156 114.691406 134.332031 C 111.6875 133.816406 108.65625 133.363281 105.632812 132.9375 C 102.175781 132.449219 98.753906 131.703125 95.328125 131.015625 C 92.886719 130.523438 90.46875 129.941406 88.035156 129.417969 C 84.535156 128.671875 81.03125 127.992188 77.550781 127.199219 C 75.027344 126.617188 72.542969 125.855469 70.027344 125.257812 C 68.03125 124.785156 66.03125 124.367188 64.0625 123.753906 C 63.128906 123.464844 62.191406 123.136719 61.261719 122.851562 C 57.851562 121.796875 54.519531 120.484375 51.152344 119.324219 C 47.820312 118.175781 44.625 116.710938 41.355469 115.433594 C 40.605469 115.136719 40.097656 115.253906 39.550781 115.726562 C 39.117188 116.105469 38.726562 116.585938 37.957031 116.375 C 38.074219 115.867188 38.335938 115.507812 38.742188 115.203125 C 39.355469 114.746094 39.175781 114.441406 38.539062 114.1875 C 37.933594 113.953125 37.304688 113.722656 36.773438 113.363281 C 35.867188 112.738281 35.066406 113.246094 34.226562 113.453125 C 33.890625 113.535156 33.496094 113.933594 33.21875 113.515625 C 32.964844 113.140625 33.382812 112.847656 33.613281 112.550781 C 33.710938 112.421875 33.792969 112.273438 33.929688 112.050781 C 31.707031 111.167969 29.925781 109.503906 27.738281 108.734375 C 23.839844 107.359375 20.644531 104.878906 17.417969 102.488281 C 14.886719 100.605469 12.476562 98.523438 10.171875 96.332031 C 7.875 94.152344 5.5625 92 3.9375 89.273438 C 2.058594 86.128906 0.433594 82.894531 0.210938 79.078125 C 0.0820312 77.792969 0.128906 76.476562 0.0898438 75.179688 C 0.0234375 73.28125 0.582031 71.367188 0.839844 69.457031 C 1.003906 68.304688 1.414062 67.230469 1.878906 66.183594 C 2.214844 65.429688 2.386719 64.792969 1.234375 64.617188 C 0.90625 64.570312 0.464844 64.308594 0.5625 63.847656 C 0.644531 63.472656 1.078125 63.332031 1.378906 63.457031 C 3.046875 64.128906 3.464844 62.636719 3.921875 61.777344 C 6.09375 57.714844 8.832031 54.058594 12.003906 50.765625 C 13.800781 48.898438 15.5625 46.972656 17.582031 45.289062 C 18.972656 44.125 20.320312 42.816406 21.625 41.496094 C 22.695312 40.421875 23.980469 39.515625 25.230469 38.648438 C 27.402344 37.148438 29.46875 35.503906 31.75 34.144531 C 34.511719 32.488281 37.183594 30.664062 40.066406 29.246094 C 42.371094 28.117188 44.414062 26.421875 47.050781 26.019531 C 46.945312 25.480469 46.519531 25.433594 46.265625 25.203125 C 46.0625 25.015625 45.761719 24.824219 46.015625 24.472656 C 46.203125 24.210938 46.488281 24.054688 46.773438 24.226562 C 49.535156 25.914062 51.585938 23.695312 53.90625 22.957031 C 54.101562 22.902344 54.144531 22.8125 54.160156 22.613281 C 54.226562 21.550781 54.265625 21.5 55.207031 21.960938 C 55.746094 22.222656 56.226562 22.246094 56.75 22.007812 C 60.980469 20.078125 65.46875 18.882812 69.886719 17.496094 C 73.71875 16.292969 77.625 15.335938 81.503906 14.304688 C 83.980469 13.648438 86.515625 13.011719 89.078125 12.625 C 91.964844 12.191406 94.832031 11.59375 97.691406 11.0625 C 101.996094 10.25 106.382812 9.988281 110.648438 9.070312 C 112.578125 8.65625 114.511719 8.203125 116.449219 7.894531 C 119.929688 7.320312 123.402344 6.699219 126.890625 6.171875 C 129.539062 5.78125 132.203125 5.378906 134.847656 4.921875 C 137.480469 4.46875 140.144531 4.167969 142.796875 3.863281 C 147.339844 3.339844 151.898438 2.957031 156.449219 2.53125 C 160.003906 2.203125 163.566406 1.980469 167.121094 1.644531 C 168.648438 1.507812 170.191406 1.472656 171.71875 1.34375 C 174.523438 1.113281 177.316406 0.648438 180.109375 0.664062 C 182.511719 0.679688 184.851562 0.164062 187.261719 0.203125 C 190.332031 0.253906 193.421875 0.113281 196.5 0.0976562 C 202.578125 0.0585938 208.648438 0.0390625 214.726562 0.121094 C 218.585938 0.171875 222.457031 0.246094 226.296875 0.636719 C 229.988281 1.015625 233.699219 1.210938 237.398438 1.515625 C 240.457031 1.761719 243.535156 1.882812 246.589844 2.152344 C 250.480469 2.496094 254.371094 2.914062 258.257812 3.257812 C 262.222656 3.609375 266.132812 4.296875 270.097656 4.625 C 270.996094 4.699219 271.871094 4.953125 272.761719 5.109375 C 273.570312 5.238281 274.148438 4.9375 274.851562 4.445312 C 275.515625 3.988281 275.234375 5.847656 276.371094 5.625 C 276.933594 5.511719 277.597656 5.542969 278.21875 5.773438 C 278.839844 6.011719 278.839844 5.257812 279.164062 4.988281 C 279.5 4.699219 279.769531 3.988281 280.171875 4.207031 C 280.652344 4.480469 280.441406 5.140625 280.253906 5.648438 C 280.179688 5.839844 280.128906 6.035156 280.097656 6.148438 C 284.109375 7.1875 288.203125 7.410156 292.207031 8.292969 C 296.578125 9.261719 301.054688 9.761719 305.480469 10.457031 C 310.914062 11.308594 316.382812 12.09375 321.707031 13.574219 C 323.511719 14.082031 325.417969 14.238281 327.238281 14.699219 C 328.308594 14.96875 329.339844 15.394531 330.410156 15.703125 C 332.066406 16.179688 333.757812 16.554688 335.402344 17.03125 C 337.363281 17.605469 339.363281 18.128906 341.300781 18.824219 C 344.25 19.878906 347.238281 20.820312 350.15625 21.960938 C 354.796875 23.777344 359.535156 25.382812 363.9375 27.742188 C 366.503906 29.117188 369.167969 30.335938 371.578125 32 C 371.953125 32.253906 372.214844 32.234375 372.589844 32.023438 C 373.300781 31.621094 374.101562 31.457031 374.929688 31.335938 C 374.910156 31.492188 374.9375 31.589844 374.894531 31.644531 C 374.527344 32.152344 373.839844 32.652344 373.839844 33.152344 C 373.839844 33.765625 374.78125 33.832031 375.289062 34.175781 C 379.203125 36.820312 382.976562 39.636719 386.539062 42.742188 C 388.507812 44.453125 390.34375 46.320312 392.214844 48.144531 C 393.492188 49.390625 394.765625 50.640625 395.984375 51.945312 C 396.503906 52.507812 396.988281 52.296875 397.558594 52.15625 C 397.925781 52.066406 398.53125 51.902344 398.703125 52.28125 C 398.90625 52.738281 398.484375 53.15625 398.023438 53.304688 C 397.355469 53.523438 397.386719 53.777344 397.804688 54.261719 C 400.035156 56.882812 401.972656 59.738281 403.523438 62.792969 C 404.824219 65.347656 406.023438 68.007812 406.089844 71.015625 C 406.128906 72.742188 407.046875 74.355469 406.792969 76.113281 C 407.4375 76.285156 408.367188 75.835938 408.566406 76.613281 C 408.769531 77.457031 407.796875 77.410156 407.273438 77.636719 Z M 407.273438 77.636719 " fill-opacity="1" fill-rule="nonzero"/></g><path fill="#a28b7d" d="M 1.519531 78.941406 C 1.519531 76.722656 1.355469 74.484375 1.570312 72.28125 C 1.757812 70.261719 2.53125 68.328125 3.277344 66.429688 C 4.664062 62.882812 6.789062 59.761719 9.050781 56.726562 C 12.582031 51.984375 16.683594 47.800781 21.226562 44.042969 C 25.097656 40.832031 28.964844 37.582031 33.300781 34.996094 C 36.210938 33.257812 39.136719 31.5625 42.117188 29.960938 C 45.230469 28.273438 48.515625 26.988281 51.707031 25.511719 C 52.769531 25.023438 53.964844 24.703125 55.042969 24.246094 C 57.402344 23.230469 59.839844 22.425781 62.257812 21.589844 C 65.6875 20.394531 69.175781 19.339844 72.691406 18.375 C 75.328125 17.644531 77.976562 16.933594 80.625 16.203125 C 84.015625 15.277344 87.460938 14.597656 90.902344 13.878906 C 93.851562 13.265625 96.800781 12.660156 99.757812 12.09375 C 101.449219 11.765625 103.171875 11.496094 104.863281 11.078125 C 106.578125 10.652344 108.394531 10.652344 110.15625 10.390625 C 112.28125 10.070312 114.390625 9.554688 116.523438 9.34375 C 119.089844 9.082031 121.5625 8.382812 124.128906 8.121094 C 125.933594 7.933594 127.699219 7.449219 129.53125 7.289062 C 132.488281 7.015625 135.386719 6.363281 138.351562 6.074219 C 140.984375 5.820312 143.605469 5.363281 146.246094 5.078125 C 148.371094 4.847656 150.496094 4.578125 152.617188 4.378906 C 156.5 4.019531 160.386719 3.570312 164.277344 3.421875 C 167.1875 3.308594 170.070312 2.929688 172.988281 2.824219 C 177.160156 2.667969 181.3125 2.03125 185.488281 1.949219 C 188.296875 1.898438 191.089844 1.613281 193.917969 1.644531 C 199.210938 1.710938 204.515625 1.734375 209.808594 1.570312 C 212.300781 1.488281 214.761719 1.660156 217.234375 1.761719 C 219.066406 1.835938 220.894531 2.046875 222.726562 2.097656 C 227.285156 2.210938 231.828125 2.6875 236.378906 2.929688 C 240.5625 3.160156 244.738281 3.539062 248.910156 3.890625 C 254.230469 4.347656 259.542969 4.847656 264.835938 5.601562 C 267.441406 5.96875 270.082031 6.074219 272.664062 6.617188 C 273.046875 6.699219 273.382812 6.617188 273.257812 7.253906 C 273.144531 7.820312 273.691406 8.082031 274.042969 7.753906 C 275.335938 6.566406 276.738281 7.230469 278.078125 7.425781 C 282.328125 8.039062 286.578125 8.703125 290.816406 9.40625 C 293.511719 9.859375 296.167969 10.59375 298.90625 10.726562 C 301.070312 10.832031 303.167969 11.324219 305.261719 11.726562 C 306.992188 12.050781 308.757812 12.273438 310.492188 12.722656 C 313.210938 13.4375 315.988281 13.953125 318.765625 14.394531 C 320.203125 14.625 321.550781 15.148438 322.984375 15.417969 C 327.148438 16.203125 331.195312 17.515625 335.292969 18.570312 C 337.46875 19.136719 339.625 19.96875 341.78125 20.683594 C 343.316406 21.191406 344.828125 21.773438 346.375 22.246094 C 349.871094 23.335938 353.1875 24.867188 356.578125 26.203125 C 359.738281 27.445312 362.796875 28.917969 365.792969 30.492188 C 368.644531 31.988281 371.367188 33.742188 374.121094 35.421875 C 377.640625 37.558594 380.867188 40.089844 384.03125 42.667969 C 386.613281 44.773438 389.339844 46.777344 391.40625 49.496094 C 392.117188 50.429688 393.074219 51.214844 393.90625 52.082031 C 395.933594 54.203125 397.617188 56.578125 399.375 58.902344 C 402.316406 62.800781 404.203125 67.214844 405.207031 71.957031 C 405.515625 73.429688 405.417969 75.082031 405.238281 76.605469 C 405.066406 78.097656 405.230469 79.601562 404.839844 81.078125 C 404.4375 82.609375 403.917969 84.082031 403.238281 85.507812 C 402.429688 87.203125 401.605469 88.90625 400.386719 90.320312 C 397.945312 93.164062 395.164062 95.675781 392.324219 98.097656 C 390.394531 99.738281 388.5625 101.515625 386.398438 102.832031 C 383.582031 104.550781 381 106.605469 377.933594 107.992188 C 375.386719 109.144531 372.820312 110.332031 370.328125 111.632812 C 368.546875 112.566406 366.570312 113.125 364.75 113.992188 C 361.710938 115.441406 358.570312 116.621094 355.433594 117.824219 C 351.601562 119.289062 347.65625 120.445312 343.757812 121.738281 C 339.984375 122.992188 336.09375 123.859375 332.28125 124.949219 C 329.296875 125.800781 326.226562 126.332031 323.195312 126.996094 C 319.714844 127.757812 316.242188 128.558594 312.710938 129.058594 C 311.371094 129.246094 310.058594 129.664062 308.757812 130.039062 C 307 130.554688 305.171875 130.648438 303.398438 131.097656 C 301.550781 131.570312 299.640625 131.75 297.753906 132.039062 C 293.945312 132.628906 290.121094 133.160156 286.324219 133.800781 C 282.777344 134.398438 279.265625 135.273438 275.703125 135.699219 C 272.171875 136.117188 268.660156 136.707031 265.136719 137.15625 C 261.125 137.664062 257.066406 137.703125 253.085938 138.515625 C 252.03125 138.726562 250.921875 138.710938 249.859375 138.753906 C 245.832031 138.917969 241.835938 139.613281 237.792969 139.570312 C 235.332031 139.546875 232.890625 139.726562 230.457031 140.054688 C 229.476562 140.183594 228.496094 139.996094 227.496094 140.023438 C 222.988281 140.128906 218.46875 140.292969 213.960938 140.257812 C 208.976562 140.226562 203.992188 140.023438 199 140.078125 C 196.738281 140.105469 194.464844 140.285156 192.203125 140.292969 C 190.226562 140.300781 188.242188 140.136719 186.261719 140.09375 C 183.851562 140.054688 181.449219 140.054688 179.039062 140.054688 C 175.234375 140.054688 171.449219 139.40625 167.652344 139.433594 C 165.445312 139.449219 163.273438 139.1875 161.097656 139.007812 C 157.960938 138.746094 154.816406 138.597656 151.6875 138.148438 C 149.5625 137.84375 147.382812 137.859375 145.25 137.53125 C 143.199219 137.222656 141.132812 137.125 139.082031 136.769531 C 138.042969 136.597656 136.988281 136.476562 135.933594 136.3125 C 132.339844 135.753906 128.6875 135.476562 125.140625 134.707031 C 122.339844 134.09375 119.53125 133.660156 116.710938 133.191406 C 113.109375 132.59375 109.503906 132.039062 105.894531 131.53125 C 103.523438 131.195312 101.203125 130.589844 98.859375 130.148438 C 94.308594 129.296875 89.765625 128.410156 85.246094 127.414062 C 81.210938 126.519531 77.152344 125.644531 73.164062 124.480469 C 71.113281 123.882812 69.046875 123.316406 66.9375 122.917969 C 65.441406 122.628906 63.988281 122.039062 62.542969 121.566406 C 58.039062 120.085938 53.488281 118.757812 49.09375 116.972656 C 47.019531 116.128906 44.820312 115.464844 42.867188 114.484375 C 40.867188 113.476562 38.613281 112.894531 36.824219 111.378906 C 36.285156 110.929688 35.246094 110.960938 34.453125 110.628906 C 32.886719 109.957031 31.332031 109.277344 29.855469 108.40625 C 27.851562 107.230469 25.582031 106.542969 23.695312 105.164062 C 19.355469 102.003906 14.917969 98.976562 11.160156 95.085938 C 9.707031 93.578125 8.121094 92.1875 6.632812 90.699219 C 6.257812 90.328125 5.996094 89.828125 5.734375 89.355469 C 4.25 86.710938 2.640625 84.121094 1.878906 81.152344 C 1.691406 80.472656 1.765625 79.691406 1.714844 78.941406 C 1.648438 78.941406 1.585938 78.941406 1.519531 78.941406 Z M 206.386719 14.933594 C 206.140625 14.84375 205.902344 14.761719 205.660156 14.671875 C 204.417969 14.722656 203.175781 14.410156 201.917969 14.648438 C 201.371094 14.753906 200.78125 14.699219 200.210938 14.492188 C 199.695312 14.3125 199.148438 14.378906 198.65625 14.6875 C 198.558594 13.960938 198.46875 13.230469 198.355469 12.503906 C 198.3125 12.25 198.191406 12.003906 197.898438 12.019531 C 197.601562 12.035156 197.503906 12.324219 197.464844 12.550781 C 197.308594 13.3125 197.667969 13.992188 197.863281 14.6875 C 196.050781 15.023438 194.179688 14.542969 192.382812 15.15625 C 191.722656 15.386719 190.960938 15.722656 190.339844 15.582031 C 187.765625 14.992188 185.226562 15.738281 182.691406 15.828125 C 178.851562 15.957031 175.003906 16.480469 171.15625 16.859375 C 169.75 17 168.386719 16.664062 166.988281 16.875 C 164.964844 17.1875 162.914062 17.300781 160.878906 17.539062 C 160.566406 17.570312 160.332031 17.613281 160.078125 17.398438 C 159.710938 17.089844 159.324219 17.234375 158.902344 17.351562 C 157.585938 17.71875 156.277344 18.113281 154.855469 17.964844 C 154.082031 17.882812 153.28125 18.054688 152.503906 18.085938 C 151.441406 18.128906 150.476562 18.59375 149.382812 18.519531 C 148.605469 18.472656 147.75 18.675781 146.941406 18.808594 C 146.433594 18.890625 146.179688 19.585938 145.445312 19.4375 C 144.269531 19.207031 143.125 19.519531 141.941406 19.757812 C 140.363281 20.070312 138.84375 20.601562 137.21875 20.738281 C 135.332031 20.894531 133.304688 20.976562 131.621094 21.730469 C 129.472656 22.6875 127.175781 22.730469 125.003906 23.441406 C 122.871094 24.144531 120.632812 24.570312 118.410156 24.925781 C 117.503906 25.070312 117.078125 26.003906 116.195312 25.957031 C 115.167969 25.898438 114.226562 26.175781 113.277344 26.496094 C 111.066406 27.234375 108.761719 27.59375 106.546875 28.4375 C 104.429688 29.246094 102.289062 30.132812 100.050781 30.65625 C 97.917969 31.148438 95.992188 32.253906 93.898438 32.921875 C 92.511719 33.367188 90.820312 33.71875 89.765625 35.027344 C 89.542969 35.304688 89.257812 35.304688 88.972656 35.28125 C 87.917969 35.207031 87.0625 35.757812 86.121094 36.09375 C 84.855469 36.542969 83.832031 37.417969 82.617188 37.976562 C 81.554688 38.46875 80.28125 38.664062 79.4375 39.398438 C 77.527344 41.0625 75.035156 41.578125 72.984375 43.078125 C 71.242188 44.355469 69.429688 45.785156 67.332031 46.636719 C 66.546875 46.957031 65.851562 47.539062 65.15625 48.046875 C 63.589844 49.183594 61.988281 50.289062 60.5 51.527344 C 59.070312 52.707031 57.410156 53.671875 56.300781 55.179688 C 54.578125 57.527344 52.625 59.746094 51.953125 62.769531 C 51.398438 65.289062 50.238281 67.597656 50.777344 70.398438 C 51.1875 72.511719 51.988281 74.320312 53.1875 75.953125 C 54.992188 78.40625 57.191406 80.503906 59.59375 82.417969 C 60.679688 83.289062 61.578125 84.515625 62.746094 85.269531 C 65.394531 86.988281 67.878906 88.96875 70.730469 90.363281 C 70.476562 90.484375 70.179688 90.566406 69.984375 90.753906 C 69.652344 91.066406 68.996094 91.351562 69.347656 91.910156 C 69.609375 92.320312 70.164062 92.097656 70.589844 91.917969 C 71.113281 91.695312 71.578125 91.320312 72.183594 91.320312 C 72.535156 92.140625 73.457031 91.941406 74.070312 92.375 C 75.394531 93.316406 76.613281 94.449219 78.222656 95.027344 C 80.351562 95.789062 82.402344 96.78125 84.472656 97.714844 C 85.738281 98.28125 86.9375 99.328125 88.222656 99.425781 C 90.183594 99.574219 91.628906 100.816406 93.441406 101.25 C 95.867188 101.832031 98.058594 103.199219 100.542969 103.714844 C 101.847656 103.988281 103.222656 104.042969 104.382812 104.828125 C 105.183594 105.378906 106.121094 105.507812 107.039062 105.773438 C 107.960938 106.035156 108.941406 105.960938 109.839844 106.386719 C 112.117188 107.484375 114.488281 108.328125 117.054688 108.457031 C 117.289062 108.464844 117.519531 108.597656 117.738281 108.695312 C 120.085938 109.75 122.632812 110.128906 125.109375 110.628906 C 127.019531 111.011719 128.890625 111.609375 130.828125 111.90625 C 131.464844 112.003906 132.019531 111.660156 132.609375 111.921875 C 134.421875 112.714844 136.367188 113.042969 138.304688 113.410156 C 140.535156 113.835938 142.765625 114.3125 144.980469 114.8125 C 146.90625 115.246094 148.957031 115.433594 150.960938 115.71875 C 151.597656 115.808594 152.273438 115.382812 152.894531 115.808594 C 153.523438 116.234375 154.21875 116.269531 154.9375 116.234375 C 155.730469 116.195312 156.507812 116.335938 157.292969 116.472656 C 159.367188 116.832031 161.417969 117.421875 163.558594 117.25 C 164.015625 117.21875 164.464844 117.242188 164.90625 117.421875 C 167.128906 118.324219 169.53125 117.667969 171.800781 118.21875 C 173.125 118.535156 174.480469 117.800781 175.863281 118.535156 C 176.476562 118.863281 177.429688 119.085938 178.183594 119.003906 C 179.660156 118.839844 181.074219 119.207031 182.519531 119.214844 C 184.523438 119.234375 186.53125 119.453125 188.519531 119.667969 C 190.054688 119.832031 191.539062 119.503906 193.078125 119.675781 C 194.523438 119.839844 196.09375 120.925781 197.578125 119.667969 C 197.667969 119.585938 198.035156 119.683594 198.160156 119.8125 C 198.917969 120.625 199.949219 120.371094 200.8125 120.371094 C 204.125 120.371094 207.421875 120.230469 210.734375 120.085938 C 213.429688 119.96875 216.101562 119.453125 218.8125 119.519531 C 219.851562 119.542969 220.878906 119.386719 221.886719 119.28125 C 223.601562 119.09375 225.339844 119.378906 227.007812 118.96875 C 229.042969 118.472656 231.140625 118.554688 233.199219 118.183594 C 235.242188 117.816406 237.515625 118.257812 239.640625 117.667969 C 240.097656 117.539062 240.347656 118.152344 240.800781 117.855469 C 242.628906 116.652344 244.792969 117.285156 246.78125 116.851562 C 248.953125 116.375 251.289062 116.546875 253.480469 115.933594 C 254.746094 115.582031 256.078125 116.023438 257.292969 115.464844 C 257.515625 116.136719 257.71875 116.808594 257.957031 117.472656 C 258.101562 117.875 258.414062 118.136719 258.820312 117.929688 C 259.164062 117.757812 259.351562 117.40625 259.183594 116.980469 C 258.976562 116.480469 258.773438 115.980469 258.570312 115.484375 C 260.082031 114.695312 261.8125 114.664062 263.40625 114.335938 C 266.386719 113.722656 269.394531 113.164062 272.359375 112.492188 C 274.632812 111.984375 276.960938 111.558594 279.214844 111.152344 C 281.542969 110.726562 283.660156 109.523438 286.09375 109.554688 C 287.523438 109.570312 288.78125 108.644531 290.21875 108.390625 C 292.140625 108.046875 294.132812 107.746094 295.890625 106.878906 C 297.019531 106.320312 298.242188 106.296875 299.378906 105.828125 C 301.242188 105.058594 303.179688 104.347656 305.148438 103.976562 C 307.089844 103.609375 308.765625 102.570312 310.703125 102.195312 C 311.773438 101.980469 312.859375 101.300781 313.953125 101.015625 C 315.726562 100.539062 317.3125 99.628906 319.070312 99.089844 C 322.710938 97.96875 326.136719 96.144531 329.542969 94.359375 C 331.472656 93.980469 332.566406 92.195312 334.394531 91.558594 C 335.746094 91.089844 336.886719 90 338.105469 89.167969 C 340.402344 87.59375 343 86.480469 344.976562 84.417969 C 345.90625 83.441406 346.816406 82.402344 348.039062 81.722656 C 349.503906 80.914062 350.3125 79.324219 351.78125 78.488281 C 352.574219 78.039062 352.542969 77.023438 353.246094 76.386719 C 355.441406 74.386719 356.195312 71.660156 356.144531 68.777344 C 356.105469 66.828125 355.539062 64.914062 354.9375 63.046875 C 354.234375 60.886719 353.757812 58.601562 351.628906 57.234375 C 351.285156 57.011719 351.046875 56.503906 350.925781 56.078125 C 350.808594 55.652344 350.574219 55.390625 350.3125 55.054688 C 348.957031 53.304688 347.085938 52.191406 345.386719 50.855469 C 344.316406 50.019531 343.359375 49.0625 342.15625 48.367188 C 340.230469 47.246094 338.308594 46.105469 336.519531 44.789062 C 334.0625 42.96875 331.40625 41.539062 328.710938 40.160156 C 326.375 38.972656 323.929688 37.984375 321.667969 36.671875 C 320.042969 35.742188 318.171875 35.578125 316.585938 34.683594 C 314.65625 33.601562 312.597656 32.867188 310.570312 32.03125 C 308.339844 31.113281 305.921875 30.710938 303.765625 29.542969 C 303.007812 29.132812 302.042969 29.089844 301.183594 28.773438 C 299.492188 28.140625 297.746094 27.4375 296.046875 27.144531 C 293.847656 26.757812 291.804688 25.980469 289.671875 25.472656 C 289.949219 25.152344 290.570312 24.84375 290.277344 24.417969 C 289.933594 23.925781 289.386719 24.382812 288.96875 24.589844 C 288.609375 24.769531 288.292969 25.023438 287.949219 25.242188 C 287.65625 24.816406 287.125 25.128906 286.804688 24.882812 C 285.261719 23.71875 283.285156 24.074219 281.617188 23.328125 C 281.421875 23.238281 281.175781 23.171875 281.035156 23.351562 C 280.5625 23.941406 280.21875 23.449219 279.761719 23.3125 C 278.121094 22.804688 276.59375 22.027344 274.886719 21.671875 C 272.988281 21.28125 271.035156 21.132812 269.183594 20.625 C 268.167969 20.347656 267.132812 20.304688 266.109375 20.027344 C 264.640625 19.632812 263.070312 19.496094 261.535156 19.28125 C 259.476562 19.003906 257.449219 18.527344 255.351562 18.367188 C 254.207031 18.273438 253.019531 18.21875 251.886719 17.996094 C 250.308594 17.695312 248.699219 17.503906 247.121094 17.53125 C 245.996094 17.546875 244.746094 17.597656 243.738281 17.414062 C 241.691406 17.039062 239.679688 17.054688 237.636719 16.941406 C 236.410156 16.875 235.144531 17 234 16.800781 C 232.105469 16.472656 230.195312 16.652344 228.332031 16.285156 C 226.3125 15.882812 224.304688 15.703125 222.253906 15.917969 C 221.453125 16 220.734375 15.523438 219.882812 15.53125 C 218.136719 15.546875 216.371094 15.402344 214.636719 15.171875 C 213.542969 15.023438 212.480469 14.640625 211.371094 15.042969 C 210.976562 15.179688 210.609375 15 210.210938 14.902344 C 208.953125 14.605469 207.652344 14.230469 206.386719 14.933594 Z M 65.980469 28.773438 C 66.390625 28.707031 66.734375 28.855469 66.890625 28.503906 C 67.027344 28.175781 66.808594 27.929688 66.578125 27.757812 C 65.910156 27.234375 65.125 26.945312 64.316406 26.773438 C 63.792969 26.660156 63.410156 27.003906 63.269531 27.46875 C 63.105469 28.042969 63.671875 28.003906 63.972656 28.117188 C 64.675781 28.371094 65.394531 28.574219 65.980469 28.773438 Z M 344.78125 37.460938 C 344.519531 37.214844 344.144531 36.902344 343.757812 37.082031 C 342.984375 37.433594 342.109375 37.625 341.496094 38.277344 C 341.308594 38.484375 341.039062 38.6875 341.257812 39.023438 C 341.445312 39.300781 341.726562 39.328125 342.027344 39.21875 C 342.84375 38.941406 343.675781 38.695312 344.363281 38.148438 C 344.550781 37.992188 344.765625 37.84375 344.78125 37.460938 Z M 106.847656 121.746094 C 106.824219 121.441406 106.882812 121.171875 106.570312 121.066406 C 106.351562 120.992188 106.179688 121.097656 106.007812 121.230469 C 105.542969 121.597656 105.273438 122.113281 105.019531 122.640625 C 104.824219 123.054688 104.144531 123.523438 104.570312 123.867188 C 105.042969 124.261719 105.65625 123.671875 106.066406 123.335938 C 106.539062 122.933594 106.742188 122.304688 106.847656 121.746094 Z M 365.882812 52.148438 C 366.234375 52.222656 366.765625 51.917969 367.339844 51.847656 C 367.589844 51.8125 367.835938 51.691406 367.828125 51.386719 C 367.820312 51.085938 367.519531 51.003906 367.296875 50.945312 C 366.683594 50.789062 366.078125 50.8125 365.476562 51.050781 C 365.125 51.191406 364.503906 51.050781 364.542969 51.625 C 364.59375 52.273438 365.214844 52.074219 365.882812 52.148438 Z M 298.203125 118.101562 C 298.023438 117.285156 297.46875 116.644531 296.632812 116.261719 C 296.363281 116.136719 296.054688 116.226562 295.964844 116.613281 C 295.816406 117.234375 297.222656 118.742188 297.875 118.660156 C 298.152344 118.617188 298.203125 118.429688 298.203125 118.101562 Z M 25.582031 88.042969 C 26.390625 88.136719 27.019531 87.953125 27.597656 87.628906 C 27.835938 87.496094 28.121094 87.285156 27.984375 86.9375 C 27.851562 86.605469 27.582031 86.621094 27.253906 86.71875 C 26.707031 86.875 26.121094 86.929688 25.582031 87.121094 C 25.238281 87.242188 24.59375 87.183594 24.65625 87.726562 C 24.738281 88.28125 25.335938 87.988281 25.582031 88.042969 Z M 143.851562 119.125 C 144.53125 118.816406 144.585938 117.996094 145.054688 117.472656 C 145.289062 117.203125 145.28125 116.839844 145.09375 116.539062 C 144.90625 116.234375 144.605469 116.179688 144.375 116.464844 C 143.835938 117.113281 143.558594 117.882812 143.476562 118.726562 C 143.453125 118.929688 143.515625 119.140625 143.851562 119.125 Z M 349.476562 39.792969 C 349.519531 39.410156 349.226562 39.269531 348.9375 39.328125 C 348.308594 39.449219 347.574219 39.5 347.410156 40.316406 C 347.335938 40.675781 347.574219 41.070312 347.949219 40.964844 C 348.5625 40.785156 349.234375 40.570312 349.476562 39.792969 Z M 35.492188 64.191406 C 36.015625 64.183594 36.636719 64.144531 36.527344 63.667969 C 36.339844 62.800781 35.394531 63.210938 34.8125 62.957031 C 34.566406 62.851562 34.125 62.933594 34.175781 63.308594 C 34.28125 64.101562 34.992188 64.085938 35.492188 64.191406 Z M 204.441406 127.347656 C 204.261719 126.863281 204.742188 125.980469 203.894531 125.945312 C 203.378906 125.921875 203.414062 126.707031 203.414062 127.199219 C 203.402344 127.757812 203.46875 128.535156 204 128.558594 C 204.6875 128.582031 204.277344 127.78125 204.441406 127.347656 Z M 342.253906 98.117188 C 341.90625 98.164062 341.421875 98.132812 341.527344 98.582031 C 341.707031 99.335938 342.453125 99.441406 343.082031 99.597656 C 343.34375 99.664062 343.636719 99.5 343.554688 99.195312 C 343.375 98.550781 342.917969 98.171875 342.253906 98.117188 Z M 99.039062 120.648438 C 99.023438 120.320312 98.800781 120.222656 98.53125 120.265625 C 97.648438 120.394531 97.476562 121.199219 97.117188 121.8125 C 97.003906 122.007812 97.191406 122.195312 97.4375 122.222656 C 97.789062 122.261719 99.0625 121.015625 99.039062 120.648438 Z M 39.109375 68.179688 C 38.988281 67.945312 38.964844 67.863281 38.914062 67.804688 C 38.695312 67.574219 36.953125 67.699219 36.796875 67.960938 C 36.554688 68.378906 36.824219 68.648438 37.175781 68.640625 C 37.695312 68.632812 38.210938 68.484375 38.734375 68.371094 C 38.882812 68.335938 39.019531 68.230469 39.109375 68.179688 Z M 112.894531 25.621094 C 113.222656 25.710938 113.378906 25.546875 113.320312 25.324219 C 113.148438 24.597656 112.550781 24.277344 111.921875 24.0625 C 111.667969 23.972656 111.382812 24.203125 111.449219 24.472656 C 111.628906 25.234375 112.386719 25.308594 112.894531 25.621094 Z M 308.277344 118.4375 C 308.160156 117.691406 308.152344 116.949219 307.371094 116.75 C 307.101562 116.6875 306.757812 116.621094 306.585938 116.933594 C 306.398438 117.292969 306.707031 117.429688 306.960938 117.585938 C 307.402344 117.863281 307.835938 118.152344 308.277344 118.4375 Z M 137.445312 117.316406 C 137.429688 116.941406 137.316406 116.703125 136.996094 116.777344 C 136.441406 116.90625 136.1875 117.308594 136.195312 117.875 C 136.203125 118.175781 136.269531 118.570312 136.652344 118.40625 C 137.113281 118.199219 137.355469 117.742188 137.445312 117.316406 Z M 137.445312 117.316406 " fill-opacity="1" fill-rule="nonzero"/><path fill="#d0a488" d="M 289.671875 25.464844 C 291.804688 25.972656 293.847656 26.75 296.046875 27.132812 C 297.753906 27.429688 299.5 28.132812 301.183594 28.765625 C 302.035156 29.082031 303.007812 29.117188 303.765625 29.535156 C 305.921875 30.710938 308.339844 31.105469 310.570312 32.023438 C 312.597656 32.859375 314.664062 33.59375 316.585938 34.675781 C 318.171875 35.566406 320.042969 35.730469 321.667969 36.664062 C 323.929688 37.976562 326.375 38.964844 328.710938 40.152344 C 331.414062 41.527344 334.070312 42.96875 336.519531 44.78125 C 338.308594 46.097656 340.238281 47.246094 342.15625 48.359375 C 343.359375 49.054688 344.316406 50.011719 345.386719 50.847656 C 347.085938 52.179688 348.957031 53.296875 350.3125 55.046875 C 350.566406 55.382812 350.800781 55.644531 350.925781 56.070312 C 351.039062 56.496094 351.285156 57.003906 351.628906 57.226562 C 353.757812 58.59375 354.242188 60.886719 354.9375 63.039062 C 355.539062 64.90625 356.105469 66.820312 356.144531 68.769531 C 356.203125 71.644531 355.441406 74.371094 353.246094 76.378906 C 352.542969 77.015625 352.574219 78.03125 351.78125 78.480469 C 350.320312 79.316406 349.503906 80.90625 348.039062 81.714844 C 346.816406 82.394531 345.917969 83.433594 344.976562 84.410156 C 343 86.472656 340.402344 87.585938 338.105469 89.160156 C 336.886719 89.992188 335.746094 91.082031 334.394531 91.550781 C 332.558594 92.1875 331.472656 93.972656 329.542969 94.347656 C 330.035156 92.933594 328.882812 92.605469 328.03125 92.082031 C 327.746094 91.902344 327.402344 91.746094 327.164062 92.140625 C 326.960938 92.492188 326.960938 92.867188 327.296875 93.152344 C 327.949219 93.726562 328.585938 94.339844 329.550781 94.339844 C 326.144531 96.117188 322.722656 97.953125 319.078125 99.074219 C 317.320312 99.613281 315.734375 100.53125 313.960938 101 C 312.867188 101.292969 311.78125 101.964844 310.710938 102.175781 C 308.773438 102.554688 307.101562 103.59375 305.15625 103.960938 C 303.1875 104.332031 301.25 105.042969 299.386719 105.8125 C 298.25 106.277344 297.035156 106.304688 295.898438 106.859375 C 294.140625 107.730469 292.148438 108.03125 290.226562 108.375 C 288.789062 108.636719 287.53125 109.5625 286.101562 109.539062 C 283.667969 109.503906 281.550781 110.707031 279.222656 111.132812 C 276.96875 111.542969 274.640625 111.96875 272.367188 112.476562 C 269.402344 113.140625 266.394531 113.707031 263.414062 114.320312 C 261.820312 114.648438 260.089844 114.679688 258.578125 115.464844 C 258.160156 114.910156 257.734375 114.207031 257.292969 115.449219 C 256.078125 116.007812 254.746094 115.554688 253.480469 115.917969 C 251.296875 116.53125 248.953125 116.359375 246.78125 116.832031 C 244.785156 117.265625 242.628906 116.636719 240.800781 117.839844 C 240.347656 118.136719 240.097656 117.519531 239.636719 117.652344 C 237.515625 118.25 235.242188 117.800781 233.199219 118.167969 C 231.140625 118.535156 229.042969 118.453125 227.007812 118.953125 C 225.339844 119.363281 223.59375 119.078125 221.886719 119.265625 C 220.878906 119.371094 219.851562 119.535156 218.8125 119.503906 C 216.109375 119.4375 213.429688 119.953125 210.734375 120.066406 C 207.433594 120.214844 204.121094 120.347656 200.8125 120.355469 C 199.949219 120.355469 198.917969 120.609375 198.160156 119.796875 C 198.035156 119.667969 197.667969 119.566406 197.578125 119.648438 C 196.089844 120.910156 194.523438 119.820312 193.078125 119.660156 C 191.539062 119.488281 190.054688 119.8125 188.519531 119.648438 C 186.539062 119.4375 184.53125 119.214844 182.519531 119.199219 C 181.074219 119.191406 179.660156 118.824219 178.183594 118.988281 C 177.4375 119.070312 176.476562 118.847656 175.863281 118.519531 C 174.480469 117.785156 173.117188 118.519531 171.800781 118.199219 C 169.53125 117.652344 167.128906 118.316406 164.90625 117.40625 C 164.457031 117.226562 164.007812 117.203125 163.558594 117.234375 C 161.417969 117.40625 159.367188 116.816406 157.292969 116.457031 C 156.507812 116.316406 155.738281 116.179688 154.9375 116.21875 C 154.21875 116.261719 153.523438 116.21875 152.894531 115.792969 C 152.273438 115.367188 151.597656 115.792969 150.960938 115.703125 C 148.957031 115.417969 146.898438 115.230469 144.980469 114.792969 C 142.765625 114.296875 140.535156 113.820312 138.304688 113.394531 C 136.367188 113.027344 134.429688 112.699219 132.609375 111.90625 C 132.019531 111.640625 131.464844 111.984375 130.828125 111.886719 C 128.882812 111.59375 127.019531 111.003906 125.109375 110.609375 C 122.632812 110.109375 120.085938 109.734375 117.738281 108.679688 C 117.519531 108.582031 117.28125 108.449219 117.054688 108.441406 C 114.488281 108.308594 112.117188 107.457031 109.839844 106.371094 C 108.941406 105.945312 107.96875 106.007812 107.035156 105.753906 C 106.121094 105.5 105.183594 105.363281 104.382812 104.8125 C 103.222656 104.019531 101.847656 103.96875 100.542969 103.699219 C 98.058594 103.183594 95.867188 101.816406 93.441406 101.234375 C 91.636719 100.800781 90.191406 99.566406 88.222656 99.410156 C 86.9375 99.3125 85.730469 98.261719 84.472656 97.699219 C 82.402344 96.773438 80.351562 95.78125 78.222656 95.011719 C 76.613281 94.429688 75.402344 93.308594 74.070312 92.359375 C 73.457031 91.925781 72.535156 92.121094 72.183594 91.304688 C 72.566406 89.640625 71.480469 90.253906 70.730469 90.355469 C 67.871094 88.960938 65.394531 86.980469 62.746094 85.261719 C 61.578125 84.5 60.679688 83.269531 59.59375 82.410156 C 57.191406 80.496094 54.992188 78.398438 53.1875 75.941406 C 51.988281 74.3125 51.195312 72.503906 50.777344 70.390625 C 50.230469 67.589844 51.398438 65.28125 51.953125 62.761719 C 52.617188 59.738281 54.570312 57.519531 56.300781 55.171875 C 57.402344 53.664062 59.070312 52.699219 60.5 51.519531 C 61.996094 50.28125 63.589844 49.175781 65.15625 48.039062 C 65.859375 47.53125 66.546875 46.949219 67.332031 46.628906 C 69.429688 45.777344 71.242188 44.335938 72.984375 43.070312 C 75.035156 41.570312 77.535156 41.0625 79.4375 39.390625 C 80.28125 38.65625 81.5625 38.457031 82.617188 37.96875 C 83.824219 37.410156 84.847656 36.535156 86.121094 36.085938 C 87.0625 35.75 87.917969 35.207031 88.972656 35.273438 C 89.257812 35.289062 89.542969 35.289062 89.765625 35.019531 C 90.820312 33.710938 92.511719 33.359375 93.898438 32.914062 C 95.992188 32.242188 97.917969 31.148438 100.050781 30.648438 C 102.296875 30.132812 104.429688 29.238281 106.546875 28.429688 C 108.761719 27.585938 111.066406 27.226562 113.277344 26.488281 C 114.226562 26.167969 115.167969 25.890625 116.195312 25.949219 C 117.070312 25.996094 117.503906 25.0625 118.410156 24.914062 C 120.632812 24.5625 122.871094 24.128906 125.003906 23.433594 C 127.175781 22.722656 129.472656 22.679688 131.621094 21.722656 C 133.304688 20.976562 135.332031 20.886719 137.21875 20.730469 C 138.84375 20.59375 140.371094 20.058594 141.941406 19.75 C 143.117188 19.511719 144.269531 19.191406 145.445312 19.429688 C 146.1875 19.578125 146.441406 18.882812 146.941406 18.800781 C 147.75 18.667969 148.605469 18.464844 149.382812 18.511719 C 150.476562 18.585938 151.441406 18.121094 152.503906 18.078125 C 153.273438 18.054688 154.082031 17.882812 154.855469 17.957031 C 156.269531 18.101562 157.578125 17.710938 158.902344 17.34375 C 159.316406 17.226562 159.710938 17.078125 160.078125 17.390625 C 160.332031 17.605469 160.566406 17.570312 160.878906 17.53125 C 162.914062 17.292969 164.972656 17.179688 166.988281 16.867188 C 168.394531 16.652344 169.75 16.988281 171.15625 16.851562 C 175.003906 16.472656 178.851562 15.957031 182.691406 15.820312 C 185.226562 15.730469 187.757812 14.984375 190.339844 15.574219 C 190.960938 15.710938 191.722656 15.375 192.382812 15.148438 C 194.179688 14.535156 196.050781 15.015625 197.863281 14.679688 C 198.132812 15.1875 198.394531 15.171875 198.664062 14.679688 C 199.148438 14.371094 199.703125 14.304688 200.21875 14.484375 C 200.789062 14.6875 201.378906 14.746094 201.925781 14.640625 C 203.183594 14.402344 204.417969 14.714844 205.667969 14.664062 C 205.585938 14.933594 205.453125 15.203125 205.429688 15.484375 C 205.375 16.074219 205.445312 16.925781 205.992188 16.949219 C 206.746094 16.980469 206.320312 16.128906 206.417969 15.671875 C 206.46875 15.433594 206.410156 15.179688 206.402344 14.933594 C 207.660156 14.230469 208.96875 14.605469 210.21875 14.902344 C 210.617188 15 210.984375 15.179688 211.378906 15.042969 C 212.496094 14.640625 213.550781 15.03125 214.644531 15.171875 C 216.386719 15.402344 218.144531 15.546875 219.890625 15.53125 C 220.742188 15.523438 221.460938 16 222.261719 15.917969 C 224.3125 15.703125 226.320312 15.882812 228.339844 16.285156 C 230.203125 16.652344 232.113281 16.472656 234.007812 16.800781 C 235.152344 17 236.417969 16.875 237.644531 16.941406 C 239.6875 17.054688 241.707031 17.039062 243.75 17.414062 C 244.753906 17.597656 245.996094 17.546875 247.128906 17.53125 C 248.707031 17.503906 250.316406 17.695312 251.894531 17.996094 C 253.03125 18.21875 254.214844 18.277344 255.359375 18.367188 C 257.449219 18.527344 259.476562 18.996094 261.542969 19.28125 C 263.078125 19.496094 264.640625 19.625 266.117188 20.027344 C 267.132812 20.296875 268.167969 20.347656 269.191406 20.625 C 271.042969 21.132812 272.996094 21.28125 274.894531 21.671875 C 276.59375 22.027344 278.128906 22.8125 279.769531 23.3125 C 280.226562 23.449219 280.578125 23.941406 281.046875 23.351562 C 281.183594 23.171875 281.429688 23.238281 281.625 23.328125 C 283.285156 24.074219 285.269531 23.710938 286.8125 24.882812 C 287.140625 25.128906 287.671875 24.816406 287.957031 25.242188 C 287.828125 26.003906 288.21875 26.128906 288.816406 25.890625 C 289.109375 25.777344 289.3125 25.457031 289.671875 25.464844 Z M 282.417969 43.332031 C 282.082031 43.191406 281.835938 42.75 281.386719 43.050781 C 279.304688 42.226562 277.222656 41.398438 275.136719 40.5625 C 274.761719 38.941406 273.960938 40.441406 273.375 40.316406 C 271.125 39.613281 268.789062 39.226562 266.511719 38.65625 C 263.25 37.835938 259.910156 37.328125 256.582031 36.820312 C 252.230469 36.15625 247.839844 35.699219 243.496094 35.011719 C 240.554688 34.542969 237.613281 34.625 234.664062 34.683594 C 233.234375 34.714844 231.738281 35.050781 230.390625 34.488281 C 229.066406 33.9375 227.734375 34.617188 226.363281 34.078125 C 224.988281 33.539062 223.40625 33.332031 221.84375 33.742188 C 220.585938 34.078125 219.296875 33.414062 218.035156 33.636719 C 216.550781 33.890625 215.023438 33.90625 213.59375 33.683594 C 211.175781 33.308594 208.753906 33.472656 206.34375 33.332031 C 205.535156 33.285156 204.71875 33.554688 204.007812 32.890625 C 203.773438 32.660156 203.363281 32.6875 203.0625 32.867188 C 201.484375 33.824219 199.6875 33.472656 198.050781 33.4375 C 196.890625 33.414062 195.660156 33.792969 194.492188 33.300781 C 194.300781 33.21875 194.007812 33.375 193.78125 33.457031 C 192.234375 33.945312 190.632812 33.972656 189.066406 33.742188 C 187.972656 33.578125 186.933594 33.480469 185.855469 33.765625 C 185.550781 33.847656 185.234375 34.09375 184.898438 33.898438 C 183.453125 33.054688 182.195312 33.964844 180.929688 34.398438 C 180.648438 34.496094 180.4375 34.617188 180.199219 34.472656 C 179.203125 33.863281 178.191406 34.339844 177.1875 34.421875 C 176.117188 34.511719 175.085938 34.921875 174 34.839844 C 172.464844 34.726562 170.917969 34.234375 169.390625 34.890625 C 169.136719 34.996094 168.917969 34.929688 168.671875 34.832031 C 167.367188 34.308594 165.984375 34.472656 164.695312 34.714844 C 161.261719 35.371094 157.78125 35.730469 154.34375 36.296875 C 151.808594 36.714844 149.246094 36.871094 146.71875 37.453125 C 145.125 37.820312 143.507812 38.074219 141.90625 38.492188 C 139.601562 39.082031 137.234375 39.410156 134.90625 39.988281 C 130.421875 41.101562 126.066406 42.542969 121.839844 44.402344 C 117.429688 46.34375 112.683594 47.53125 108.90625 50.847656 C 107.152344 52.394531 105.363281 53.84375 103.6875 55.53125 C 100.84375 58.40625 100.214844 61.882812 100.207031 65.46875 C 100.199219 68.777344 100.378906 72.242188 102.078125 75.253906 C 102.976562 76.84375 103.933594 78.53125 105.542969 79.539062 C 107.429688 80.726562 109.429688 81.738281 111.382812 82.828125 C 111.203125 83.132812 111.007812 83.453125 111.578125 83.53125 C 112.039062 83.605469 112.476562 83.515625 112.902344 83.320312 C 113.566406 83.886719 114.332031 84.179688 115.160156 84.457031 C 117.429688 85.210938 119.726562 85.914062 121.996094 86.675781 C 124.105469 87.390625 126.390625 87.527344 128.46875 88.429688 C 128.8125 88.578125 129.195312 88.824219 129.519531 88.773438 C 131.203125 88.527344 132.742188 89.199219 134.316406 89.542969 C 135.96875 89.902344 137.585938 90.46875 139.242188 90.804688 C 141.382812 91.238281 143.515625 91.714844 145.648438 92.179688 C 146.933594 92.457031 148.191406 92.925781 149.480469 93.0625 C 152.316406 93.382812 154.898438 94.53125 157.617188 95.242188 C 159.765625 95.796875 161.746094 97.042969 164.074219 96.902344 C 163.640625 97.273438 163.207031 97.640625 162.789062 98.027344 C 162.585938 98.207031 162.527344 98.445312 162.742188 98.671875 C 162.929688 98.878906 163.230469 98.976562 163.402344 98.804688 C 164.039062 98.164062 165.054688 97.796875 165.035156 96.660156 C 165.945312 96.878906 166.898438 96.996094 167.757812 97.347656 C 170.175781 98.351562 172.773438 98.566406 175.289062 99.058594 C 179 99.785156 182.808594 99.777344 186.589844 99.597656 C 186.679688 99.972656 186.539062 100.308594 186.441406 100.671875 C 186.359375 100.964844 186.222656 101.40625 186.597656 101.53125 C 186.957031 101.652344 187.292969 101.367188 187.441406 101 C 187.621094 100.546875 187.757812 100.089844 187.914062 99.628906 C 191.019531 99.730469 194.121094 99.800781 197.21875 99.925781 C 199.957031 100.039062 202.703125 100.441406 205.414062 100.292969 C 208.378906 100.121094 211.363281 100.195312 214.304688 99.800781 C 215.128906 99.695312 215.90625 99.882812 216.738281 99.769531 C 218.496094 99.523438 220.308594 99.492188 222.121094 99.605469 C 223.886719 99.722656 225.699219 99.835938 227.441406 99.566406 C 229.214844 99.285156 231.011719 99.203125 232.792969 98.753906 C 234.566406 98.3125 236.417969 98.082031 238.234375 97.699219 C 238.886719 97.558594 239.277344 97.011719 240.078125 97.027344 C 241.019531 97.042969 242.023438 96.996094 242.996094 96.945312 C 246.238281 96.765625 249.164062 95.339844 252.1875 94.421875 C 254.859375 93.621094 257.5625 93.0625 260.242188 92.390625 C 262.84375 91.738281 265.539062 91.425781 268.105469 90.671875 C 270.128906 90.082031 272.179688 89.503906 274.230469 89.175781 C 277.628906 88.632812 280.957031 87.808594 284.246094 86.890625 C 286.519531 86.261719 288.757812 85.359375 291.011719 84.679688 C 293.5625 83.910156 295.785156 82.65625 297.988281 81.289062 L 297.980469 81.296875 C 303.128906 79.691406 305.652344 74.730469 306.25 70.335938 C 306.550781 68.117188 306.722656 65.878906 306.519531 63.636719 C 306.414062 62.480469 306.414062 61.285156 306.070312 60.199219 C 305.34375 57.90625 303.789062 55.972656 302.15625 54.367188 C 299.011719 51.28125 295.644531 48.457031 291.296875 46.910156 C 288.292969 45.835938 285.300781 44.691406 282.417969 43.332031 Z M 309.476562 67.453125 C 309.761719 67.425781 310.179688 67.527344 310.570312 67.289062 C 310.785156 67.15625 311.121094 67.101562 311.09375 66.828125 C 311.0625 66.46875 310.710938 66.476562 310.417969 66.445312 C 309.886719 66.386719 309.355469 66.25 308.824219 66.257812 C 308.464844 66.257812 308.03125 66.394531 308.03125 66.878906 C 308.03125 67.28125 308.359375 67.417969 308.726562 67.453125 C 308.9375 67.460938 309.152344 67.453125 309.476562 67.453125 Z M 140.683594 22.582031 C 140.519531 21.625 139.773438 21.484375 139.097656 21.3125 C 138.605469 21.191406 138.679688 21.632812 138.703125 21.886719 C 138.777344 22.804688 139.554688 22.941406 140.214844 23.113281 C 140.527344 23.1875 140.699219 22.84375 140.683594 22.582031 Z M 112.59375 99.902344 C 113.664062 99.523438 114.390625 99.089844 114.945312 98.410156 C 115.109375 98.207031 115.191406 97.960938 114.988281 97.746094 C 114.816406 97.566406 114.601562 97.664062 114.421875 97.753906 C 113.582031 98.148438 112.929688 98.722656 112.59375 99.902344 Z M 337.867188 80.519531 C 337.535156 80.617188 336.855469 80.28125 336.921875 80.90625 C 336.984375 81.535156 337.714844 81.730469 338.261719 81.714844 C 338.652344 81.699219 339.453125 81.617188 339.386719 81.207031 C 339.28125 80.496094 338.496094 80.542969 337.867188 80.519531 Z M 165.699219 102.824219 C 166.746094 103.0625 166.917969 102.210938 167.339844 101.710938 C 167.59375 101.414062 168.085938 101.070312 167.539062 100.71875 C 167.078125 100.425781 166.648438 100.769531 166.417969 101.195312 C 166.148438 101.703125 165.953125 102.242188 165.699219 102.824219 Z M 89.878906 38.8125 C 90.214844 38.730469 90.875 38.917969 90.703125 38.367188 C 90.453125 37.574219 89.519531 37.804688 88.890625 37.566406 C 88.605469 37.460938 88.222656 37.640625 88.351562 38.015625 C 88.589844 38.753906 89.265625 38.761719 89.878906 38.8125 Z M 283.242188 33.539062 C 282.800781 33.808594 281.960938 33.628906 281.925781 34.535156 C 281.910156 35.011719 282.277344 35.078125 282.621094 35.042969 C 283.265625 34.980469 283.675781 34.535156 283.855469 33.972656 C 283.996094 33.5625 283.609375 33.539062 283.242188 33.539062 Z M 295.425781 83.8125 C 295.105469 83.820312 294.730469 83.949219 294.789062 84.246094 C 294.949219 85.046875 295.832031 85.054688 296.371094 85.457031 C 296.585938 85.621094 296.960938 85.316406 296.886719 84.972656 C 296.730469 84.203125 296.003906 84.082031 295.425781 83.8125 Z M 350.417969 74.273438 C 349.878906 74.214844 349.585938 74.355469 349.648438 74.789062 C 349.746094 75.433594 350.320312 75.433594 350.800781 75.476562 C 351.210938 75.515625 351.652344 75.34375 351.578125 74.902344 C 351.464844 74.207031 350.726562 74.445312 350.417969 74.273438 Z M 273.398438 31.695312 C 273.347656 31.5625 273.363281 31.390625 273.113281 31.425781 C 272.449219 31.515625 271.8125 31.671875 271.296875 32.105469 C 271.027344 32.335938 271.101562 32.710938 271.378906 32.839844 C 272.035156 33.152344 272.328125 32.34375 272.890625 32.277344 C 273.210938 32.253906 273.398438 32.054688 273.398438 31.695312 Z M 346.855469 70.726562 C 347.167969 70.671875 347.753906 70.84375 347.679688 70.324219 C 347.617188 69.828125 346.9375 69.910156 346.527344 69.777344 C 346.25 69.679688 345.917969 69.898438 345.957031 70.246094 C 346.015625 70.734375 346.445312 70.710938 346.855469 70.726562 Z M 346.855469 70.726562 " fill-opacity="1" fill-rule="nonzero"/><path fill="#faf2e3" d="M 164.039062 96.902344 C 161.710938 97.035156 159.734375 95.796875 157.585938 95.242188 C 154.875 94.539062 152.285156 93.382812 149.449219 93.0625 C 148.15625 92.917969 146.898438 92.457031 145.617188 92.179688 C 143.484375 91.714844 141.351562 91.238281 139.210938 90.804688 C 137.550781 90.46875 135.941406 89.902344 134.285156 89.542969 C 132.707031 89.199219 131.179688 88.535156 129.488281 88.773438 C 129.160156 88.824219 128.777344 88.578125 128.433594 88.429688 C 126.359375 87.527344 124.070312 87.382812 121.964844 86.675781 C 119.691406 85.914062 117.40625 85.203125 115.125 84.457031 C 114.292969 84.179688 113.523438 83.894531 112.871094 83.320312 C 112.96875 83.246094 113.058594 83.164062 113.164062 83.097656 C 113.53125 82.871094 114.078125 82.753906 113.671875 82.117188 C 113.296875 81.527344 112.863281 81.722656 112.4375 82.027344 C 112.070312 82.289062 111.71875 82.558594 111.359375 82.820312 C 109.40625 81.730469 107.414062 80.714844 105.515625 79.53125 C 103.90625 78.523438 102.953125 76.835938 102.054688 75.246094 C 100.355469 72.234375 100.175781 68.777344 100.183594 65.460938 C 100.191406 61.875 100.820312 58.394531 103.664062 55.523438 C 105.328125 53.835938 107.117188 52.386719 108.882812 50.839844 C 112.660156 47.523438 117.40625 46.335938 121.816406 44.394531 C 126.039062 42.535156 130.394531 41.09375 134.882812 39.980469 C 137.210938 39.398438 139.578125 39.082031 141.882812 38.484375 C 143.484375 38.074219 145.101562 37.8125 146.695312 37.441406 C 149.21875 36.863281 151.785156 36.707031 154.316406 36.289062 C 157.765625 35.722656 161.238281 35.371094 164.667969 34.707031 C 165.960938 34.464844 167.339844 34.289062 168.648438 34.824219 C 168.894531 34.921875 169.113281 34.996094 169.367188 34.878906 C 170.894531 34.226562 172.4375 34.714844 173.976562 34.832031 C 175.070312 34.914062 176.089844 34.503906 177.160156 34.414062 C 178.167969 34.332031 179.171875 33.855469 180.175781 34.464844 C 180.414062 34.609375 180.625 34.488281 180.902344 34.390625 C 182.179688 33.945312 183.429688 33.046875 184.875 33.890625 C 185.210938 34.085938 185.527344 33.839844 185.832031 33.757812 C 186.910156 33.472656 187.953125 33.578125 189.039062 33.734375 C 190.609375 33.964844 192.203125 33.9375 193.753906 33.449219 C 193.992188 33.375 194.285156 33.21875 194.464844 33.292969 C 195.632812 33.792969 196.867188 33.40625 198.027344 33.429688 C 199.671875 33.472656 201.460938 33.816406 203.035156 32.859375 C 203.347656 32.667969 203.746094 32.652344 203.984375 32.882812 C 204.6875 33.546875 205.511719 33.277344 206.320312 33.324219 C 208.730469 33.464844 211.148438 33.300781 213.566406 33.675781 C 214.996094 33.898438 216.523438 33.890625 218.011719 33.628906 C 219.269531 33.40625 220.5625 34.070312 221.820312 33.734375 C 223.378906 33.316406 224.964844 33.53125 226.335938 34.070312 C 227.710938 34.609375 229.042969 33.929688 230.367188 34.480469 C 231.722656 35.042969 233.207031 34.699219 234.636719 34.675781 C 237.589844 34.617188 240.519531 34.535156 243.46875 35.003906 C 247.816406 35.691406 252.203125 36.148438 256.558594 36.8125 C 259.882812 37.320312 263.226562 37.828125 266.484375 38.648438 C 268.765625 39.21875 271.09375 39.605469 273.347656 40.308594 C 272.964844 40.921875 272.582031 41.527344 272.089844 42.308594 C 273.535156 42.175781 274.335938 41.398438 275.105469 40.554688 C 277.1875 41.382812 279.273438 42.207031 281.355469 43.042969 C 280.6875 43.445312 280.074219 43.894531 279.875 44.84375 C 281.109375 44.894531 282.007812 44.558594 282.386719 43.332031 C 285.269531 44.691406 288.257812 45.835938 291.234375 46.890625 C 295.570312 48.429688 298.9375 51.265625 302.089844 54.351562 C 303.726562 55.957031 305.269531 57.878906 306.003906 60.179688 C 306.347656 61.261719 306.347656 62.464844 306.453125 63.621094 C 306.660156 65.863281 306.496094 68.097656 306.183594 70.316406 C 305.578125 74.714844 303.0625 79.675781 297.917969 81.28125 C 298.078125 80.324219 297.246094 80.175781 296.707031 79.78125 C 296.339844 79.511719 295.988281 79.519531 295.757812 79.914062 C 295.515625 80.339844 295.800781 80.644531 296.152344 80.824219 C 296.699219 81.109375 297.289062 81.3125 297.925781 81.273438 C 295.71875 82.648438 293.496094 83.894531 290.949219 84.664062 C 288.683594 85.351562 286.453125 86.242188 284.183594 86.875 C 280.890625 87.789062 277.566406 88.617188 274.164062 89.160156 C 272.113281 89.484375 270.0625 90.058594 268.039062 90.65625 C 265.464844 91.402344 262.777344 91.722656 260.179688 92.375 C 257.492188 93.046875 254.785156 93.605469 252.121094 94.40625 C 249.101562 95.316406 246.175781 96.75 242.929688 96.929688 C 241.960938 96.984375 240.953125 97.027344 240.015625 97.011719 C 239.207031 96.996094 238.8125 97.542969 238.167969 97.683594 C 236.355469 98.066406 234.507812 98.296875 232.726562 98.738281 C 230.945312 99.1875 229.148438 99.269531 227.375 99.546875 C 225.644531 99.820312 223.828125 99.703125 222.054688 99.589844 C 220.25 99.476562 218.4375 99.507812 216.671875 99.753906 C 215.839844 99.867188 215.0625 99.679688 214.238281 99.785156 C 211.296875 100.179688 208.3125 100.113281 205.347656 100.277344 C 202.636719 100.433594 199.882812 100.023438 197.152344 99.910156 C 194.050781 99.785156 190.953125 99.710938 187.847656 99.613281 C 187.839844 99.238281 187.863281 98.769531 187.40625 98.695312 C 186.800781 98.597656 186.828125 99.296875 186.523438 99.582031 C 182.742188 99.769531 178.933594 99.769531 175.226562 99.042969 C 172.707031 98.550781 170.109375 98.335938 167.691406 97.328125 C 166.84375 96.976562 165.886719 96.863281 164.972656 96.640625 C 164.628906 96.519531 164.351562 96.773438 164.039062 96.902344 Z M 171.296875 74.730469 C 171.410156 74.675781 171.558594 74.550781 171.621094 74.582031 C 173.230469 75.371094 175.0625 75.433594 176.6875 75.320312 C 178.664062 75.179688 180.429688 75.789062 182.292969 76 C 182.855469 76.066406 183.445312 76.253906 183.984375 76.15625 C 185.9375 75.796875 187.847656 76.335938 189.785156 76.402344 C 190.390625 76.425781 191 76.203125 191.566406 76.378906 C 193.976562 77.097656 196.476562 77.179688 198.933594 77.210938 C 202.5625 77.261719 206.199219 77.1875 209.824219 77.113281 C 212.914062 77.054688 215.855469 75.941406 218.953125 76.1875 C 219.539062 76.238281 220.144531 75.507812 220.832031 75.828125 C 222.328125 76.539062 223.78125 76.195312 225.21875 75.730469 C 226.542969 75.304688 227.921875 75.5 229.296875 75.050781 C 230.617188 74.617188 232.171875 75.632812 233.78125 74.835938 C 234.859375 74.304688 236.3125 74.460938 237.605469 74.339844 C 239.1875 74.183594 241.078125 74.582031 242.277344 73.832031 C 243.667969 72.960938 245.1875 73.132812 246.535156 72.40625 C 248.429688 71.382812 250.660156 70.84375 252.023438 69.058594 C 253.152344 67.589844 254.402344 66.085938 254.082031 63.941406 C 253.742188 61.628906 252.253906 59.992188 250.847656 58.394531 C 249.671875 57.0625 248.191406 55.832031 246.460938 55.292969 C 244.597656 54.710938 242.90625 53.761719 240.878906 53.476562 C 238.511719 53.140625 236.125 52.699219 233.765625 52.199219 C 232.171875 51.863281 230.496094 51.65625 228.847656 51.492188 C 227.34375 51.347656 225.847656 50.96875 224.320312 50.789062 C 221.777344 50.480469 219.277344 50.003906 216.707031 50.355469 C 216.894531 49.960938 217.203125 49.472656 216.738281 49.175781 C 216.246094 48.867188 215.839844 49.273438 215.527344 49.667969 C 215.40625 49.824219 215.300781 49.988281 215.183594 50.152344 C 214.34375 50.027344 213.496094 49.921875 212.652344 49.765625 C 210.609375 49.390625 208.535156 49.789062 206.476562 49.414062 C 205.375 49.21875 204.253906 48.847656 203.085938 49.011719 C 200.570312 49.355469 198.035156 49.527344 195.511719 49.707031 C 194.769531 49.765625 194.050781 49.488281 193.273438 49.757812 C 192.277344 50.101562 191.214844 50.363281 190.128906 50.371094 C 188.78125 50.386719 187.449219 50.183594 186.082031 50.289062 C 185.101562 50.371094 184.203125 50.902344 183.28125 50.804688 C 181.679688 50.632812 180.183594 51.207031 178.617188 51.265625 C 177.167969 51.3125 175.738281 51.691406 174.300781 51.917969 C 173.902344 51.773438 173.820312 51.371094 173.640625 51.058594 C 173.460938 50.742188 173.328125 50.265625 172.871094 50.46875 C 172.398438 50.683594 172.480469 51.148438 172.691406 51.550781 C 172.808594 51.773438 172.953125 51.96875 173.085938 52.179688 C 170.648438 52.597656 168.207031 53.007812 165.773438 53.425781 C 165.496094 53.179688 165.242188 52.902344 164.945312 52.6875 C 164.6875 52.492188 164.515625 51.929688 164.082031 52.273438 C 163.777344 52.507812 164.03125 52.878906 164.171875 53.171875 C 164.238281 53.320312 164.285156 53.476562 164.34375 53.632812 C 163.976562 54.253906 163.296875 54.195312 162.726562 54.390625 C 161.367188 54.859375 160.003906 55.253906 158.828125 56.167969 C 157.21875 57.414062 155.476562 58.476562 154.5625 60.433594 C 154.316406 60.96875 153.550781 61.089844 153.3125 61.746094 C 152.308594 64.503906 153.027344 67.878906 155.339844 69.738281 C 155.910156 70.195312 156.359375 70.882812 157.210938 71.152344 C 159.054688 71.734375 160.886719 72.40625 162.726562 73.027344 C 165.167969 73.855469 167.585938 74.519531 170.175781 74.5 C 170.558594 74.5 171.019531 74.296875 171.320312 74.746094 C 170.308594 74.664062 169.425781 74.917969 168.878906 75.851562 C 168.738281 76.089844 168.992188 76.230469 169.210938 76.230469 C 170.273438 76.253906 171.027344 75.828125 171.296875 74.730469 Z M 132.121094 54.636719 C 132.414062 54.539062 132.773438 54.808594 132.902344 54.390625 C 133.011719 54.058594 132.773438 53.859375 132.578125 53.648438 C 132.09375 53.140625 131.367188 53.171875 130.8125 52.835938 C 130.535156 52.664062 130.25 52.355469 129.988281 52.789062 C 129.78125 53.132812 129.847656 53.53125 130.167969 53.804688 C 130.722656 54.292969 131.410156 54.546875 132.121094 54.636719 Z M 174.375 39.800781 C 173.835938 39.835938 173.484375 40.039062 173.597656 40.488281 C 173.820312 41.382812 174.832031 41.152344 175.386719 41.628906 C 175.496094 41.726562 175.8125 41.257812 175.757812 41.128906 C 175.46875 40.464844 175.085938 39.882812 174.375 39.800781 Z M 125.402344 55.160156 C 125.738281 55 126.410156 55.441406 126.359375 54.746094 C 126.320312 54.046875 125.632812 53.933594 125.058594 53.894531 C 124.699219 53.867188 124.105469 53.679688 124.121094 54.335938 C 124.144531 55.160156 124.878906 55.03125 125.402344 55.160156 Z M 274.949219 85.328125 C 274.605469 85.308594 274.34375 85.433594 274.417969 85.734375 C 274.550781 86.285156 274.964844 86.644531 275.496094 86.824219 C 275.792969 86.921875 276.152344 86.882812 276.109375 86.464844 C 276.035156 85.769531 275.316406 85.6875 274.949219 85.328125 Z M 250.675781 91.207031 C 250.472656 91.328125 250.261719 91.433594 250.375 91.6875 C 250.621094 92.238281 250.980469 92.6875 251.601562 92.792969 C 251.796875 92.828125 251.84375 92.574219 251.796875 92.425781 C 251.617188 91.835938 251.167969 91.492188 250.675781 91.207031 Z M 250.675781 91.207031 " fill-opacity="1" fill-rule="nonzero"/><path fill="#ce9c80" d="M 216.714844 50.347656 C 219.277344 49.988281 221.785156 50.46875 224.328125 50.78125 C 225.855469 50.96875 227.351562 51.339844 228.855469 51.484375 C 230.503906 51.648438 232.179688 51.855469 233.773438 52.191406 C 236.132812 52.6875 238.519531 53.132812 240.890625 53.46875 C 242.90625 53.753906 244.605469 54.703125 246.46875 55.285156 C 248.199219 55.824219 249.6875 57.054688 250.855469 58.386719 C 252.261719 59.984375 253.75 61.621094 254.089844 63.929688 C 254.410156 66.085938 253.160156 67.582031 252.03125 69.046875 C 250.667969 70.824219 248.4375 71.367188 246.542969 72.398438 C 245.195312 73.125 243.675781 72.953125 242.285156 73.824219 C 241.078125 74.574219 239.199219 74.175781 237.613281 74.328125 C 236.320312 74.453125 234.867188 74.304688 233.789062 74.828125 C 232.179688 75.625 230.617188 74.609375 229.304688 75.042969 C 227.929688 75.492188 226.550781 75.296875 225.226562 75.722656 C 223.789062 76.1875 222.335938 76.53125 220.839844 75.820312 C 220.160156 75.492188 219.546875 76.230469 218.960938 76.179688 C 215.863281 75.933594 212.921875 77.046875 209.835938 77.105469 C 206.207031 77.179688 202.570312 77.253906 198.941406 77.203125 C 196.484375 77.171875 193.984375 77.097656 191.574219 76.367188 C 191.011719 76.195312 190.398438 76.417969 189.792969 76.394531 C 187.863281 76.328125 185.953125 75.789062 183.992188 76.148438 C 183.453125 76.246094 182.863281 76.058594 182.300781 75.992188 C 180.4375 75.777344 178.671875 75.171875 176.695312 75.3125 C 175.070312 75.425781 173.238281 75.363281 171.628906 74.574219 C 171.566406 74.542969 171.417969 74.675781 171.304688 74.722656 L 171.320312 74.738281 C 171.019531 74.289062 170.558594 74.492188 170.175781 74.492188 C 167.585938 74.511719 165.167969 73.847656 162.726562 73.019531 C 160.886719 72.398438 159.066406 71.726562 157.210938 71.144531 C 156.359375 70.882812 155.910156 70.195312 155.339844 69.726562 C 153.027344 67.871094 152.308594 64.496094 153.3125 61.738281 C 153.550781 61.082031 154.316406 60.960938 154.5625 60.425781 C 155.476562 58.46875 157.210938 57.40625 158.828125 56.160156 C 160.011719 55.253906 161.375 54.851562 162.726562 54.382812 C 163.296875 54.1875 163.976562 54.246094 164.34375 53.621094 C 164.570312 53.792969 164.777344 54.023438 165.027344 54.113281 C 165.339844 54.21875 165.558594 54.808594 165.925781 54.425781 C 166.214844 54.128906 165.953125 53.738281 165.78125 53.417969 C 168.214844 53 170.65625 52.589844 173.09375 52.171875 C 173.46875 52.542969 173.679688 53.335938 174.375 52.992188 C 174.792969 52.789062 174.507812 52.273438 174.300781 51.910156 C 175.738281 51.683594 177.167969 51.3125 178.617188 51.257812 C 180.183594 51.199219 181.679688 50.632812 183.28125 50.796875 C 184.210938 50.894531 185.101562 50.363281 186.082031 50.28125 C 187.457031 50.167969 188.789062 50.371094 190.128906 50.363281 C 191.214844 50.355469 192.277344 50.085938 193.273438 49.75 C 194.058594 49.480469 194.769531 49.757812 195.511719 49.699219 C 198.042969 49.519531 200.578125 49.347656 203.085938 49.003906 C 204.261719 48.839844 205.375 49.203125 206.476562 49.40625 C 208.535156 49.78125 210.609375 49.382812 212.652344 49.757812 C 213.496094 49.914062 214.34375 50.011719 215.183594 50.144531 C 214.957031 50.742188 214.71875 51.347656 214.457031 52.007812 C 215.734375 52.007812 215.976562 50.855469 216.714844 50.347656 Z M 235.808594 63.972656 C 236.492188 63.816406 237.546875 64.242188 237.621094 63.339844 C 237.6875 62.53125 236.679688 62.410156 235.988281 62.449219 C 235.332031 62.488281 234.351562 62.433594 234.328125 63.332031 C 234.296875 64.472656 235.359375 63.667969 235.808594 63.972656 Z M 226.417969 70.988281 C 226.695312 70.933594 227.03125 71.070312 227.089844 70.742188 C 227.121094 70.589844 226.96875 70.375 226.84375 70.21875 C 226.238281 69.464844 225.339844 69.238281 224.476562 68.984375 C 224.253906 68.917969 223.960938 68.917969 223.8125 69.1875 C 223.699219 69.402344 223.773438 69.621094 223.945312 69.746094 C 224.710938 70.292969 225.457031 70.914062 226.417969 70.988281 Z M 218.699219 72.691406 C 218.722656 72.003906 217.382812 70.703125 216.695312 70.71875 C 216.328125 70.734375 216.199219 70.972656 216.074219 71.242188 C 215.9375 71.523438 216.066406 71.726562 216.296875 71.882812 C 216.886719 72.265625 217.472656 72.652344 218.070312 73.019531 C 218.429688 73.257812 218.691406 73.207031 218.699219 72.691406 Z M 196.875 70.234375 C 196.875 69.867188 196.6875 69.710938 196.328125 69.71875 C 195.839844 69.726562 194.464844 71.136719 194.457031 71.613281 C 194.449219 71.90625 194.636719 71.9375 194.851562 71.972656 C 195.496094 72.101562 196.902344 70.898438 196.875 70.234375 Z M 196.875 70.234375 " fill-opacity="1" fill-rule="nonzero"/></svg>