<svg xmlns="http://www.w3.org/2000/svg" xmlns:xlink="http://www.w3.org/1999/xlink" width="113" zoomAndPan="magnify" viewBox="0 0 84.75 75.749997" height="101" preserveAspectRatio="xMidYMid meet" version="1.0"><defs><clipPath id="4a86d88ff6"><path d="M 16.609375 0 L 83.886719 0 L 83.886719 75.5 L 16.609375 75.5 Z M 16.609375 0 " clip-rule="nonzero"/></clipPath></defs><g clip-path="url(#4a86d88ff6)"><path fill="#32312b" d="M 24.167969 0.078125 C 24.691406 0.015625 25.230469 0.0703125 25.667969 0.394531 C 27.746094 1.953125 29.804688 4.042969 31.582031 5.945312 C 32.261719 5.847656 32.988281 5.71875 33.664062 5.664062 C 35.28125 5.523438 36.863281 5.695312 38.472656 5.867188 C 38.898438 5.503906 39.425781 4.917969 39.859375 4.523438 C 41.070312 3.414062 42.261719 2.234375 43.539062 1.203125 C 43.894531 0.917969 44.503906 0.4375 44.890625 0.246094 C 45.140625 0.125 45.410156 0.0625 45.683594 0.0664062 C 46.179688 0.0703125 46.65625 0.316406 46.984375 0.683594 C 47.195312 0.914062 47.34375 1.195312 47.414062 1.5 C 47.578125 2.214844 47.558594 4.214844 47.5625 5.03125 L 47.5625 9.945312 C 47.550781 11.8125 47.359375 11.644531 48.171875 13.398438 C 48.730469 14.597656 48.816406 16.847656 48.730469 18.191406 C 49.851562 18.179688 51.078125 18.136719 52.199219 18.207031 C 52.609375 18.234375 53.164062 18.589844 53.183594 19.0625 C 53.1875 19.332031 53.089844 19.597656 52.898438 19.789062 C 52.511719 20.183594 51.324219 20.007812 50.773438 19.988281 C 49.957031 19.953125 49.144531 19.9375 48.328125 19.929688 C 48.113281 20.765625 47.964844 21.058594 47.601562 21.832031 C 48.824219 22.191406 50.441406 22.546875 51.492188 23.195312 C 51.921875 23.460938 51.46875 24.824219 50.792969 24.671875 C 49.386719 24.359375 47.964844 23.769531 46.570312 23.417969 L 46.535156 23.476562 C 46.246094 23.910156 45.878906 24.1875 45.558594 24.617188 C 45.765625 25.261719 46.167969 25.882812 46.519531 26.441406 C 48.015625 28.914062 50.171875 30.261719 52.578125 31.699219 C 56.792969 34.222656 60.839844 37.601562 63.484375 41.804688 C 67.839844 48.71875 69.640625 58.9375 67.882812 66.875 C 69.820312 66.441406 71.257812 65.703125 72.257812 63.945312 C 73.753906 61.316406 73.082031 58.230469 72.125 55.558594 C 71.464844 53.703125 70.941406 51.855469 70.398438 49.976562 C 69.273438 46.121094 69.390625 42.03125 71.496094 38.519531 C 72.925781 36.121094 75.238281 34.253906 77.984375 33.5 C 80.339844 32.847656 83.265625 33.480469 83.921875 36.164062 C 84.175781 37.195312 84.039062 38.09375 83.484375 39.007812 C 81.847656 41.5 79.480469 39.945312 77.929688 42.417969 C 75.902344 45.726562 77.960938 49.941406 79.015625 53.257812 C 79.84375 55.753906 80.5 58.289062 80.410156 60.9375 C 80.171875 68.082031 74.789062 73.476562 67.738281 74.148438 C 66.503906 74.265625 65.460938 74.277344 64.214844 74.25 C 63.816406 74.238281 62.402344 75.0625 61.851562 75.042969 C 60.953125 75.128906 60.238281 75.152344 59.332031 75.152344 L 56.105469 75.148438 L 45.101562 75.148438 L 33.476562 75.132812 L 30.007812 75.140625 C 28.597656 75.148438 27.472656 75.335938 26.246094 74.53125 C 24.457031 73.359375 24.058594 71.242188 25.277344 69.488281 C 25.972656 68.484375 26.863281 68.082031 28.027344 67.882812 C 27.820312 66.484375 27.730469 64.820312 27.574219 63.402344 L 26.609375 55.078125 C 26.425781 53.214844 26.21875 51.351562 25.988281 49.492188 C 25.886719 48.648438 25.777344 47.609375 25.644531 46.785156 C 25.515625 45.984375 24.855469 44.679688 24.527344 43.847656 C 23.625 41.542969 23.136719 39.09375 23.09375 36.621094 C 23.035156 33.828125 23.644531 30.457031 24.21875 27.714844 C 24.394531 26.886719 24.613281 26.003906 24.746094 25.183594 C 24.085938 24.578125 23.652344 24.21875 23.164062 23.472656 C 22.417969 23.683594 21.675781 23.917969 20.941406 24.164062 C 20.167969 24.421875 18.484375 25.285156 18.136719 24.0625 C 17.78125 22.816406 21.1875 22.109375 22.128906 21.890625 C 21.722656 21.105469 21.574219 20.796875 21.457031 19.9375 C 20.609375 19.925781 19.757812 19.945312 18.914062 19.992188 C 18.53125 20.011719 17.210938 20.160156 16.960938 19.882812 C 16.246094 19.097656 16.675781 18.175781 17.75 18.167969 C 18.0625 18.164062 18.484375 18.167969 18.8125 18.167969 L 21.144531 18.183594 C 21.085938 16.476562 21.269531 14.964844 21.894531 13.359375 C 22.089844 12.847656 22.484375 12.308594 22.527344 11.757812 C 22.574219 11.234375 22.496094 10.675781 22.492188 10.148438 C 22.488281 8.269531 22.351562 2.6875 22.894531 1.296875 C 23.125 0.710938 23.601562 0.320312 24.167969 0.078125 Z M 24.167969 0.078125 " fill-opacity="1" fill-rule="nonzero"/></g><path fill="#575757" d="M 24.757812 2.042969 C 25.632812 2.472656 28.371094 5.441406 29.203125 6.289062 C 29.644531 6.734375 30.269531 7.550781 30.792969 8.019531 C 31.386719 7.988281 32.582031 7.664062 33.292969 7.570312 C 35.535156 7.265625 36.949219 7.585938 39.066406 7.953125 C 39.40625 7.75 39.570312 7.601562 39.832031 7.320312 C 41.105469 5.976562 42.511719 4.769531 43.816406 3.453125 C 44.265625 3.003906 45.007812 2.421875 45.558594 2.101562 C 45.742188 4.699219 45.589844 7.585938 45.574219 10.199219 C 45.570312 10.554688 45.371094 11.234375 45.273438 11.585938 C 45.4375 12.042969 45.804688 12.652344 46.007812 13.132812 C 46.792969 15.011719 46.945312 16.148438 46.828125 18.113281 C 45.800781 18.152344 44.777344 18.261719 43.757812 18.355469 C 43.007812 18.421875 42.226562 18.460938 41.492188 18.613281 C 41.117188 18.691406 40.539062 18.824219 40.273438 19.113281 C 40.171875 19.222656 40.144531 19.351562 40.152344 19.492188 C 40.164062 19.71875 40.238281 20.046875 40.449219 20.179688 C 40.710938 20.339844 45.65625 19.964844 46.398438 19.933594 C 46.214844 20.386719 46.019531 20.828125 45.816406 21.265625 C 44.410156 20.972656 42.019531 20.453125 40.660156 20.582031 C 39.925781 21.09375 40.183594 21.785156 40.886719 21.96875 C 42.0625 22.273438 43.371094 22.539062 44.550781 22.824219 C 44.175781 23.195312 43.796875 23.4375 43.386719 23.761719 C 42.839844 24.191406 40.972656 24.996094 41.4375 25.917969 C 41.960938 26.964844 43.292969 26.078125 43.976562 25.679688 C 46.015625 30.773438 49.9375 32.1875 54.132812 35.085938 C 56.554688 36.777344 58.617188 38.648438 60.417969 40.980469 C 65.480469 47.53125 67.242188 56.625 66.285156 64.738281 C 65.996094 67.179688 64.964844 70.882812 62.984375 72.441406 C 61.824219 73.359375 59.214844 73.113281 57.71875 73.109375 L 51.601562 73.101562 L 47 73.109375 C 46.179688 73.109375 45.25 73.199219 44.441406 73.058594 C 44.082031 72.992188 43.925781 72.859375 43.722656 72.558594 C 43.523438 72.265625 43.441406 71.90625 43.511719 71.558594 C 43.589844 71.160156 43.859375 70.75 44.148438 70.464844 C 46.417969 68.195312 52.0625 70.953125 53.070312 70.25 C 53.296875 70.09375 53.492188 69.8125 53.527344 69.53125 C 53.558594 69.296875 53.453125 69.035156 53.300781 68.859375 C 52.835938 68.332031 49.253906 67.785156 48.394531 67.691406 C 47.796875 67.625 47.195312 67.605469 46.59375 67.585938 C 46.332031 67.191406 46.125 66.882812 45.90625 66.460938 C 45.871094 66.398438 45.835938 66.332031 45.804688 66.269531 C 44.546875 63.753906 44.164062 60.785156 45.078125 58.09375 C 46.082031 55.164062 48.589844 53 51.636719 52.441406 C 52.152344 52.34375 53.089844 52.441406 53.488281 52.230469 C 54.390625 51.777344 54.019531 50.644531 53.105469 50.550781 C 51.074219 50.339844 48.929688 51.066406 47.234375 52.15625 C 46.730469 52.480469 46.378906 52.941406 45.894531 53.257812 C 46.191406 52.34375 46.464844 51.421875 46.710938 50.492188 C 46.832031 50.035156 47.027344 49.457031 46.753906 49.019531 C 46.449219 48.53125 45.65625 48.496094 45.320312 48.972656 C 45.175781 49.183594 45.105469 49.464844 45.039062 49.710938 C 43.558594 55.308594 42.015625 60.890625 40.402344 66.453125 C 40.070312 67.566406 39.773438 68.707031 39.441406 69.8125 C 39.199219 70.613281 38.8125 72.371094 38.09375 72.8125 C 37.875 72.949219 37.628906 73.039062 37.375 73.074219 C 36.796875 73.160156 33.785156 73.121094 33.230469 72.996094 C 32.140625 72.148438 32.382812 70.511719 33.613281 69.941406 C 34.316406 69.617188 34.996094 69.730469 35.089844 68.730469 C 35.226562 67.1875 35.339844 65.652344 35.453125 64.109375 C 35.675781 61.289062 35.859375 58.460938 36 55.632812 L 36.1875 51.878906 C 36.21875 51.195312 36.234375 50.585938 36.257812 49.828125 C 36.367188 48.996094 35.480469 48.351562 34.808594 48.894531 C 34.273438 49.324219 34.328125 50.847656 34.300781 51.484375 L 34.148438 54.902344 C 32.796875 53.726562 30.917969 51.148438 29.875 49.664062 C 28.699219 48.007812 27.707031 46.226562 26.914062 44.355469 C 24.765625 39.316406 24.847656 35.433594 25.78125 30.058594 C 25.996094 28.832031 26.261719 27.582031 26.511719 26.359375 C 26.625 25.8125 26.828125 25.351562 26.929688 24.769531 C 26.835938 24.488281 25.410156 23.316406 25.078125 23.039062 C 25.996094 22.660156 27.054688 22.433594 28.027344 22.230469 C 29.15625 21.992188 30.050781 21.699219 28.914062 20.535156 C 27.328125 20.4375 25.441406 21.046875 23.867188 21.304688 C 23.71875 20.875 23.578125 20.441406 23.453125 20.007812 C 24.921875 20.058594 26.398438 20.0625 27.867188 20.15625 C 28.289062 20.183594 28.707031 20.226562 29.132812 20.25 C 29.894531 19.621094 29.679688 18.902344 28.792969 18.742188 C 26.988281 18.417969 24.863281 18.257812 23.039062 18.210938 C 23.007812 16.441406 23.195312 14.945312 23.960938 13.328125 C 24.441406 12.308594 24.769531 12.269531 24.554688 11.09375 C 24.328125 9.613281 24.421875 7.921875 24.441406 6.417969 C 24.457031 5.402344 24.335938 2.785156 24.757812 2.042969 Z M 24.757812 2.042969 " fill-opacity="1" fill-rule="nonzero"/><path fill="#32312b" d="M 34.507812 17.558594 C 34.710938 17.554688 34.90625 17.550781 35.109375 17.554688 C 35.535156 17.558594 36.3125 17.582031 36.597656 17.917969 C 37.132812 18.550781 35.964844 19.425781 35.570312 19.761719 C 35.675781 20.703125 35.992188 21.1875 36.90625 21.585938 C 37.289062 21.71875 37.652344 21.820312 38.035156 21.972656 C 38.960938 22.34375 38.300781 23.261719 37.601562 23.34375 C 36.78125 23.445312 35.898438 22.9375 35.261719 22.445312 L 34.917969 22.167969 C 34.242188 22.753906 32.9375 23.773438 31.941406 23.246094 C 30.378906 22.410156 32.394531 21.785156 33.0625 21.472656 C 33.492188 21.273438 34.210938 20.683594 34.207031 20.160156 C 34.230469 19.367188 33.148438 19.019531 33.109375 18.269531 C 33.074219 17.582031 34.074219 17.585938 34.507812 17.558594 Z M 34.507812 17.558594 " fill-opacity="1" fill-rule="nonzero"/><path fill="#32312b" d="M 39.617188 13.78125 C 41.511719 13.683594 42.203125 16.148438 40.066406 17.039062 C 39.679688 17.078125 39.414062 17.0625 39.066406 16.875 C 38.710938 16.675781 38.449219 16.347656 38.335938 15.953125 C 38.039062 14.929688 38.625 14.066406 39.617188 13.78125 Z M 39.617188 13.78125 " fill-opacity="1" fill-rule="nonzero"/><path fill="#32312b" d="M 29.980469 13.824219 C 30.3125 13.8125 30.503906 13.789062 30.824219 13.925781 C 31.664062 14.289062 32.054688 15.347656 31.632812 16.164062 C 31.382812 16.65625 31.066406 16.882812 30.5625 17.066406 C 28.550781 17.0625 27.875 14.398438 29.980469 13.824219 Z M 29.980469 13.824219 " fill-opacity="1" fill-rule="nonzero"/><path fill="#575757" d="M 79.753906 35.230469 C 80.710938 35.183594 81.941406 35.667969 82.070312 36.753906 C 82.332031 38.933594 80.039062 38.617188 78.699219 39.210938 C 77.167969 39.890625 75.964844 41.394531 75.480469 42.984375 C 73.941406 48.183594 77.46875 53.128906 78.226562 58.191406 C 79.289062 65.328125 75.019531 71.121094 67.882812 72.15625 C 67.164062 72.238281 66.453125 72.273438 65.730469 72.316406 C 66.582031 71.117188 66.953125 70.351562 67.328125 68.949219 C 69.613281 68.894531 71.640625 67.898438 73.113281 66.136719 C 78.1875 60.054688 72.148438 52.746094 71.695312 46.191406 C 71.5 43.410156 72.191406 40.519531 74.039062 38.390625 C 75.480469 36.699219 77.519531 35.410156 79.753906 35.230469 Z M 79.753906 35.230469 " fill-opacity="1" fill-rule="nonzero"/><path fill="#575757" d="M 28.179688 50.660156 C 28.234375 50.699219 29.683594 52.777344 29.867188 53.019531 C 31.125 54.6875 32.554688 56.109375 33.960938 57.632812 C 33.945312 59.136719 33.757812 61.054688 33.632812 62.570312 C 33.496094 64.398438 33.347656 66.222656 33.195312 68.050781 C 31.085938 69.152344 30.050781 70.691406 30.820312 73.085938 C 30.242188 73.097656 28.207031 73.148438 27.75 73.027344 C 27.492188 72.960938 27.253906 72.832031 27.058594 72.652344 C 25.980469 71.636719 26.835938 70.035156 28.152344 69.785156 C 28.550781 69.710938 28.996094 69.753906 29.382812 69.605469 C 29.878906 69.410156 29.992188 68.722656 29.988281 68.253906 C 29.960938 66.660156 29.746094 65.046875 29.574219 63.460938 L 28.644531 54.710938 C 28.503906 53.472656 28.234375 51.832031 28.179688 50.660156 Z M 28.179688 50.660156 " fill-opacity="1" fill-rule="nonzero"/><path fill="#575757" d="M 43.039062 64.621094 C 43.109375 64.710938 43.546875 65.96875 43.644531 66.195312 C 43.90625 66.816406 44.207031 67.417969 44.546875 68 C 42.527344 68.851562 41.136719 70.332031 41.605469 72.660156 C 41.644531 72.777344 41.683594 72.84375 41.664062 72.964844 C 41.480469 73.128906 40.726562 73.070312 40.382812 73.097656 C 41.207031 71.585938 41.550781 69.859375 42.003906 68.203125 C 42.335938 67.007812 42.683594 65.8125 43.039062 64.621094 Z M 43.039062 64.621094 " fill-opacity="1" fill-rule="nonzero"/></svg>