<svg xmlns="http://www.w3.org/2000/svg" xmlns:xlink="http://www.w3.org/1999/xlink" width="1505" zoomAndPan="magnify" viewBox="0 0 1128.75 599.249981" height="799" preserveAspectRatio="xMidYMid meet" version="1.0"><defs><clipPath id="b28ef936ac"><path d="M 2 132 L 1127.917969 132 L 1127.917969 597.75 L 2 597.75 Z M 2 132 " clip-rule="nonzero"/></clipPath></defs><g clip-path="url(#b28ef936ac)"><path fill="#ffe3d0" d="M 2.828125 132.773438 L 1127.445312 132.773438 L 1127.445312 597.847656 L 2.828125 597.847656 Z M 2.828125 132.773438 " fill-opacity="1" fill-rule="evenodd"/></g><path fill="#ffa1a1" d="M 185.664062 147.183594 C 185.664062 147.183594 181.722656 148.113281 174.746094 148.605469 C 172.589844 148.757812 170.148438 148.660156 167.464844 148.6875 C 165.613281 148.703125 163.640625 148.761719 161.570312 148.738281 C 158.792969 148.703125 155.84375 148.453125 152.726562 148.453125 C 148.117188 148.449219 143.179688 148.824219 137.984375 148.90625 C 136.945312 148.921875 135.898438 148.949219 134.839844 148.90625 C 130.746094 148.746094 126.574219 148.261719 122.261719 147.917969 C 121.867188 147.886719 121.480469 147.832031 121.082031 147.824219 C 120.167969 147.804688 119.253906 147.894531 118.332031 147.933594 C 116.054688 148.027344 113.765625 148.191406 111.453125 148.234375 C 106.910156 148.328125 102.308594 148.097656 97.695312 148.175781 C 94.941406 148.222656 92.191406 148.417969 89.441406 148.488281 C 87.601562 148.535156 85.769531 148.542969 83.9375 148.5625 C 81.460938 148.589844 78.992188 148.648438 76.542969 148.628906 C 72.789062 148.597656 69.085938 148.359375 65.449219 148.339844 C 61.230469 148.316406 57.109375 148.488281 53.121094 148.519531 C 52.011719 148.527344 50.917969 148.542969 49.832031 148.523438 C 45.21875 148.4375 40.824219 148.078125 36.683594 148.027344 C 35.28125 148.007812 33.914062 148.058594 32.574219 148.082031 C 27.820312 148.148438 23.503906 148.257812 19.734375 148.292969 C 18.613281 148.300781 17.542969 148.308594 16.523438 148.292969 C 8.476562 148.179688 3.683594 147.914062 3.683594 147.914062 C 3.285156 147.914062 2.957031 147.585938 2.957031 147.183594 C 2.957031 146.78125 3.285156 146.453125 3.683594 146.453125 C 3.683594 146.453125 8.480469 146.1875 16.523438 146.070312 C 17.542969 146.058594 18.617188 146.0625 19.734375 146.074219 C 23.503906 146.105469 27.824219 146.214844 32.574219 146.285156 C 33.914062 146.304688 35.28125 146.355469 36.683594 146.339844 C 40.824219 146.289062 45.214844 145.929688 49.835938 145.84375 C 50.917969 145.824219 52.011719 145.835938 53.121094 145.847656 C 57.109375 145.875 61.230469 146.046875 65.449219 146.023438 C 69.085938 146.003906 72.789062 145.769531 76.542969 145.734375 C 78.992188 145.714844 81.460938 145.773438 83.9375 145.800781 C 85.765625 145.820312 87.601562 145.828125 89.441406 145.878906 C 92.191406 145.949219 94.941406 146.144531 97.695312 146.191406 C 102.304688 146.265625 106.910156 146.039062 111.453125 146.128906 C 113.765625 146.175781 116.054688 146.335938 118.332031 146.433594 C 119.253906 146.472656 120.167969 146.558594 121.082031 146.542969 C 121.480469 146.535156 121.867188 146.480469 122.261719 146.449219 C 126.574219 146.109375 130.746094 145.621094 134.839844 145.460938 C 135.898438 145.421875 136.945312 145.445312 137.984375 145.460938 C 143.179688 145.542969 148.117188 145.917969 152.726562 145.914062 C 155.84375 145.910156 158.792969 145.660156 161.570312 145.628906 C 163.640625 145.605469 165.613281 145.664062 167.464844 145.683594 C 170.148438 145.707031 172.589844 145.609375 174.746094 145.761719 C 181.722656 146.253906 185.664062 147.183594 185.664062 147.183594 Z M 185.664062 147.183594 " fill-opacity="1" fill-rule="evenodd"/><path fill="#ffa1a1" d="M 931.261719 147.183594 C 931.261719 147.183594 914.90625 148.117188 887 148.605469 C 878.25 148.757812 868.363281 148.660156 857.492188 148.6875 C 849.976562 148.703125 841.992188 148.761719 833.589844 148.738281 C 822.351562 148.703125 810.363281 148.453125 797.738281 148.453125 C 779.070312 148.449219 759.027344 148.824219 737.984375 148.90625 C 733.777344 148.921875 729.523438 148.945312 725.234375 148.90625 C 708.722656 148.746094 691.675781 148.257812 674.246094 147.917969 C 672.65625 147.886719 671.0625 147.832031 669.46875 147.824219 C 665.761719 147.804688 662.042969 147.894531 658.3125 147.933594 C 649.09375 148.027344 639.789062 148.191406 630.429688 148.234375 C 612.007812 148.328125 593.351562 148.097656 574.65625 148.175781 C 563.503906 148.222656 552.335938 148.417969 541.191406 148.488281 C 533.742188 148.535156 526.304688 148.542969 518.886719 148.5625 C 508.839844 148.589844 498.832031 148.648438 488.902344 148.628906 C 473.699219 148.597656 458.671875 148.363281 443.929688 148.339844 C 426.832031 148.316406 410.121094 148.492188 393.960938 148.519531 C 389.472656 148.527344 385.03125 148.542969 380.632812 148.523438 C 361.941406 148.433594 344.082031 148.078125 327.328125 148.027344 C 321.644531 148.007812 316.09375 148.058594 310.671875 148.082031 C 291.410156 148.152344 273.890625 148.257812 258.617188 148.292969 C 254.082031 148.300781 249.738281 148.308594 245.605469 148.292969 C 213.007812 148.175781 193.558594 147.914062 193.558594 147.914062 C 193.15625 147.914062 192.824219 147.585938 192.828125 147.183594 C 192.824219 146.78125 193.15625 146.453125 193.554688 146.453125 C 193.554688 146.453125 213.015625 146.1875 245.609375 146.070312 C 249.742188 146.058594 254.082031 146.0625 258.617188 146.074219 C 273.890625 146.105469 291.410156 146.214844 310.671875 146.285156 C 316.09375 146.304688 321.644531 146.355469 327.332031 146.339844 C 344.085938 146.289062 361.945312 145.929688 380.636719 145.84375 C 385.027344 145.824219 389.472656 145.835938 393.957031 145.847656 C 410.125 145.875 426.835938 146.046875 443.929688 146.023438 C 458.675781 146.003906 473.699219 145.769531 488.90625 145.734375 C 498.835938 145.714844 508.839844 145.773438 518.886719 145.800781 C 526.304688 145.820312 533.742188 145.828125 541.191406 145.878906 C 552.335938 145.949219 563.5 146.144531 574.65625 146.191406 C 593.351562 146.265625 612.007812 146.039062 630.429688 146.128906 C 639.792969 146.175781 649.089844 146.339844 658.3125 146.433594 C 662.042969 146.472656 665.761719 146.5625 669.464844 146.542969 C 671.0625 146.535156 672.65625 146.480469 674.246094 146.449219 C 691.671875 146.109375 708.71875 145.621094 725.234375 145.460938 C 729.523438 145.417969 733.773438 145.445312 737.984375 145.460938 C 759.027344 145.539062 779.070312 145.917969 797.738281 145.914062 C 810.363281 145.910156 822.351562 145.660156 833.589844 145.628906 C 841.992188 145.605469 849.980469 145.664062 857.492188 145.683594 C 868.363281 145.707031 878.25 145.609375 887.003906 145.761719 C 914.902344 146.25 931.261719 147.183594 931.261719 147.183594 Z M 931.261719 147.183594 " fill-opacity="1" fill-rule="evenodd"/><path fill="#ffa1a1" d="M 1124.65625 147.183594 C 1124.65625 147.183594 1120.953125 148.113281 1114.363281 148.605469 C 1112.335938 148.757812 1110.03125 148.660156 1107.503906 148.6875 C 1105.753906 148.703125 1103.898438 148.761719 1101.945312 148.738281 C 1099.328125 148.703125 1096.546875 148.453125 1093.609375 148.453125 C 1089.265625 148.449219 1084.613281 148.824219 1079.714844 148.90625 C 1078.738281 148.921875 1077.746094 148.949219 1076.75 148.90625 C 1072.890625 148.746094 1068.960938 148.257812 1064.894531 147.917969 C 1064.523438 147.886719 1064.15625 147.832031 1063.785156 147.824219 C 1062.921875 147.804688 1062.058594 147.894531 1061.191406 147.933594 C 1059.042969 148.027344 1056.886719 148.191406 1054.707031 148.234375 C 1050.425781 148.328125 1046.085938 148.097656 1041.738281 148.175781 C 1039.144531 148.222656 1036.550781 148.417969 1033.957031 148.488281 C 1032.226562 148.535156 1030.496094 148.542969 1028.773438 148.5625 C 1026.4375 148.589844 1024.109375 148.648438 1021.800781 148.628906 C 1018.261719 148.597656 1014.773438 148.363281 1011.34375 148.339844 C 1007.367188 148.316406 1003.484375 148.488281 999.726562 148.519531 C 998.679688 148.527344 997.648438 148.542969 996.625 148.523438 C 992.273438 148.433594 988.132812 148.078125 984.230469 148.027344 C 982.910156 148.007812 981.621094 148.058594 980.359375 148.082031 C 975.878906 148.148438 971.808594 148.257812 968.253906 148.292969 C 967.199219 148.300781 966.191406 148.308594 965.230469 148.292969 C 957.644531 148.179688 953.128906 147.914062 953.128906 147.914062 C 952.726562 147.910156 952.398438 147.585938 952.398438 147.183594 C 952.398438 146.78125 952.726562 146.453125 953.128906 146.453125 C 953.128906 146.453125 957.644531 146.1875 965.230469 146.070312 C 966.191406 146.058594 967.203125 146.0625 968.253906 146.074219 C 971.808594 146.105469 975.878906 146.214844 980.359375 146.285156 C 981.621094 146.304688 982.910156 146.355469 984.234375 146.339844 C 988.132812 146.289062 992.273438 145.929688 996.628906 145.84375 C 997.648438 145.824219 998.679688 145.835938 999.722656 145.847656 C 1003.484375 145.875 1007.367188 146.046875 1011.34375 146.023438 C 1014.773438 146.003906 1018.265625 145.769531 1021.800781 145.734375 C 1024.109375 145.714844 1026.4375 145.773438 1028.773438 145.800781 C 1030.496094 145.820312 1032.226562 145.832031 1033.957031 145.878906 C 1036.550781 145.949219 1039.140625 146.144531 1041.738281 146.191406 C 1046.085938 146.265625 1050.425781 146.039062 1054.707031 146.128906 C 1056.886719 146.175781 1059.046875 146.335938 1061.191406 146.433594 C 1062.058594 146.472656 1062.921875 146.558594 1063.785156 146.542969 C 1064.15625 146.535156 1064.523438 146.480469 1064.894531 146.449219 C 1068.960938 146.105469 1072.890625 145.621094 1076.75 145.460938 C 1077.746094 145.421875 1078.738281 145.445312 1079.714844 145.460938 C 1084.613281 145.542969 1089.265625 145.917969 1093.609375 145.914062 C 1096.546875 145.910156 1099.328125 145.660156 1101.945312 145.628906 C 1103.898438 145.605469 1105.757812 145.664062 1107.503906 145.683594 C 1110.03125 145.707031 1112.332031 145.609375 1114.363281 145.761719 C 1120.953125 146.253906 1124.65625 147.183594 1124.65625 147.183594 Z M 1124.65625 147.183594 " fill-opacity="1" fill-rule="evenodd"/><path fill="#ffa1a1" d="M 367.625 172.914062 C 367.625 172.914062 384.410156 171.980469 413.046875 171.492188 C 422.027344 171.34375 432.175781 171.441406 443.328125 171.414062 C 451.039062 171.394531 459.234375 171.335938 467.855469 171.363281 C 479.390625 171.394531 491.691406 171.644531 504.648438 171.644531 C 523.800781 171.648438 544.371094 171.273438 565.964844 171.195312 C 570.285156 171.179688 574.648438 171.152344 579.046875 171.191406 C 595.996094 171.355469 613.488281 171.839844 631.371094 172.183594 C 633.003906 172.210938 634.640625 172.265625 636.277344 172.277344 C 640.082031 172.292969 643.898438 172.203125 647.722656 172.167969 C 657.183594 172.070312 666.730469 171.90625 676.339844 171.863281 C 695.242188 171.773438 714.386719 172 733.570312 171.921875 C 745.015625 171.878906 756.476562 171.679688 767.910156 171.609375 C 775.554688 171.5625 783.1875 171.554688 790.800781 171.535156 C 801.109375 171.507812 811.378906 171.449219 821.570312 171.46875 C 837.171875 171.5 852.589844 171.738281 867.71875 171.757812 C 885.265625 171.78125 902.414062 171.609375 918.996094 171.578125 C 923.605469 171.570312 928.160156 171.554688 932.675781 171.578125 C 951.855469 171.664062 970.179688 172.023438 987.375 172.074219 C 993.207031 172.089844 998.90625 172.039062 1004.464844 172.019531 C 1024.234375 171.949219 1042.210938 171.839844 1057.882812 171.808594 C 1062.539062 171.800781 1066.996094 171.792969 1071.238281 171.804688 C 1104.6875 171.921875 1124.648438 172.1875 1124.648438 172.1875 C 1125.050781 172.1875 1125.375 172.511719 1125.378906 172.914062 C 1125.378906 173.320312 1125.046875 173.648438 1124.652344 173.648438 C 1124.652344 173.648438 1104.683594 173.910156 1071.234375 174.027344 C 1066.992188 174.042969 1062.539062 174.035156 1057.882812 174.023438 C 1042.210938 173.992188 1024.234375 173.882812 1004.464844 173.816406 C 998.902344 173.792969 993.207031 173.742188 987.371094 173.757812 C 970.175781 173.808594 951.851562 174.167969 932.667969 174.253906 C 928.164062 174.273438 923.605469 174.261719 919 174.253906 C 902.410156 174.226562 885.261719 174.050781 867.71875 174.074219 C 852.589844 174.09375 837.171875 174.328125 821.566406 174.363281 C 811.375 174.382812 801.109375 174.328125 790.800781 174.296875 C 783.191406 174.277344 775.554688 174.269531 767.910156 174.21875 C 756.476562 174.148438 745.015625 173.953125 733.570312 173.910156 C 714.386719 173.832031 695.242188 174.0625 676.339844 173.972656 C 666.730469 173.921875 657.1875 173.757812 647.722656 173.664062 C 643.894531 173.625 640.078125 173.539062 636.28125 173.554688 C 634.640625 173.566406 633.003906 173.621094 631.371094 173.652344 C 613.488281 173.992188 595.996094 174.476562 579.050781 174.636719 C 574.648438 174.679688 570.289062 174.652344 565.964844 174.636719 C 544.371094 174.558594 523.804688 174.183594 504.648438 174.183594 C 491.691406 174.1875 479.390625 174.4375 467.859375 174.46875 C 459.234375 174.492188 451.039062 174.4375 443.328125 174.417969 C 432.175781 174.390625 422.027344 174.492188 413.046875 174.339844 C 384.414062 173.851562 367.625 172.914062 367.625 172.914062 Z M 367.625 172.914062 " fill-opacity="1" fill-rule="evenodd"/><path fill="#ffa1a1" d="M 3.679688 172.914062 C 3.679688 172.914062 11.714844 171.980469 25.519531 171.492188 C 29.835938 171.339844 34.714844 171.441406 40.078125 171.414062 C 43.785156 171.394531 47.722656 171.335938 51.871094 171.363281 C 57.417969 171.394531 63.328125 171.644531 69.558594 171.644531 C 78.769531 171.648438 88.65625 171.273438 99.039062 171.195312 C 101.113281 171.179688 103.210938 171.152344 105.328125 171.191406 C 113.484375 171.351562 121.882812 171.839844 130.484375 172.183594 C 131.269531 172.214844 132.054688 172.265625 132.839844 172.277344 C 134.671875 172.292969 136.503906 172.207031 138.34375 172.167969 C 142.894531 172.070312 147.480469 171.910156 152.101562 171.863281 C 161.191406 171.773438 170.394531 172 179.617188 171.921875 C 185.121094 171.878906 190.628906 171.683594 196.128906 171.609375 C 199.804688 171.5625 203.472656 171.554688 207.132812 171.535156 C 212.089844 171.507812 217.027344 171.449219 221.925781 171.46875 C 229.425781 171.503906 236.839844 171.738281 244.113281 171.757812 C 252.546875 171.78125 260.792969 171.605469 268.765625 171.578125 C 270.980469 171.570312 273.171875 171.554688 275.34375 171.578125 C 284.566406 171.664062 293.371094 172.019531 301.640625 172.074219 C 304.445312 172.089844 307.183594 172.039062 309.855469 172.019531 C 319.363281 171.949219 328.003906 171.839844 335.539062 171.808594 C 337.777344 171.800781 339.921875 171.792969 341.960938 171.804688 C 358.042969 171.921875 367.636719 172.1875 367.636719 172.1875 C 368.039062 172.1875 368.367188 172.515625 368.367188 172.917969 C 368.367188 173.320312 368.039062 173.648438 367.640625 173.648438 C 367.640625 173.648438 358.042969 173.910156 341.957031 174.027344 C 339.917969 174.042969 337.777344 174.035156 335.539062 174.023438 C 328.003906 173.992188 319.363281 173.882812 309.855469 173.816406 C 307.183594 173.792969 304.445312 173.742188 301.636719 173.757812 C 293.371094 173.808594 284.566406 174.167969 275.339844 174.253906 C 273.171875 174.273438 270.980469 174.261719 268.769531 174.253906 C 260.792969 174.226562 252.546875 174.050781 244.113281 174.074219 C 236.839844 174.09375 229.425781 174.328125 221.925781 174.363281 C 217.023438 174.382812 212.089844 174.328125 207.132812 174.296875 C 203.472656 174.277344 199.800781 174.269531 196.128906 174.21875 C 190.628906 174.152344 185.121094 173.957031 179.617188 173.910156 C 170.394531 173.832031 161.191406 174.0625 152.101562 173.972656 C 147.480469 173.921875 142.894531 173.757812 138.34375 173.664062 C 136.503906 173.625 134.671875 173.539062 132.84375 173.554688 C 132.054688 173.5625 131.269531 173.621094 130.484375 173.652344 C 121.878906 173.992188 113.484375 174.476562 105.328125 174.636719 C 103.210938 174.679688 101.117188 174.652344 99.039062 174.636719 C 88.65625 174.558594 78.769531 174.183594 69.558594 174.183594 C 63.328125 174.1875 57.417969 174.4375 51.871094 174.46875 C 47.722656 174.492188 43.785156 174.4375 40.078125 174.417969 C 34.714844 174.390625 29.835938 174.488281 25.515625 174.339844 C 11.710938 173.851562 3.679688 172.914062 3.679688 172.914062 Z M 3.679688 172.914062 " fill-opacity="1" fill-rule="evenodd"/><path fill="#ffa1a1" d="M 3.667969 207.644531 C 3.667969 207.644531 8.941406 206.710938 18.109375 206.222656 C 20.964844 206.066406 24.191406 206.167969 27.738281 206.140625 C 30.191406 206.121094 32.792969 206.066406 35.535156 206.089844 C 39.207031 206.121094 43.113281 206.371094 47.234375 206.375 C 53.328125 206.378906 59.863281 206 66.730469 205.921875 C 68.101562 205.90625 69.492188 205.878906 70.886719 205.921875 C 76.292969 206.082031 81.828125 206.570312 87.523438 206.910156 C 88.042969 206.941406 88.5625 206.996094 89.082031 207.003906 C 90.292969 207.019531 91.503906 206.933594 92.722656 206.894531 C 95.730469 206.800781 98.761719 206.636719 101.820312 206.589844 C 107.832031 206.5 113.917969 206.726562 120.015625 206.648438 C 123.660156 206.605469 127.296875 206.410156 130.933594 206.339844 C 133.367188 206.292969 135.792969 206.285156 138.214844 206.261719 C 141.492188 206.234375 144.753906 206.175781 147.996094 206.195312 C 152.957031 206.230469 157.855469 206.464844 162.667969 206.488281 C 168.246094 206.507812 173.699219 206.335938 178.972656 206.308594 C 180.4375 206.300781 181.886719 206.285156 183.320312 206.304688 C 189.421875 206.390625 195.242188 206.75 200.710938 206.800781 C 202.566406 206.816406 204.378906 206.765625 206.144531 206.746094 C 212.433594 206.675781 218.144531 206.566406 223.128906 206.535156 C 224.609375 206.527344 226.027344 206.519531 227.375 206.53125 C 238.011719 206.648438 244.355469 206.914062 244.355469 206.914062 C 244.757812 206.914062 245.085938 207.242188 245.082031 207.644531 C 245.082031 208.046875 244.757812 208.375 244.355469 208.375 C 244.355469 208.375 238.011719 208.636719 227.375 208.757812 C 226.023438 208.769531 224.609375 208.761719 223.128906 208.753906 C 218.144531 208.722656 212.429688 208.613281 206.144531 208.542969 C 204.375 208.523438 202.566406 208.472656 200.710938 208.488281 C 195.238281 208.539062 189.421875 208.898438 183.320312 208.980469 C 181.886719 209 180.4375 208.988281 178.972656 208.980469 C 173.699219 208.953125 168.246094 208.777344 162.667969 208.800781 C 157.855469 208.824219 152.957031 209.058594 147.996094 209.089844 C 144.753906 209.113281 141.492188 209.054688 138.214844 209.023438 C 135.792969 209.003906 133.367188 208.996094 130.933594 208.949219 C 127.296875 208.878906 123.660156 208.679688 120.015625 208.636719 C 113.917969 208.558594 107.832031 208.789062 101.820312 208.699219 C 98.761719 208.652344 95.734375 208.488281 92.722656 208.394531 C 91.503906 208.351562 90.292969 208.265625 89.085938 208.285156 C 88.5625 208.292969 88.046875 208.347656 87.523438 208.378906 C 81.832031 208.71875 76.292969 209.203125 70.890625 209.363281 C 69.488281 209.40625 68.101562 209.382812 66.730469 209.367188 C 59.863281 209.285156 53.328125 208.910156 47.234375 208.914062 C 43.113281 208.914062 39.207031 209.164062 35.535156 209.195312 C 32.792969 209.21875 30.191406 209.164062 27.738281 209.144531 C 24.191406 209.117188 20.964844 209.214844 18.109375 209.066406 C 8.9375 208.578125 3.667969 207.644531 3.667969 207.644531 Z M 3.667969 207.644531 " fill-opacity="1" fill-rule="evenodd"/><path fill="#ffa1a1" d="M 270.164062 207.644531 C 270.164062 207.644531 283.933594 206.707031 307.457031 206.222656 C 314.828125 206.070312 323.160156 206.167969 332.320312 206.140625 C 338.648438 206.121094 345.375 206.066406 352.457031 206.089844 C 361.925781 206.125 372.027344 206.371094 382.664062 206.375 C 398.390625 206.378906 415.277344 206 433.003906 205.921875 C 436.550781 205.90625 440.132812 205.882812 443.746094 205.921875 C 457.667969 206.082031 472.023438 206.570312 486.707031 206.910156 C 488.046875 206.941406 489.390625 206.996094 490.734375 207.003906 C 493.855469 207.019531 496.992188 206.933594 500.132812 206.894531 C 507.898438 206.800781 515.738281 206.636719 523.625 206.589844 C 539.144531 206.5 554.863281 206.726562 570.617188 206.648438 C 580.011719 206.605469 589.421875 206.410156 598.808594 206.339844 C 605.085938 206.292969 611.351562 206.285156 617.601562 206.261719 C 626.066406 206.234375 634.5 206.175781 642.867188 206.195312 C 655.671875 206.230469 668.332031 206.464844 680.753906 206.488281 C 695.160156 206.507812 709.242188 206.335938 722.855469 206.308594 C 726.636719 206.300781 730.378906 206.285156 734.085938 206.304688 C 749.832031 206.390625 764.878906 206.75 778.996094 206.800781 C 783.785156 206.816406 788.464844 206.765625 793.027344 206.746094 C 809.257812 206.675781 824.019531 206.566406 836.886719 206.535156 C 840.710938 206.527344 844.367188 206.519531 847.851562 206.53125 C 875.3125 206.648438 891.703125 206.914062 891.703125 206.914062 C 892.105469 206.914062 892.433594 207.242188 892.433594 207.644531 C 892.429688 208.046875 892.101562 208.375 891.703125 208.375 C 891.703125 208.375 875.308594 208.636719 847.847656 208.757812 C 844.367188 208.769531 840.707031 208.761719 836.886719 208.753906 C 824.019531 208.71875 809.257812 208.613281 793.027344 208.542969 C 788.460938 208.523438 783.785156 208.472656 778.992188 208.488281 C 764.875 208.539062 749.835938 208.898438 734.082031 208.980469 C 730.382812 209 726.640625 208.988281 722.859375 208.980469 C 709.238281 208.953125 695.15625 208.777344 680.753906 208.800781 C 668.332031 208.820312 655.675781 209.054688 642.863281 209.089844 C 634.496094 209.113281 626.066406 209.054688 617.605469 209.023438 C 611.355469 209.003906 605.085938 208.996094 598.808594 208.949219 C 589.421875 208.875 580.011719 208.683594 570.617188 208.636719 C 554.863281 208.558594 539.144531 208.789062 523.625 208.699219 C 515.738281 208.652344 507.902344 208.488281 500.132812 208.394531 C 496.988281 208.355469 493.855469 208.265625 490.734375 208.285156 C 489.390625 208.292969 488.046875 208.347656 486.707031 208.378906 C 472.023438 208.71875 457.664062 209.207031 443.75 209.363281 C 440.132812 209.40625 436.554688 209.382812 433.007812 209.367188 C 415.277344 209.285156 398.390625 208.910156 382.660156 208.914062 C 372.027344 208.914062 361.925781 209.164062 352.457031 209.195312 C 345.375 209.21875 338.648438 209.164062 332.320312 209.144531 C 323.160156 209.121094 314.828125 209.21875 307.453125 209.066406 C 283.9375 208.578125 270.164062 207.644531 270.164062 207.644531 Z M 270.164062 207.644531 " fill-opacity="1" fill-rule="evenodd"/><path fill="#ffa1a1" d="M 891.714844 207.644531 C 891.714844 207.644531 894.886719 206.714844 900.617188 206.222656 C 902.375 206.070312 904.367188 206.167969 906.554688 206.140625 C 908.066406 206.121094 909.671875 206.066406 911.363281 206.089844 C 913.628906 206.121094 916.03125 206.371094 918.578125 206.375 C 922.335938 206.378906 926.359375 206.003906 930.597656 205.921875 C 931.445312 205.90625 932.300781 205.878906 933.164062 205.921875 C 936.511719 206.082031 939.898438 206.566406 943.417969 206.910156 C 943.742188 206.941406 944.058594 206.996094 944.382812 207.003906 C 945.128906 207.023438 945.875 206.933594 946.625 206.894531 C 948.484375 206.800781 950.347656 206.636719 952.234375 206.589844 C 955.941406 206.5 959.695312 206.726562 963.457031 206.648438 C 965.703125 206.605469 967.941406 206.410156 970.1875 206.339844 C 971.6875 206.292969 973.183594 206.285156 974.675781 206.261719 C 976.695312 206.234375 978.710938 206.175781 980.707031 206.195312 C 983.769531 206.230469 986.785156 206.464844 989.753906 206.488281 C 993.195312 206.511719 996.554688 206.335938 999.808594 206.308594 C 1000.710938 206.300781 1001.605469 206.285156 1002.488281 206.304688 C 1006.257812 206.390625 1009.835938 206.75 1013.210938 206.800781 C 1014.355469 206.816406 1015.472656 206.765625 1016.5625 206.746094 C 1020.441406 206.675781 1023.960938 206.566406 1027.035156 206.535156 C 1027.949219 206.527344 1028.820312 206.519531 1029.652344 206.53125 C 1036.21875 206.648438 1040.125 206.914062 1040.125 206.914062 C 1040.527344 206.914062 1040.851562 207.238281 1040.851562 207.644531 C 1040.851562 208.046875 1040.527344 208.371094 1040.125 208.375 C 1040.125 208.375 1036.21875 208.640625 1029.652344 208.757812 C 1028.820312 208.769531 1027.949219 208.761719 1027.035156 208.753906 C 1023.960938 208.722656 1020.4375 208.609375 1016.5625 208.542969 C 1015.472656 208.523438 1014.355469 208.472656 1013.210938 208.488281 C 1009.835938 208.539062 1006.253906 208.894531 1002.488281 208.980469 C 1001.605469 209 1000.710938 208.988281 999.808594 208.980469 C 996.554688 208.953125 993.195312 208.777344 989.753906 208.800781 C 986.785156 208.820312 983.769531 209.058594 980.707031 209.089844 C 978.707031 209.113281 976.695312 209.054688 974.675781 209.023438 C 973.183594 209.003906 971.6875 208.996094 970.1875 208.949219 C 967.941406 208.878906 965.703125 208.683594 963.457031 208.636719 C 959.695312 208.558594 955.941406 208.789062 952.234375 208.699219 C 950.347656 208.652344 948.484375 208.488281 946.625 208.394531 C 945.875 208.355469 945.128906 208.265625 944.382812 208.285156 C 944.058594 208.292969 943.742188 208.347656 943.421875 208.378906 C 939.898438 208.71875 936.511719 209.207031 933.164062 209.363281 C 932.300781 209.40625 931.445312 209.382812 930.597656 209.367188 C 926.359375 209.285156 922.335938 208.910156 918.574219 208.914062 C 916.03125 208.914062 913.628906 209.164062 911.363281 209.195312 C 909.671875 209.21875 908.066406 209.164062 906.554688 209.144531 C 904.367188 209.117188 902.375 209.21875 900.617188 209.066406 C 894.886719 208.570312 891.714844 207.644531 891.714844 207.644531 Z M 891.714844 207.644531 " fill-opacity="1" fill-rule="evenodd"/><path fill="#ffa1a1" d="M 1060.964844 207.644531 C 1060.964844 207.644531 1062.097656 206.75 1064.785156 206.222656 C 1065.527344 206.074219 1066.394531 206.167969 1067.332031 206.140625 C 1067.980469 206.121094 1068.671875 206.066406 1069.398438 206.089844 C 1070.375 206.121094 1071.394531 206.371094 1072.492188 206.375 C 1074.117188 206.378906 1075.820312 206 1077.648438 205.921875 C 1078.011719 205.90625 1078.382812 205.882812 1078.75 205.921875 C 1080.238281 206.085938 1081.613281 206.558594 1083.152344 206.910156 C 1083.292969 206.941406 1083.421875 206.996094 1083.566406 207.003906 C 1083.886719 207.023438 1084.203125 206.933594 1084.527344 206.894531 C 1085.332031 206.796875 1086.117188 206.636719 1086.933594 206.589844 C 1088.523438 206.5 1090.136719 206.726562 1091.75 206.648438 C 1092.722656 206.605469 1093.667969 206.410156 1094.640625 206.339844 C 1095.28125 206.292969 1095.921875 206.28125 1096.566406 206.261719 C 1097.433594 206.234375 1098.296875 206.175781 1099.152344 206.195312 C 1100.472656 206.230469 1101.757812 206.464844 1103.035156 206.488281 C 1104.511719 206.507812 1105.953125 206.335938 1107.347656 206.308594 C 1107.738281 206.300781 1108.121094 206.285156 1108.5 206.304688 C 1110.128906 206.394531 1111.640625 206.75 1113.101562 206.800781 C 1113.59375 206.816406 1114.070312 206.765625 1114.539062 206.746094 C 1116.203125 206.675781 1117.710938 206.570312 1119.03125 206.535156 C 1119.425781 206.527344 1119.800781 206.519531 1120.15625 206.53125 C 1122.988281 206.652344 1124.648438 206.914062 1124.648438 206.914062 C 1125.050781 206.910156 1125.378906 207.242188 1125.378906 207.644531 C 1125.378906 208.050781 1125.050781 208.375 1124.648438 208.375 C 1124.648438 208.375 1122.988281 208.636719 1120.15625 208.757812 C 1119.800781 208.769531 1119.425781 208.761719 1119.03125 208.753906 C 1117.710938 208.722656 1116.203125 208.613281 1114.539062 208.542969 C 1114.070312 208.523438 1113.59375 208.472656 1113.101562 208.488281 C 1111.640625 208.539062 1110.128906 208.894531 1108.5 208.980469 C 1108.121094 209.003906 1107.734375 208.988281 1107.347656 208.980469 C 1105.953125 208.953125 1104.511719 208.777344 1103.035156 208.800781 C 1101.753906 208.824219 1100.472656 209.058594 1099.152344 209.089844 C 1098.296875 209.113281 1097.433594 209.054688 1096.566406 209.023438 C 1095.925781 209.003906 1095.28125 208.996094 1094.640625 208.949219 C 1093.667969 208.875 1092.722656 208.683594 1091.75 208.636719 C 1090.136719 208.5625 1088.523438 208.789062 1086.933594 208.699219 C 1086.117188 208.652344 1085.332031 208.488281 1084.527344 208.394531 C 1084.203125 208.355469 1083.886719 208.265625 1083.566406 208.285156 C 1083.421875 208.292969 1083.292969 208.347656 1083.152344 208.378906 C 1081.613281 208.726562 1080.238281 209.199219 1078.75 209.363281 C 1078.382812 209.40625 1078.015625 209.378906 1077.648438 209.367188 C 1075.820312 209.285156 1074.117188 208.910156 1072.492188 208.914062 C 1071.394531 208.914062 1070.375 209.164062 1069.398438 209.195312 C 1068.671875 209.21875 1067.980469 209.164062 1067.332031 209.144531 C 1066.394531 209.117188 1065.527344 209.210938 1064.785156 209.066406 C 1062.097656 208.539062 1060.964844 207.644531 1060.964844 207.644531 Z M 1060.964844 207.644531 " fill-opacity="1" fill-rule="evenodd"/><path fill="#ffa1a1" d="M 3.679688 310.136719 C 3.679688 310.136719 6.933594 309.207031 12.789062 308.714844 C 14.582031 308.5625 16.621094 308.660156 18.859375 308.632812 C 20.40625 308.613281 22.046875 308.558594 23.777344 308.582031 C 26.09375 308.617188 28.550781 308.863281 31.152344 308.867188 C 35 308.871094 39.113281 308.492188 43.445312 308.414062 C 44.3125 308.398438 45.1875 308.371094 46.070312 308.414062 C 49.492188 308.574219 52.960938 309.058594 56.5625 309.402344 C 56.890625 309.433594 57.214844 309.488281 57.542969 309.496094 C 58.308594 309.511719 59.070312 309.425781 59.839844 309.386719 C 61.738281 309.292969 63.644531 309.128906 65.574219 309.082031 C 69.367188 308.992188 73.203125 309.21875 77.050781 309.140625 C 79.347656 309.09375 81.640625 308.902344 83.9375 308.832031 C 85.46875 308.78125 87 308.773438 88.527344 308.753906 C 90.59375 308.726562 92.652344 308.667969 94.695312 308.6875 C 97.824219 308.722656 100.910156 308.957031 103.945312 308.976562 C 107.464844 309.003906 110.902344 308.828125 114.230469 308.800781 C 115.152344 308.789062 116.066406 308.777344 116.96875 308.796875 C 120.824219 308.882812 124.484375 309.242188 127.9375 309.292969 C 129.105469 309.308594 130.25 309.257812 131.363281 309.234375 C 135.328125 309.167969 138.929688 309.058594 142.074219 309.027344 C 143.007812 309.015625 143.902344 309.007812 144.75 309.023438 C 151.464844 309.140625 155.460938 309.402344 155.460938 309.402344 C 155.863281 309.40625 156.1875 309.730469 156.1875 310.136719 C 156.1875 310.539062 155.863281 310.867188 155.460938 310.867188 C 155.460938 310.867188 151.464844 311.128906 144.75 311.246094 C 143.902344 311.261719 143.007812 311.253906 142.074219 311.242188 C 138.929688 311.210938 135.328125 311.101562 131.363281 311.035156 C 130.25 311.011719 129.105469 310.960938 127.9375 310.976562 C 124.484375 311.03125 120.820312 311.386719 116.96875 311.476562 C 116.066406 311.496094 115.152344 311.480469 114.226562 311.472656 C 110.902344 311.441406 107.464844 311.269531 103.945312 311.292969 C 100.910156 311.316406 97.824219 311.550781 94.695312 311.582031 C 92.652344 311.601562 90.59375 311.542969 88.523438 311.515625 C 87 311.496094 85.46875 311.488281 83.9375 311.441406 C 81.640625 311.367188 79.351562 311.175781 77.050781 311.128906 C 73.203125 311.050781 69.367188 311.28125 65.574219 311.1875 C 63.644531 311.144531 61.738281 310.980469 59.839844 310.882812 C 59.070312 310.847656 58.308594 310.757812 57.542969 310.773438 C 57.214844 310.785156 56.890625 310.839844 56.558594 310.871094 C 52.960938 311.210938 49.492188 311.695312 46.070312 311.859375 C 45.1875 311.898438 44.3125 311.871094 43.445312 311.855469 C 39.113281 311.777344 35 311.402344 31.152344 311.40625 C 28.550781 311.40625 26.09375 311.65625 23.777344 311.691406 C 22.046875 311.714844 20.40625 311.65625 18.859375 311.640625 C 16.621094 311.609375 14.582031 311.710938 12.789062 311.558594 C 6.933594 311.066406 3.679688 310.136719 3.679688 310.136719 Z M 3.679688 310.136719 " fill-opacity="1" fill-rule="evenodd"/><path fill="#ffa1a1" d="M 155.445312 310.136719 C 155.445312 310.136719 161.894531 309.199219 173.039062 308.714844 C 176.515625 308.5625 180.449219 308.660156 184.769531 308.632812 C 187.753906 308.617188 190.929688 308.558594 194.269531 308.582031 C 198.738281 308.617188 203.5 308.863281 208.519531 308.867188 C 215.941406 308.867188 223.90625 308.492188 232.269531 308.414062 C 233.945312 308.398438 235.632812 308.371094 237.339844 308.414062 C 243.914062 308.574219 250.671875 309.0625 257.605469 309.402344 C 258.238281 309.429688 258.871094 309.488281 259.507812 309.496094 C 260.980469 309.511719 262.457031 309.425781 263.9375 309.386719 C 267.605469 309.292969 271.300781 309.128906 275.023438 309.082031 C 282.34375 308.992188 289.761719 309.21875 297.191406 309.140625 C 301.625 309.097656 306.0625 308.902344 310.492188 308.832031 C 313.453125 308.78125 316.410156 308.773438 319.359375 308.753906 C 323.351562 308.726562 327.328125 308.667969 331.277344 308.6875 C 337.320312 308.722656 343.292969 308.957031 349.152344 308.976562 C 355.949219 309 362.589844 308.828125 369.015625 308.800781 C 370.800781 308.789062 372.566406 308.777344 374.3125 308.796875 C 381.746094 308.882812 388.839844 309.242188 395.5 309.292969 C 397.761719 309.308594 399.96875 309.257812 402.121094 309.234375 C 409.777344 309.167969 416.742188 309.058594 422.8125 309.027344 C 424.613281 309.015625 426.339844 309.007812 427.984375 309.023438 C 440.945312 309.140625 448.675781 309.402344 448.675781 309.402344 C 449.074219 309.40625 449.402344 309.730469 449.402344 310.132812 C 449.402344 310.535156 449.074219 310.863281 448.671875 310.867188 C 448.671875 310.867188 440.941406 311.128906 427.984375 311.246094 C 426.34375 311.261719 424.613281 311.253906 422.8125 311.242188 C 416.738281 311.214844 409.777344 311.105469 402.121094 311.035156 C 399.96875 311.011719 397.761719 310.960938 395.5 310.976562 C 388.835938 311.027344 381.746094 311.386719 374.3125 311.476562 C 372.5625 311.492188 370.800781 311.480469 369.015625 311.472656 C 362.59375 311.445312 355.949219 311.269531 349.152344 311.292969 C 343.292969 311.316406 337.320312 311.550781 331.277344 311.582031 C 327.332031 311.601562 323.351562 311.542969 319.359375 311.515625 C 316.410156 311.496094 313.453125 311.488281 310.492188 311.441406 C 306.0625 311.367188 301.628906 311.175781 297.191406 311.128906 C 289.761719 311.050781 282.34375 311.28125 275.023438 311.1875 C 271.300781 311.144531 267.605469 310.980469 263.9375 310.882812 C 262.453125 310.84375 260.980469 310.757812 259.503906 310.773438 C 258.871094 310.785156 258.238281 310.839844 257.605469 310.871094 C 250.671875 311.210938 243.914062 311.699219 237.339844 311.859375 C 235.636719 311.898438 233.945312 311.871094 232.269531 311.855469 C 223.90625 311.777344 215.941406 311.402344 208.519531 311.40625 C 203.5 311.40625 198.738281 311.65625 194.269531 311.691406 C 190.929688 311.714844 187.753906 311.65625 184.769531 311.640625 C 180.449219 311.609375 176.515625 311.710938 173.039062 311.558594 C 161.894531 311.070312 155.445312 310.136719 155.445312 310.136719 Z M 155.445312 310.136719 " fill-opacity="1" fill-rule="evenodd"/><path fill="#ffa1a1" d="M 462.886719 310.136719 C 462.886719 310.136719 477.554688 309.199219 502.59375 308.714844 C 510.445312 308.5625 519.316406 308.660156 529.066406 308.632812 C 535.804688 308.617188 542.96875 308.558594 550.507812 308.582031 C 560.589844 308.613281 571.34375 308.863281 582.667969 308.867188 C 599.414062 308.871094 617.394531 308.492188 636.269531 308.414062 C 640.046875 308.398438 643.859375 308.371094 647.707031 308.414062 C 662.523438 308.574219 677.8125 309.058594 693.445312 309.402344 C 694.875 309.429688 696.300781 309.488281 697.738281 309.496094 C 701.058594 309.515625 704.394531 309.425781 707.742188 309.386719 C 716.011719 309.292969 724.355469 309.128906 732.753906 309.082031 C 749.277344 308.992188 766.015625 309.21875 782.785156 309.140625 C 792.792969 309.097656 802.808594 308.902344 812.804688 308.832031 C 819.484375 308.78125 826.160156 308.773438 832.816406 308.753906 C 841.828125 308.726562 850.800781 308.667969 859.710938 308.6875 C 873.351562 308.722656 886.828125 308.957031 900.054688 308.976562 C 915.386719 309 930.378906 308.828125 944.882812 308.800781 C 948.90625 308.789062 952.890625 308.777344 956.832031 308.796875 C 973.605469 308.882812 989.617188 309.242188 1004.648438 309.292969 C 1009.75 309.308594 1014.730469 309.257812 1019.59375 309.234375 C 1036.875 309.167969 1052.589844 309.058594 1066.289062 309.027344 C 1070.359375 309.015625 1074.253906 309.007812 1077.960938 309.023438 C 1107.199219 309.140625 1124.65625 309.402344 1124.65625 309.402344 C 1125.054688 309.40625 1125.378906 309.730469 1125.378906 310.136719 C 1125.378906 310.539062 1125.058594 310.863281 1124.652344 310.867188 C 1124.652344 310.867188 1107.203125 311.128906 1077.960938 311.246094 C 1074.253906 311.261719 1070.355469 311.253906 1066.289062 311.242188 C 1052.589844 311.210938 1036.875 311.105469 1019.59375 311.035156 C 1014.730469 311.011719 1009.75 310.960938 1004.652344 310.976562 C 989.621094 311.03125 973.601562 311.386719 956.835938 311.476562 C 952.886719 311.492188 948.90625 311.480469 944.878906 311.472656 C 930.382812 311.445312 915.386719 311.269531 900.054688 311.292969 C 886.828125 311.316406 873.347656 311.550781 859.710938 311.582031 C 850.804688 311.601562 841.828125 311.542969 832.816406 311.515625 C 826.160156 311.496094 819.488281 311.488281 812.804688 311.441406 C 802.808594 311.371094 792.789062 311.175781 782.785156 311.128906 C 766.015625 311.050781 749.28125 311.277344 732.753906 311.1875 C 724.355469 311.144531 716.011719 310.980469 707.742188 310.882812 C 704.394531 310.847656 701.058594 310.757812 697.734375 310.773438 C 696.304688 310.785156 694.875 310.839844 693.445312 310.871094 C 677.8125 311.210938 662.527344 311.699219 647.707031 311.859375 C 643.859375 311.898438 640.046875 311.871094 636.269531 311.855469 C 617.394531 311.777344 599.414062 311.402344 582.667969 311.40625 C 571.34375 311.40625 560.589844 311.65625 550.507812 311.691406 C 542.96875 311.714844 535.808594 311.65625 529.066406 311.640625 C 519.316406 311.609375 510.441406 311.710938 502.59375 311.558594 C 477.558594 311.074219 462.886719 310.136719 462.886719 310.136719 Z M 462.886719 310.136719 " fill-opacity="1" fill-rule="evenodd"/><path fill="#ffa1a1" d="M 775.871094 253.472656 C 775.871094 253.472656 758.75 254.40625 729.539062 254.894531 C 720.378906 255.046875 710.027344 254.949219 698.648438 254.976562 C 690.785156 254.992188 682.425781 255.050781 673.632812 255.027344 C 661.867188 254.992188 649.320312 254.742188 636.101562 254.742188 C 616.566406 254.738281 595.582031 255.113281 573.558594 255.191406 C 569.152344 255.207031 564.703125 255.234375 560.210938 255.195312 C 542.925781 255.03125 525.082031 254.546875 506.839844 254.207031 C 505.175781 254.175781 503.507812 254.121094 501.835938 254.113281 C 497.957031 254.09375 494.0625 254.183594 490.160156 254.21875 C 480.511719 254.316406 470.773438 254.480469 460.972656 254.523438 C 441.691406 254.617188 422.164062 254.386719 402.59375 254.464844 C 390.917969 254.511719 379.226562 254.707031 367.566406 254.777344 C 359.765625 254.824219 351.980469 254.832031 344.214844 254.851562 C 333.699219 254.878906 323.226562 254.9375 312.828125 254.917969 C 296.917969 254.886719 281.1875 254.652344 265.757812 254.628906 C 247.859375 254.605469 230.367188 254.78125 213.449219 254.808594 C 208.753906 254.816406 204.101562 254.832031 199.5 254.8125 C 179.9375 254.722656 161.242188 254.367188 143.703125 254.3125 C 137.753906 254.296875 131.941406 254.347656 126.269531 254.371094 C 106.105469 254.441406 87.769531 254.546875 71.78125 254.578125 C 67.03125 254.589844 62.488281 254.597656 58.160156 254.582031 C 24.039062 254.464844 3.679688 254.203125 3.679688 254.203125 C 3.277344 254.203125 2.949219 253.875 2.949219 253.46875 C 2.953125 253.070312 3.273438 252.742188 3.675781 252.738281 C 3.675781 252.738281 24.046875 252.476562 58.164062 252.359375 C 62.488281 252.347656 67.035156 252.351562 71.78125 252.363281 C 87.769531 252.394531 106.105469 252.503906 126.269531 252.574219 C 131.945312 252.59375 137.753906 252.644531 143.707031 252.628906 C 161.246094 252.578125 179.9375 252.21875 199.503906 252.132812 C 204.101562 252.113281 208.75 252.125 213.445312 252.136719 C 230.371094 252.164062 247.863281 252.335938 265.757812 252.3125 C 281.1875 252.292969 296.917969 252.058594 312.832031 252.023438 C 323.226562 252.003906 333.699219 252.0625 344.214844 252.089844 C 351.980469 252.109375 359.769531 252.117188 367.566406 252.167969 C 379.226562 252.238281 390.917969 252.433594 402.59375 252.480469 C 422.160156 252.554688 441.691406 252.328125 460.972656 252.417969 C 470.773438 252.464844 480.507812 252.628906 490.160156 252.722656 C 494.066406 252.761719 497.957031 252.851562 501.832031 252.832031 C 503.507812 252.824219 505.175781 252.765625 506.839844 252.738281 C 525.082031 252.398438 542.921875 251.910156 560.210938 251.75 C 564.703125 251.707031 569.148438 251.734375 573.554688 251.75 C 595.582031 251.828125 616.5625 252.207031 636.105469 252.203125 C 649.316406 252.199219 661.867188 251.949219 673.628906 251.917969 C 682.425781 251.894531 690.785156 251.953125 698.648438 251.972656 C 710.027344 251.996094 720.378906 251.898438 729.539062 252.050781 C 758.746094 252.535156 775.871094 253.472656 775.871094 253.472656 Z M 775.871094 253.472656 " fill-opacity="1" fill-rule="evenodd"/><path fill="#ffa1a1" d="M 872.121094 253.472656 C 872.121094 253.472656 870.609375 254.382812 867.417969 254.894531 C 866.5 255.042969 865.441406 254.949219 864.285156 254.976562 C 863.488281 254.992188 862.640625 255.050781 861.746094 255.027344 C 860.546875 254.992188 859.285156 254.746094 857.9375 254.742188 C 855.945312 254.738281 853.835938 255.113281 851.59375 255.191406 C 851.144531 255.210938 850.691406 255.234375 850.238281 255.195312 C 848.433594 255.03125 846.703125 254.550781 844.824219 254.207031 C 844.652344 254.175781 844.488281 254.121094 844.316406 254.113281 C 843.917969 254.09375 843.527344 254.183594 843.128906 254.21875 C 842.144531 254.316406 841.171875 254.476562 840.167969 254.523438 C 838.214844 254.617188 836.230469 254.386719 834.246094 254.464844 C 833.054688 254.511719 831.882812 254.703125 830.691406 254.777344 C 829.902344 254.824219 829.109375 254.832031 828.324219 254.851562 C 827.253906 254.878906 826.191406 254.9375 825.136719 254.917969 C 823.519531 254.886719 821.933594 254.652344 820.363281 254.628906 C 818.542969 254.605469 816.773438 254.777344 815.054688 254.808594 C 814.578125 254.816406 814.105469 254.828125 813.640625 254.8125 C 811.640625 254.722656 809.769531 254.367188 807.976562 254.3125 C 807.375 254.296875 806.785156 254.347656 806.207031 254.371094 C 804.160156 254.4375 802.304688 254.546875 800.679688 254.578125 C 800.199219 254.589844 799.738281 254.597656 799.296875 254.582031 C 795.824219 254.464844 793.769531 254.203125 793.769531 254.203125 C 793.367188 254.203125 793.042969 253.871094 793.042969 253.46875 C 793.042969 253.066406 793.367188 252.742188 793.769531 252.738281 C 793.769531 252.738281 795.820312 252.476562 799.296875 252.359375 C 799.738281 252.347656 800.199219 252.351562 800.679688 252.363281 C 802.304688 252.394531 804.160156 252.503906 806.207031 252.574219 C 806.785156 252.59375 807.375 252.644531 807.976562 252.628906 C 809.769531 252.578125 811.640625 252.222656 813.640625 252.132812 C 814.105469 252.113281 814.578125 252.125 815.054688 252.136719 C 816.773438 252.164062 818.542969 252.339844 820.363281 252.3125 C 821.933594 252.292969 823.519531 252.058594 825.136719 252.023438 C 826.191406 252.003906 827.253906 252.0625 828.324219 252.089844 C 829.109375 252.113281 829.902344 252.121094 830.691406 252.167969 C 831.882812 252.238281 833.054688 252.433594 834.246094 252.480469 C 836.230469 252.554688 838.214844 252.328125 840.167969 252.417969 C 841.171875 252.464844 842.144531 252.628906 843.128906 252.722656 C 843.527344 252.761719 843.917969 252.851562 844.316406 252.832031 C 844.488281 252.824219 844.652344 252.769531 844.824219 252.738281 C 846.703125 252.390625 848.433594 251.914062 850.238281 251.75 C 850.691406 251.710938 851.144531 251.734375 851.59375 251.75 C 853.835938 251.832031 855.945312 252.207031 857.9375 252.203125 C 859.285156 252.203125 860.546875 251.949219 861.746094 251.917969 C 862.640625 251.894531 863.488281 251.953125 864.285156 251.972656 C 865.441406 251.996094 866.5 251.902344 867.417969 252.050781 C 870.609375 252.566406 872.121094 253.472656 872.121094 253.472656 Z M 872.121094 253.472656 " fill-opacity="1" fill-rule="evenodd"/><path fill="#ffa1a1" d="M 1124.632812 253.472656 C 1124.632812 253.472656 1119.207031 254.40625 1109.78125 254.894531 C 1106.847656 255.046875 1103.527344 254.949219 1099.878906 254.976562 C 1097.359375 254.992188 1094.679688 255.050781 1091.859375 255.027344 C 1088.085938 254.992188 1084.070312 254.742188 1079.832031 254.742188 C 1073.566406 254.738281 1066.84375 255.113281 1059.78125 255.191406 C 1058.371094 255.207031 1056.941406 255.238281 1055.503906 255.195312 C 1049.949219 255.035156 1044.253906 254.546875 1038.398438 254.207031 C 1037.863281 254.175781 1037.328125 254.121094 1036.792969 254.113281 C 1035.550781 254.09375 1034.304688 254.183594 1033.050781 254.21875 C 1029.957031 254.316406 1026.839844 254.480469 1023.695312 254.523438 C 1017.515625 254.617188 1011.253906 254.386719 1004.980469 254.464844 C 1001.234375 254.511719 997.496094 254.703125 993.753906 254.777344 C 991.253906 254.824219 988.757812 254.832031 986.269531 254.851562 C 982.898438 254.878906 979.539062 254.9375 976.207031 254.917969 C 971.105469 254.886719 966.066406 254.648438 961.117188 254.628906 C 955.382812 254.605469 949.773438 254.78125 944.351562 254.808594 C 942.847656 254.816406 941.355469 254.832031 939.878906 254.8125 C 933.605469 254.722656 927.621094 254.367188 921.996094 254.3125 C 920.089844 254.296875 918.226562 254.347656 916.40625 254.371094 C 909.941406 254.4375 904.066406 254.550781 898.941406 254.578125 C 897.417969 254.589844 895.960938 254.597656 894.574219 254.582031 C 883.632812 254.464844 877.113281 254.203125 877.113281 254.203125 C 876.707031 254.203125 876.382812 253.875 876.382812 253.472656 C 876.382812 253.066406 876.710938 252.742188 877.109375 252.738281 C 877.109375 252.738281 883.636719 252.476562 894.574219 252.359375 C 895.960938 252.347656 897.417969 252.351562 898.941406 252.363281 C 904.070312 252.394531 909.945312 252.503906 916.40625 252.574219 C 918.226562 252.59375 920.089844 252.644531 921.996094 252.628906 C 927.621094 252.578125 933.605469 252.21875 939.882812 252.132812 C 941.355469 252.113281 942.847656 252.125 944.351562 252.136719 C 949.777344 252.164062 955.382812 252.335938 961.117188 252.3125 C 966.066406 252.292969 971.105469 252.058594 976.207031 252.023438 C 979.542969 252.003906 982.898438 252.0625 986.269531 252.089844 C 988.757812 252.109375 991.253906 252.117188 993.753906 252.167969 C 997.492188 252.238281 1001.234375 252.433594 1004.980469 252.480469 C 1011.253906 252.554688 1017.515625 252.328125 1023.695312 252.417969 C 1026.839844 252.464844 1029.957031 252.628906 1033.050781 252.722656 C 1034.300781 252.761719 1035.550781 252.851562 1036.792969 252.832031 C 1037.328125 252.824219 1037.859375 252.769531 1038.398438 252.738281 C 1044.253906 252.398438 1049.949219 251.910156 1055.503906 251.75 C 1056.945312 251.707031 1058.371094 251.734375 1059.78125 251.75 C 1066.84375 251.832031 1073.566406 252.207031 1079.832031 252.203125 C 1084.070312 252.203125 1088.085938 251.953125 1091.859375 251.917969 C 1094.679688 251.894531 1097.359375 251.953125 1099.878906 251.972656 C 1103.527344 251.996094 1106.847656 251.898438 1109.78125 252.050781 C 1119.210938 252.539062 1124.632812 253.472656 1124.632812 253.472656 Z M 1124.632812 253.472656 " fill-opacity="1" fill-rule="evenodd"/><path fill="#ffa1a1" d="M 835.023438 383.6875 C 835.023438 383.6875 818.601562 384.621094 790.589844 385.109375 C 781.800781 385.261719 771.875 385.164062 760.960938 385.1875 C 753.417969 385.207031 745.402344 385.265625 736.964844 385.238281 C 725.683594 385.207031 713.644531 384.957031 700.972656 384.957031 C 682.230469 384.953125 662.109375 385.328125 640.984375 385.410156 C 636.753906 385.425781 632.488281 385.449219 628.183594 385.40625 C 611.601562 385.25 594.488281 384.761719 576.992188 384.421875 C 575.398438 384.390625 573.796875 384.335938 572.191406 384.328125 C 568.476562 384.308594 564.742188 384.398438 560.996094 384.4375 C 551.738281 384.53125 542.402344 384.695312 533.003906 384.742188 C 514.507812 384.832031 495.777344 384.601562 477.007812 384.679688 C 465.8125 384.726562 454.601562 384.917969 443.414062 384.992188 C 435.9375 385.039062 428.464844 385.046875 421.019531 385.066406 C 410.933594 385.097656 400.890625 385.15625 390.917969 385.132812 C 375.652344 385.101562 360.570312 384.867188 345.769531 384.847656 C 328.605469 384.820312 311.828125 384.996094 295.597656 385.023438 C 291.09375 385.03125 286.632812 385.042969 282.226562 385.023438 C 263.453125 384.941406 245.53125 384.582031 228.710938 384.53125 C 223 384.515625 217.425781 384.566406 211.984375 384.585938 C 192.644531 384.65625 175.058594 384.765625 159.722656 384.796875 C 155.171875 384.804688 150.8125 384.8125 146.664062 384.800781 C 113.941406 384.683594 94.402344 384.417969 94.402344 384.417969 C 94.003906 384.417969 93.679688 384.089844 93.671875 383.6875 C 93.675781 383.285156 94.003906 382.957031 94.40625 382.957031 C 94.40625 382.957031 113.933594 382.691406 146.660156 382.574219 C 150.808594 382.5625 155.175781 382.570312 159.722656 382.578125 C 175.054688 382.609375 192.644531 382.71875 211.984375 382.789062 C 217.425781 382.808594 223 382.859375 228.707031 382.84375 C 245.527344 382.792969 263.457031 382.433594 282.21875 382.347656 C 286.640625 382.328125 291.09375 382.34375 295.601562 382.351562 C 311.824219 382.378906 328.609375 382.554688 345.769531 382.53125 C 360.570312 382.507812 375.65625 382.273438 390.917969 382.242188 C 400.886719 382.21875 410.933594 382.277344 421.019531 382.304688 C 428.464844 382.328125 435.933594 382.335938 443.414062 382.382812 C 454.601562 382.453125 465.8125 382.648438 477.007812 382.695312 C 495.78125 382.769531 514.507812 382.542969 533.003906 382.632812 C 542.402344 382.679688 551.742188 382.84375 560.996094 382.9375 C 564.742188 382.976562 568.472656 383.0625 572.195312 383.046875 C 573.796875 383.039062 575.398438 382.984375 576.996094 382.953125 C 594.488281 382.613281 611.605469 382.125 628.183594 381.964844 C 632.488281 381.925781 636.757812 381.949219 640.984375 381.964844 C 662.109375 382.046875 682.234375 382.421875 700.972656 382.417969 C 713.648438 382.417969 725.683594 382.167969 736.964844 382.132812 C 745.402344 382.109375 753.417969 382.164062 760.960938 382.183594 C 771.875 382.210938 781.804688 382.113281 790.585938 382.265625 C 818.605469 382.75 835.023438 383.6875 835.023438 383.6875 Z M 835.023438 383.6875 " fill-opacity="1" fill-rule="evenodd"/><path fill="#ffa1a1" d="M 76.121094 383.6875 C 76.121094 383.6875 74.761719 384.589844 71.777344 385.109375 C 70.929688 385.253906 69.945312 385.160156 68.878906 385.1875 C 68.140625 385.207031 67.355469 385.265625 66.53125 385.238281 C 65.421875 385.207031 64.257812 384.957031 63.011719 384.957031 C 61.167969 384.953125 59.21875 385.328125 57.140625 385.410156 C 56.730469 385.421875 56.308594 385.449219 55.890625 385.40625 C 54.214844 385.246094 52.625 384.765625 50.882812 384.421875 C 50.722656 384.390625 50.574219 384.335938 50.414062 384.328125 C 50.046875 384.308594 49.6875 384.394531 49.316406 384.4375 C 48.40625 384.53125 47.507812 384.691406 46.578125 384.742188 C 44.773438 384.828125 42.9375 384.601562 41.101562 384.679688 C 40 384.726562 38.917969 384.917969 37.816406 384.992188 C 37.085938 385.039062 36.355469 385.046875 35.625 385.066406 C 34.640625 385.097656 33.65625 385.15625 32.679688 385.132812 C 31.183594 385.101562 29.71875 384.867188 28.265625 384.847656 C 26.585938 384.820312 24.945312 384.996094 23.355469 385.023438 C 22.917969 385.03125 22.480469 385.042969 22.050781 385.023438 C 20.199219 384.9375 18.472656 384.582031 16.816406 384.53125 C 16.257812 384.515625 15.710938 384.566406 15.179688 384.585938 C 13.285156 384.65625 11.570312 384.761719 10.066406 384.796875 C 9.621094 384.804688 9.195312 384.8125 8.789062 384.800781 C 5.574219 384.683594 3.675781 384.417969 3.675781 384.417969 C 3.277344 384.417969 2.949219 384.089844 2.949219 383.6875 C 2.949219 383.285156 3.277344 382.957031 3.675781 382.957031 C 3.675781 382.957031 5.574219 382.695312 8.789062 382.574219 C 9.195312 382.5625 9.621094 382.570312 10.066406 382.578125 C 11.570312 382.609375 13.285156 382.71875 15.179688 382.789062 C 15.710938 382.808594 16.257812 382.859375 16.8125 382.84375 C 18.472656 382.792969 20.199219 382.433594 22.050781 382.347656 C 22.480469 382.328125 22.917969 382.34375 23.359375 382.351562 C 24.945312 382.378906 26.585938 382.554688 28.265625 382.53125 C 29.71875 382.507812 31.183594 382.273438 32.679688 382.242188 C 33.65625 382.21875 34.640625 382.277344 35.625 382.304688 C 36.355469 382.324219 37.085938 382.335938 37.816406 382.382812 C 38.917969 382.453125 40 382.648438 41.101562 382.695312 C 42.9375 382.769531 44.773438 382.542969 46.578125 382.632812 C 47.507812 382.679688 48.40625 382.84375 49.316406 382.9375 C 49.6875 382.976562 50.046875 383.066406 50.414062 383.046875 C 50.574219 383.039062 50.722656 382.984375 50.882812 382.953125 C 52.625 382.605469 54.214844 382.128906 55.890625 381.964844 C 56.308594 381.921875 56.730469 381.949219 57.140625 381.964844 C 59.21875 382.042969 61.167969 382.421875 63.011719 382.417969 C 64.257812 382.414062 65.421875 382.164062 66.53125 382.132812 C 67.355469 382.109375 68.140625 382.164062 68.878906 382.183594 C 69.945312 382.210938 70.929688 382.117188 71.777344 382.265625 C 74.761719 382.78125 76.121094 383.6875 76.121094 383.6875 Z M 76.121094 383.6875 " fill-opacity="1" fill-rule="evenodd"/><path fill="#ffa1a1" d="M 1124.632812 383.6875 C 1124.632812 383.6875 1118.5625 384.621094 1108.058594 385.109375 C 1104.785156 385.261719 1101.082031 385.164062 1097.007812 385.1875 C 1094.195312 385.207031 1091.207031 385.265625 1088.058594 385.238281 C 1083.847656 385.207031 1079.363281 384.957031 1074.636719 384.957031 C 1067.640625 384.953125 1060.140625 385.328125 1052.261719 385.410156 C 1050.683594 385.425781 1049.09375 385.453125 1047.488281 385.40625 C 1041.289062 385.246094 1034.929688 384.761719 1028.394531 384.421875 C 1027.800781 384.390625 1027.203125 384.335938 1026.605469 384.328125 C 1025.21875 384.308594 1023.824219 384.398438 1022.429688 384.4375 C 1018.976562 384.53125 1015.496094 384.691406 1011.988281 384.742188 C 1005.089844 384.832031 998.105469 384.601562 991.101562 384.679688 C 986.925781 384.726562 982.75 384.921875 978.574219 384.992188 C 975.785156 385.039062 972.996094 385.046875 970.21875 385.066406 C 966.457031 385.097656 962.710938 385.15625 958.992188 385.132812 C 953.300781 385.101562 947.675781 384.863281 942.152344 384.847656 C 935.753906 384.820312 929.496094 384.996094 923.441406 385.023438 C 921.761719 385.03125 920.097656 385.042969 918.453125 385.023438 C 911.453125 384.9375 904.769531 384.582031 898.496094 384.53125 C 896.367188 384.515625 894.285156 384.566406 892.257812 384.585938 C 885.042969 384.65625 878.484375 384.765625 872.765625 384.796875 C 871.066406 384.804688 869.441406 384.8125 867.894531 384.800781 C 855.683594 384.679688 848.402344 384.417969 848.402344 384.417969 C 848 384.417969 847.675781 384.089844 847.675781 383.6875 C 847.675781 383.285156 848.003906 382.957031 848.402344 382.957031 C 848.402344 382.957031 855.683594 382.695312 867.890625 382.574219 C 869.441406 382.5625 871.066406 382.570312 872.765625 382.578125 C 878.484375 382.609375 885.042969 382.71875 892.257812 382.789062 C 894.285156 382.808594 896.363281 382.859375 898.492188 382.84375 C 904.769531 382.792969 911.449219 382.433594 918.453125 382.347656 C 920.101562 382.328125 921.761719 382.34375 923.441406 382.351562 C 929.496094 382.378906 935.753906 382.550781 942.15625 382.53125 C 947.675781 382.507812 953.300781 382.273438 958.992188 382.242188 C 962.710938 382.21875 966.457031 382.277344 970.21875 382.304688 C 973 382.328125 975.785156 382.335938 978.574219 382.382812 C 982.746094 382.453125 986.925781 382.648438 991.101562 382.695312 C 998.105469 382.769531 1005.089844 382.542969 1011.988281 382.632812 C 1015.496094 382.679688 1018.976562 382.84375 1022.429688 382.9375 C 1023.828125 382.976562 1025.21875 383.0625 1026.605469 383.046875 C 1027.203125 383.039062 1027.796875 382.984375 1028.394531 382.953125 C 1034.925781 382.609375 1041.289062 382.125 1047.488281 381.964844 C 1049.089844 381.921875 1050.683594 381.949219 1052.261719 381.964844 C 1060.140625 382.042969 1067.640625 382.421875 1074.636719 382.417969 C 1079.363281 382.414062 1083.847656 382.164062 1088.058594 382.132812 C 1091.207031 382.109375 1094.195312 382.164062 1097.007812 382.183594 C 1101.082031 382.210938 1104.785156 382.113281 1108.058594 382.265625 C 1118.566406 382.753906 1124.632812 383.6875 1124.632812 383.6875 Z M 1124.632812 383.6875 " fill-opacity="1" fill-rule="evenodd"/><path fill="#ffa1a1" d="M 467.871094 483.929688 C 467.871094 483.929688 457.601562 484.863281 440.019531 485.351562 C 434.515625 485.503906 428.292969 485.402344 421.453125 485.429688 C 416.722656 485.449219 411.699219 485.503906 406.414062 485.480469 C 399.339844 485.449219 391.796875 485.199219 383.855469 485.199219 C 372.105469 485.195312 359.496094 485.570312 346.253906 485.652344 C 343.605469 485.667969 340.929688 485.691406 338.230469 485.648438 C 327.835938 485.492188 317.117188 485.003906 306.148438 484.664062 C 305.148438 484.632812 304.144531 484.578125 303.140625 484.570312 C 300.808594 484.550781 298.46875 484.640625 296.121094 484.675781 C 290.320312 484.773438 284.46875 484.9375 278.574219 484.980469 C 266.984375 485.074219 255.246094 484.84375 243.480469 484.921875 C 236.464844 484.96875 229.4375 485.164062 222.425781 485.234375 C 217.738281 485.28125 213.054688 485.289062 208.390625 485.308594 C 202.066406 485.339844 195.769531 485.394531 189.519531 485.375 C 179.957031 485.34375 170.503906 485.105469 161.222656 485.085938 C 150.46875 485.0625 139.953125 485.238281 129.777344 485.265625 C 126.957031 485.273438 124.160156 485.285156 121.394531 485.265625 C 109.628906 485.179688 98.398438 484.824219 87.855469 484.773438 C 84.277344 484.753906 80.78125 484.804688 77.371094 484.828125 C 65.253906 484.898438 54.230469 485.003906 44.621094 485.039062 C 41.765625 485.046875 39.03125 485.054688 36.429688 485.039062 C 15.921875 484.925781 3.679688 484.660156 3.679688 484.660156 C 3.277344 484.660156 2.953125 484.332031 2.953125 483.929688 C 2.953125 483.523438 3.277344 483.199219 3.679688 483.199219 C 3.679688 483.199219 15.921875 482.933594 36.429688 482.816406 C 39.03125 482.804688 41.765625 482.808594 44.621094 482.820312 C 54.234375 482.851562 65.25 482.960938 77.375 483.03125 C 80.78125 483.050781 84.28125 483.101562 87.851562 483.085938 C 98.402344 483.035156 109.632812 482.675781 121.394531 482.589844 C 124.164062 482.570312 126.957031 482.582031 129.78125 482.589844 C 139.949219 482.621094 150.464844 482.792969 161.226562 482.769531 C 170.5 482.75 179.957031 482.515625 189.523438 482.484375 C 195.769531 482.460938 202.066406 482.519531 208.386719 482.546875 C 213.054688 482.566406 217.734375 482.578125 222.425781 482.625 C 229.4375 482.695312 236.460938 482.890625 243.484375 482.9375 C 255.246094 483.011719 266.984375 482.785156 278.574219 482.875 C 284.46875 482.921875 290.320312 483.082031 296.121094 483.179688 C 298.46875 483.21875 300.808594 483.304688 303.140625 483.289062 C 304.144531 483.28125 305.148438 483.226562 306.148438 483.195312 C 317.117188 482.851562 327.835938 482.367188 338.230469 482.207031 C 340.929688 482.164062 343.605469 482.191406 346.253906 482.207031 C 359.496094 482.285156 372.105469 482.660156 383.851562 482.660156 C 391.796875 482.65625 399.339844 482.40625 406.414062 482.375 C 411.699219 482.351562 416.726562 482.40625 421.453125 482.425781 C 428.292969 482.453125 434.515625 482.355469 440.019531 482.503906 C 457.601562 482.992188 467.871094 483.929688 467.871094 483.929688 Z M 467.871094 483.929688 " fill-opacity="1" fill-rule="evenodd"/><path fill="#ffa1a1" d="M 1124.644531 483.921875 C 1124.644531 483.921875 1121.699219 484.851562 1116.335938 485.34375 C 1114.699219 485.496094 1112.839844 485.398438 1110.800781 485.425781 C 1109.390625 485.445312 1107.890625 485.5 1106.3125 485.476562 C 1104.199219 485.445312 1101.957031 485.195312 1099.585938 485.191406 C 1096.078125 485.191406 1092.324219 485.566406 1088.371094 485.644531 C 1087.582031 485.660156 1086.78125 485.6875 1085.980469 485.644531 C 1082.851562 485.484375 1079.695312 485 1076.410156 484.660156 C 1076.109375 484.628906 1075.816406 484.574219 1075.511719 484.5625 C 1074.816406 484.546875 1074.121094 484.632812 1073.417969 484.671875 C 1071.6875 484.769531 1069.949219 484.929688 1068.1875 484.976562 C 1064.730469 485.066406 1061.226562 484.839844 1057.71875 484.917969 C 1055.621094 484.964844 1053.535156 485.15625 1051.441406 485.226562 C 1050.042969 485.277344 1048.644531 485.285156 1047.253906 485.304688 C 1045.367188 485.332031 1043.488281 485.390625 1041.625 485.371094 C 1038.769531 485.335938 1035.957031 485.101562 1033.1875 485.082031 C 1029.976562 485.058594 1026.84375 485.230469 1023.808594 485.261719 C 1022.964844 485.269531 1022.132812 485.28125 1021.308594 485.261719 C 1017.792969 485.175781 1014.453125 484.820312 1011.304688 484.769531 C 1010.238281 484.75 1009.195312 484.800781 1008.179688 484.820312 C 1004.5625 484.890625 1001.277344 485 998.410156 485.03125 C 997.558594 485.042969 996.742188 485.050781 995.96875 485.035156 C 989.839844 484.917969 986.199219 484.65625 986.199219 484.65625 C 985.796875 484.65625 985.472656 484.328125 985.46875 483.925781 C 985.472656 483.519531 985.796875 483.195312 986.199219 483.195312 C 986.199219 483.195312 989.84375 482.929688 995.96875 482.8125 C 996.742188 482.796875 997.558594 482.804688 998.410156 482.816406 C 1001.277344 482.847656 1004.5625 482.957031 1008.179688 483.027344 C 1009.195312 483.046875 1010.238281 483.097656 1011.304688 483.078125 C 1014.457031 483.03125 1017.792969 482.671875 1021.308594 482.585938 C 1022.132812 482.566406 1022.96875 482.578125 1023.808594 482.585938 C 1026.84375 482.617188 1029.976562 482.789062 1033.1875 482.765625 C 1035.957031 482.746094 1038.769531 482.511719 1041.625 482.476562 C 1043.488281 482.457031 1045.367188 482.515625 1047.253906 482.542969 C 1048.644531 482.5625 1050.042969 482.570312 1051.4375 482.621094 C 1053.535156 482.691406 1055.621094 482.882812 1057.71875 482.929688 C 1061.226562 483.007812 1064.730469 482.78125 1068.1875 482.871094 C 1069.949219 482.917969 1071.6875 483.078125 1073.417969 483.175781 C 1074.121094 483.214844 1074.816406 483.300781 1075.511719 483.28125 C 1075.816406 483.273438 1076.109375 483.21875 1076.410156 483.1875 C 1079.695312 482.847656 1082.851562 482.363281 1085.980469 482.203125 C 1086.78125 482.160156 1087.582031 482.1875 1088.371094 482.203125 C 1092.324219 482.28125 1096.078125 482.65625 1099.585938 482.652344 C 1101.957031 482.652344 1104.199219 482.402344 1106.3125 482.371094 C 1107.890625 482.347656 1109.390625 482.402344 1110.800781 482.421875 C 1112.839844 482.449219 1114.699219 482.351562 1116.335938 482.5 C 1121.699219 482.996094 1124.644531 483.921875 1124.644531 483.921875 Z M 1124.644531 483.921875 " fill-opacity="1" fill-rule="evenodd"/><path fill="#ffa1a1" d="M 934.402344 483.917969 C 934.402344 483.917969 924.464844 484.851562 907.445312 485.339844 C 902.117188 485.492188 896.09375 485.390625 889.472656 485.417969 C 884.898438 485.4375 880.035156 485.496094 874.914062 485.46875 C 868.066406 485.4375 860.769531 485.1875 853.078125 485.1875 C 841.707031 485.183594 829.5 485.558594 816.683594 485.640625 C 814.117188 485.65625 811.527344 485.679688 808.917969 485.636719 C 798.855469 485.480469 788.480469 484.992188 777.859375 484.652344 C 776.890625 484.621094 775.921875 484.566406 774.953125 484.558594 C 772.695312 484.539062 770.429688 484.628906 768.15625 484.667969 C 762.542969 484.761719 756.878906 484.925781 751.171875 484.96875 C 739.953125 485.0625 728.589844 484.832031 717.203125 484.910156 C 710.410156 484.957031 703.609375 485.148438 696.820312 485.222656 C 692.285156 485.269531 687.753906 485.277344 683.234375 485.296875 C 677.117188 485.328125 671.019531 485.382812 664.972656 485.363281 C 655.714844 485.332031 646.566406 485.097656 637.582031 485.074219 C 627.171875 485.050781 616.992188 485.226562 607.144531 485.253906 C 604.414062 485.261719 601.710938 485.273438 599.03125 485.253906 C 587.644531 485.167969 576.769531 484.8125 566.5625 484.761719 C 563.101562 484.742188 559.71875 484.792969 556.421875 484.8125 C 544.683594 484.886719 534.019531 484.992188 524.714844 485.027344 C 521.949219 485.035156 519.308594 485.042969 516.789062 485.027344 C 496.933594 484.910156 485.085938 484.648438 485.085938 484.648438 C 484.6875 484.648438 484.359375 484.320312 484.359375 483.917969 C 484.359375 483.515625 484.683594 483.1875 485.085938 483.1875 C 485.085938 483.1875 496.9375 482.921875 516.789062 482.804688 C 519.304688 482.792969 521.953125 482.796875 524.71875 482.808594 C 534.019531 482.839844 544.6875 482.949219 556.421875 483.019531 C 559.71875 483.039062 563.101562 483.089844 566.566406 483.074219 C 576.769531 483.023438 587.644531 482.664062 599.03125 482.578125 C 601.710938 482.558594 604.414062 482.570312 607.148438 482.578125 C 616.992188 482.609375 627.171875 482.785156 637.582031 482.757812 C 646.566406 482.738281 655.714844 482.503906 664.976562 482.472656 C 671.023438 482.449219 677.113281 482.507812 683.238281 482.535156 C 687.753906 482.554688 692.285156 482.5625 696.824219 482.613281 C 703.613281 482.683594 710.410156 482.878906 717.207031 482.921875 C 728.589844 483 739.953125 482.773438 751.171875 482.863281 C 756.878906 482.910156 762.542969 483.070312 768.15625 483.167969 C 770.429688 483.207031 772.695312 483.292969 774.949219 483.277344 C 775.925781 483.269531 776.894531 483.214844 777.863281 483.183594 C 788.480469 482.84375 798.851562 482.355469 808.917969 482.195312 C 811.53125 482.152344 814.121094 482.179688 816.683594 482.195312 C 829.5 482.273438 841.707031 482.652344 853.078125 482.648438 C 860.765625 482.644531 868.070312 482.394531 874.914062 482.363281 C 880.035156 482.339844 884.898438 482.398438 889.472656 482.414062 C 896.09375 482.441406 902.117188 482.34375 907.445312 482.496094 C 924.464844 482.980469 934.402344 483.917969 934.402344 483.917969 Z M 934.402344 483.917969 " fill-opacity="1" fill-rule="evenodd"/></svg>